<?xml version="1.0" encoding="UTF-8" standalone="no"?>
<!DOCTYPE svg PUBLIC "-//W3C//DTD SVG 20010904//EN"
              "http://www.w3.org/TR/2001/REC-SVG-20010904/DTD/svg10.dtd">

<svg xmlns="http://www.w3.org/2000/svg"
     width="100%" height="100%"
     viewBox="0 0 1860 1229">
  <path id="Selection"
        fill="#ac2b90" stroke="#ac2b90" stroke-width="1"
        d="M 495.00,0.00
           C 495.00,0.00 495.00,4.00 495.00,4.00
             503.12,6.77 501.04,19.73 493.00,21.53
             487.11,22.85 478.98,17.08 484.00,10.00
             484.00,10.00 482.00,7.00 482.00,7.00
             482.00,7.00 487.00,4.00 487.00,4.00
             487.00,4.00 486.00,0.00 486.00,0.00
             486.00,0.00 495.00,0.00 495.00,0.00 Z
           M 526.00,0.00
           C 526.00,0.00 527.00,3.00 527.00,3.00
             528.75,-1.15 530.80,0.81 535.00,0.68
             535.00,0.68 541.00,0.68 541.00,0.68
             541.00,0.68 550.00,0.68 550.00,0.68
             550.00,0.68 558.00,0.68 558.00,0.68
             558.00,0.68 565.00,0.68 565.00,0.68
             565.00,0.68 573.00,0.68 573.00,0.68
             573.00,0.68 580.00,0.68 580.00,0.68
             580.00,0.68 586.00,0.68 586.00,0.68
             586.00,0.68 608.00,1.68 608.00,1.68
             608.00,1.68 620.00,0.00 620.00,0.00
             619.16,6.87 621.77,18.82 617.20,23.52
             614.05,26.74 608.13,26.66 604.00,26.09
             604.00,26.09 594.00,26.09 594.00,26.09
             594.00,26.09 583.00,25.00 583.00,25.00
             583.00,25.00 530.00,22.00 530.00,22.00
             526.16,21.99 521.54,22.16 518.21,19.91
             510.04,14.40 515.85,6.72 522.00,3.00
             522.00,3.00 520.00,0.00 520.00,0.00
             520.00,0.00 526.00,0.00 526.00,0.00 Z
           M 877.04,2.91
           C 878.98,2.76 881.59,1.84 883.28,2.91
             884.54,3.92 887.41,11.23 888.04,13.00
             888.04,13.00 896.51,42.00 896.51,42.00
             896.68,43.90 896.39,44.29 896.00,46.00
             899.99,49.24 906.30,66.96 904.40,71.98
             901.96,78.46 889.28,82.65 883.05,80.11
             876.50,77.43 875.43,66.15 874.20,60.00
             874.20,60.00 865.37,21.00 865.37,21.00
             865.37,21.00 863.00,2.91 863.00,2.91
             872.38,-0.96 871.05,2.54 877.04,2.91 Z
           M 1325.00,2.00
           C 1326.10,3.73 1327.80,6.06 1328.33,8.00
             1328.92,10.17 1328.70,17.86 1327.36,19.66
             1323.30,25.14 1313.33,22.93 1311.49,16.07
             1310.08,10.80 1312.75,6.83 1314.00,2.00
             1314.00,2.00 1325.00,2.00 1325.00,2.00 Z
           M 1363.00,2.16
           C 1363.00,2.16 1372.00,3.66 1372.00,3.66
             1372.00,3.66 1383.00,2.56 1383.00,2.56
             1383.00,2.56 1400.00,2.56 1400.00,2.56
             1400.00,2.56 1411.00,2.56 1411.00,2.56
             1411.00,2.56 1421.00,2.56 1421.00,2.56
             1421.00,2.56 1427.00,3.18 1427.00,3.18
             1427.00,3.18 1433.00,3.18 1433.00,3.18
             1433.00,3.18 1449.00,3.18 1449.00,3.18
             1449.16,10.11 1452.68,22.78 1442.96,25.78
             1441.27,26.05 1437.83,26.03 1436.00,25.78
             1436.00,25.78 1424.00,25.00 1424.00,25.00
             1424.00,25.00 1405.00,25.00 1405.00,25.00
             1405.00,25.00 1373.09,22.94 1373.09,22.94
             1367.49,22.76 1351.14,23.00 1347.23,19.97
             1339.75,14.20 1346.35,7.04 1350.00,2.16
             1350.00,2.16 1363.00,2.16 1363.00,2.16 Z
           M 1719.00,2.00
           C 1719.37,9.57 1725.42,22.16 1728.05,30.00
             1728.05,30.00 1729.52,37.00 1729.52,37.00
             1729.52,37.00 1732.94,48.00 1732.94,48.00
             1735.20,54.29 1740.07,63.31 1737.66,69.91
             1735.34,76.25 1716.64,83.31 1710.83,70.83
             1710.83,70.83 1706.40,48.00 1706.40,48.00
             1706.40,48.00 1703.58,39.00 1703.58,39.00
             1700.41,27.04 1698.00,14.32 1697.00,2.00
             1697.00,2.00 1719.00,2.00 1719.00,2.00 Z
           M 55.87,14.35
           C 60.01,15.30 60.60,22.40 61.86,26.00
             61.86,26.00 69.85,51.00 69.85,51.00
             71.54,55.52 75.00,63.17 74.50,67.96
             73.73,75.27 64.02,77.52 58.00,77.91
             55.12,78.10 52.28,78.29 50.41,75.71
             48.17,72.60 46.44,62.16 45.60,58.00
             45.60,58.00 42.81,46.00 42.81,46.00
             42.81,46.00 41.49,37.00 41.49,37.00
             41.49,37.00 38.00,22.00 38.00,22.00
             38.00,22.00 47.00,20.00 47.00,20.00
             48.28,15.95 51.30,13.30 55.87,14.35 Z
           M 184.00,77.59
           C 173.44,79.77 167.23,63.30 181.00,59.52
             194.97,58.91 194.34,75.46 184.00,77.59 Z
           M 1846.00,59.00
           C 1846.00,59.00 1850.00,75.00 1850.00,75.00
             1841.37,73.83 1839.12,73.13 1839.00,64.00
             1839.00,64.00 1843.00,64.00 1843.00,64.00
             1843.00,64.00 1843.00,59.00 1843.00,59.00
             1843.00,59.00 1846.00,59.00 1846.00,59.00 Z
           M 1023.00,72.00
           C 1023.00,72.00 1018.00,67.00 1018.00,67.00
             1018.00,67.00 1018.00,79.00 1018.00,79.00
             1013.45,79.81 1007.08,81.93 1008.00,75.00
             1008.00,75.00 1007.00,74.00 1007.00,74.00
             1007.00,74.00 1003.00,75.00 1003.00,75.00
             1003.00,75.00 1006.00,67.00 1006.00,67.00
             1006.00,67.00 1004.00,64.00 1004.00,64.00
             1004.00,64.00 1008.00,66.00 1008.00,66.00
             1008.00,66.00 1009.00,61.00 1009.00,61.00
             1017.12,61.25 1021.63,63.63 1023.00,72.00 Z
           M 289.12,76.01
           C 289.12,76.01 303.69,98.00 303.69,98.00
             305.57,100.97 312.38,109.74 305.87,111.45
             302.49,112.32 295.55,111.55 292.00,111.45
             288.73,111.36 286.33,112.31 283.17,110.69
             278.75,108.41 274.90,102.05 271.80,98.30
             266.14,91.46 256.30,83.99 264.72,74.32
             265.92,72.94 267.51,71.72 269.04,70.71
             271.70,68.95 273.00,68.45 276.00,67.57
             282.63,67.18 285.53,70.99 289.12,76.01 Z
           M 1108.12,108.41
           C 1103.30,102.69 1090.52,90.49 1091.14,83.09
             1091.71,76.25 1104.18,64.65 1112.91,70.60
             1117.69,73.86 1119.47,79.06 1122.28,83.59
             1126.85,90.94 1134.93,99.55 1137.00,108.00
             1137.00,108.00 1133.00,108.00 1133.00,108.00
             1132.79,109.22 1132.84,110.34 1131.98,111.40
             1129.69,114.25 1121.13,112.76 1118.00,112.00
             1114.30,115.77 1110.58,111.33 1108.12,108.41 Z
           M 181.45,102.00
           C 180.20,110.28 178.00,112.80 176.54,118.00
             176.54,118.00 173.26,133.00 173.26,133.00
             173.26,133.00 163.91,168.00 163.91,168.00
             162.65,174.14 159.07,188.57 152.98,191.03
             147.86,193.09 131.97,189.57 133.29,178.00
             133.98,172.00 141.35,155.41 143.88,149.00
             143.88,149.00 146.42,141.00 146.42,141.00
             146.42,141.00 154.76,120.00 154.76,120.00
             154.76,120.00 157.88,111.00 157.88,111.00
             161.42,102.85 161.99,95.50 170.29,90.98
             177.25,89.68 182.50,95.00 181.45,102.00 Z
           M 1847.74,97.00
           C 1848.53,102.69 1844.98,112.37 1843.65,118.00
             1843.65,118.00 1830.29,169.00 1830.29,169.00
             1828.45,175.66 1828.00,187.83 1820.96,191.07
             1812.94,194.75 1797.72,188.96 1798.39,179.00
             1798.60,175.89 1800.31,173.77 1801.47,171.00
             1801.47,171.00 1803.89,163.04 1803.89,163.04
             1803.89,163.04 1806.27,157.72 1806.27,157.72
             1806.27,157.72 1814.43,135.00 1814.43,135.00
             1814.43,135.00 1822.56,114.00 1822.56,114.00
             1824.69,107.58 1828.43,94.37 1834.11,90.85
             1839.91,89.20 1846.71,89.63 1847.74,97.00 Z
           M 1010.78,97.05
           C 1012.38,100.19 1010.86,108.68 1010.00,112.00
             1010.00,112.00 1006.00,110.00 1006.00,110.00
             1004.11,114.54 997.19,112.85 993.00,113.00
             993.00,113.00 992.00,101.00 992.00,101.00
             992.00,101.00 996.00,101.00 996.00,101.00
             994.58,94.55 996.67,91.72 1003.00,95.00
             1004.96,90.49 1009.28,94.11 1010.78,97.05 Z
           M 1478.00,96.97
           C 1480.65,95.38 1482.50,93.60 1485.00,96.00
             1485.00,96.00 1487.00,96.00 1487.00,96.00
             1492.33,90.34 1500.59,104.02 1500.11,106.41
             1499.83,107.75 1498.10,107.96 1498.00,108.00
             1498.00,108.00 1499.00,112.00 1499.00,112.00
             1499.00,112.00 1475.00,112.91 1475.00,112.91
             1470.45,113.19 1467.28,113.37 1468.00,108.00
             1468.00,108.00 1465.00,108.00 1465.00,108.00
             1465.00,108.00 1465.00,105.00 1465.00,105.00
             1469.72,103.06 1473.62,99.58 1478.00,96.97 Z
           M 656.00,95.90
           C 657.71,95.88 660.21,95.33 661.83,95.90
             664.99,96.51 669.44,102.28 670.73,105.17
             672.36,108.81 671.71,113.00 667.00,110.00
             665.09,114.59 658.21,113.00 654.00,113.00
             648.94,113.00 638.98,115.04 640.48,107.00
             640.48,107.00 642.00,102.00 642.00,102.00
             642.00,102.00 646.00,103.00 646.00,103.00
             649.22,97.08 649.46,96.77 656.00,95.90 Z
           M 998.00,96.00
           C 998.00,96.00 999.00,97.00 999.00,97.00
             999.00,97.00 999.00,96.00 999.00,96.00
             999.00,96.00 998.00,96.00 998.00,96.00 Z
           M 1671.00,179.00
           C 1671.00,179.00 1672.00,185.00 1672.00,185.00
             1672.00,185.00 1663.00,189.00 1663.00,189.00
             1663.26,181.57 1664.80,184.15 1668.00,179.00
             1668.00,179.00 1671.00,179.00 1671.00,179.00 Z
           M 8.00,182.00
           C 8.00,182.00 8.00,185.00 8.00,185.00
             8.00,185.00 5.00,185.00 5.00,185.00
             5.00,185.00 5.00,182.00 5.00,182.00
             5.00,182.00 8.00,182.00 8.00,182.00 Z
           M 1671.00,189.00
           C 1671.00,189.00 1671.00,192.00 1671.00,192.00
             1671.00,192.00 1667.00,192.00 1667.00,192.00
             1667.00,192.00 1667.00,189.00 1667.00,189.00
             1667.00,189.00 1671.00,189.00 1671.00,189.00 Z
           M 21.02,198.47
           C 22.60,196.72 29.27,196.92 31.14,198.47
             34.13,200.56 35.80,210.13 28.95,213.69
             27.17,214.61 24.99,214.94 23.04,214.45
             17.30,213.03 12.35,204.68 20.00,202.00
             20.21,200.81 20.17,199.64 21.02,198.47 Z
           M 1679.20,206.00
           C 1679.70,199.84 1687.91,195.08 1693.87,198.93
             1696.96,200.94 1697.44,203.66 1698.00,207.00
             1698.00,207.00 1695.00,207.00 1695.00,207.00
             1695.00,207.00 1697.00,213.00 1697.00,213.00
             1697.00,213.00 1690.00,214.00 1690.00,214.00
             1685.42,218.99 1678.79,211.11 1679.20,206.00 Z
           M 185.71,279.69
           C 193.12,283.59 193.55,290.86 186.95,295.52
             181.88,299.11 171.24,300.21 165.00,302.30
             165.00,302.30 159.00,304.45 159.00,304.45
             159.00,304.45 153.17,305.47 153.17,305.47
             153.17,305.47 145.00,308.58 145.00,308.58
             145.00,308.58 120.00,314.90 120.00,314.90
             115.22,316.11 104.55,319.98 100.00,319.72
             89.78,319.13 83.32,299.48 95.42,293.80
             99.53,291.87 105.53,292.43 110.00,291.29
             110.00,291.29 134.00,286.27 134.00,286.27
             134.00,286.27 152.00,283.92 152.00,283.92
             152.00,283.92 173.00,279.69 173.00,279.69
             176.36,279.01 182.68,278.43 185.71,279.69 Z
           M 1852.00,289.00
           C 1852.01,291.26 1852.29,295.58 1851.01,297.43
             1849.38,299.77 1838.18,302.71 1835.00,303.52
             1835.00,303.52 1812.00,309.85 1812.00,309.85
             1812.00,309.85 1797.00,313.74 1797.00,313.74
             1797.00,313.74 1770.00,320.88 1770.00,320.88
             1767.16,321.06 1762.48,321.01 1760.11,319.38
             1756.14,316.65 1748.50,301.31 1761.17,295.46
             1771.21,290.81 1783.32,291.29 1794.00,289.70
             1794.00,289.70 1805.00,287.09 1805.00,287.09
             1805.00,287.09 1828.00,283.80 1828.00,283.80
             1828.00,283.80 1841.00,281.47 1841.00,281.47
             1851.07,280.56 1851.95,281.05 1852.00,289.00 Z
           M 112.00,404.00
           C 112.60,407.33 114.26,413.73 110.69,415.90
             109.28,416.76 103.96,416.83 102.00,417.00
             102.00,417.00 101.00,414.00 101.00,414.00
             94.75,421.65 96.52,407.70 97.00,405.00
             97.00,405.00 101.00,407.00 101.00,407.00
             101.00,407.00 112.00,404.00 112.00,404.00 Z
           M 1771.00,406.00
           C 1776.22,404.90 1777.96,405.27 1777.00,411.00
             1777.00,411.00 1781.00,410.00 1781.00,410.00
             1780.92,416.21 1779.92,420.82 1773.00,422.00
             1773.00,422.00 1772.00,419.00 1772.00,419.00
             1769.77,424.20 1762.61,419.49 1766.00,416.00
             1764.92,410.95 1765.86,409.83 1770.00,407.00
             1770.00,407.00 1768.00,404.00 1768.00,404.00
             1768.00,404.00 1771.00,406.00 1771.00,406.00 Z
           M 136.02,410.23
           C 136.02,410.23 151.00,412.99 151.00,412.99
             151.00,412.99 192.00,421.00 192.00,421.00
             192.01,425.63 194.17,439.84 190.47,442.79
             186.78,445.74 175.05,441.10 170.96,439.68
             170.96,439.68 161.00,436.66 161.00,436.66
             161.00,436.66 154.00,433.50 154.00,433.50
             154.00,433.50 148.00,432.39 148.00,432.39
             148.00,432.39 139.00,428.96 139.00,428.96
             129.98,426.06 128.10,425.32 128.00,415.00
             128.00,415.00 136.02,410.23 136.02,410.23 Z
           M 99.00,413.00
           C 99.00,413.00 100.00,414.00 100.00,414.00
             100.00,414.00 100.00,413.00 100.00,413.00
             100.00,413.00 99.00,413.00 99.00,413.00 Z
           M 1826.00,438.04
           C 1826.00,438.04 1819.00,436.37 1819.00,436.37
             1819.00,436.37 1811.00,433.48 1811.00,433.48
             1806.25,432.13 1798.02,430.13 1796.22,424.87
             1795.35,422.32 1795.02,418.57 1796.75,416.31
             1799.53,412.69 1807.70,410.27 1811.00,415.00
             1817.45,413.69 1831.82,417.82 1839.00,419.34
             1843.72,420.34 1846.01,419.91 1850.00,423.00
             1850.00,423.00 1853.00,421.00 1853.00,421.00
             1853.00,421.00 1852.00,443.00 1852.00,443.00
             1841.57,444.64 1835.51,441.12 1826.00,438.04 Z
           M 1774.00,418.00
           C 1774.00,418.00 1775.00,419.00 1775.00,419.00
             1775.00,419.00 1775.00,418.00 1775.00,418.00
             1775.00,418.00 1774.00,418.00 1774.00,418.00 Z
           M 83.00,536.00
           C 83.00,536.00 85.00,536.00 85.00,536.00
             86.98,533.79 88.02,533.79 90.00,536.00
             90.00,536.00 92.00,536.00 92.00,536.00
             94.42,533.31 96.65,534.07 100.00,534.59
             105.54,535.45 113.49,535.63 118.00,538.00
             118.76,536.87 118.76,536.24 120.29,535.63
             121.63,535.10 131.92,536.04 134.00,536.28
             134.00,536.28 152.00,537.49 152.00,537.49
             156.83,537.19 165.22,537.52 170.00,538.19
             175.46,538.95 178.38,542.42 177.68,548.00
             176.51,557.30 164.99,555.92 158.00,556.00
             158.00,556.00 145.00,557.00 145.00,557.00
             145.00,557.00 79.00,560.00 79.00,560.00
             78.07,556.53 78.09,555.94 75.00,554.00
             75.00,554.00 75.00,542.00 75.00,542.00
             75.00,542.00 79.00,543.00 79.00,543.00
             76.09,534.91 80.24,532.96 83.00,536.00 Z
           M 1749.51,537.89
           C 1750.78,537.15 1752.36,538.08 1754.00,537.89
             1754.00,537.89 1758.17,537.30 1758.17,537.30
             1758.17,537.30 1763.00,537.30 1763.00,537.30
             1763.00,537.30 1798.00,538.58 1798.00,538.58
             1803.88,539.35 1806.26,537.82 1810.00,543.00
             1810.85,541.96 1811.13,541.23 1812.48,540.59
             1816.29,538.80 1823.37,540.03 1825.00,544.00
             1833.37,540.98 1831.98,541.00 1841.00,541.00
             1841.00,541.00 1841.00,544.00 1841.00,544.00
             1841.00,544.00 1847.00,544.00 1847.00,544.00
             1847.00,544.00 1844.00,548.00 1844.00,548.00
             1844.00,548.00 1848.00,549.00 1848.00,549.00
             1847.71,554.23 1847.40,557.23 1842.00,559.00
             1842.00,559.00 1841.00,556.00 1841.00,556.00
             1841.00,556.00 1841.00,560.00 1841.00,560.00
             1841.00,560.00 1831.00,559.10 1831.00,559.10
             1831.00,559.10 1816.72,559.99 1816.72,559.99
             1816.72,559.99 1805.00,560.97 1805.00,560.97
             1805.00,560.97 1793.00,560.97 1793.00,560.97
             1793.00,560.97 1780.00,561.86 1780.00,561.86
             1780.00,561.86 1774.04,561.30 1774.04,561.30
             1774.04,561.30 1768.89,562.27 1768.89,562.27
             1768.89,562.27 1765.11,562.27 1765.11,562.27
             1765.11,562.27 1759.96,562.95 1759.96,562.95
             1759.96,562.95 1745.00,561.00 1745.00,561.00
             1741.57,545.78 1743.88,552.57 1744.00,539.00
             1744.00,539.00 1748.00,540.00 1748.00,540.00
             1748.37,539.10 1748.35,538.22 1749.51,537.89 Z
           M 1805.00,542.00
           C 1805.00,542.00 1806.00,543.00 1806.00,543.00
             1806.00,543.00 1806.00,542.00 1806.00,542.00
             1806.00,542.00 1805.00,542.00 1805.00,542.00 Z
           M 1840.00,544.00
           C 1840.00,544.00 1841.00,545.00 1841.00,545.00
             1841.00,545.00 1841.00,544.00 1841.00,544.00
             1841.00,544.00 1840.00,544.00 1840.00,544.00 Z
           M 1842.00,555.00
           C 1842.00,555.00 1843.00,556.00 1843.00,556.00
             1843.00,556.00 1843.00,555.00 1843.00,555.00
             1843.00,555.00 1842.00,555.00 1842.00,555.00 Z
           M 1681.00,655.76
           C 1683.03,655.64 1685.68,654.96 1687.68,655.76
             1687.68,655.76 1694.09,659.25 1694.09,659.25
             1700.86,662.42 1710.87,665.08 1713.00,673.00
             1714.42,672.29 1715.45,671.57 1717.14,671.58
             1720.31,671.59 1734.65,679.34 1738.00,681.22
             1742.18,683.57 1743.44,683.08 1745.00,688.00
             1745.00,688.00 1749.00,688.00 1749.00,688.00
             1749.00,688.00 1751.75,691.00 1751.75,691.00
             1751.99,693.29 1752.09,695.78 1751.75,698.00
             1749.96,703.84 1744.11,711.58 1737.28,710.48
             1733.55,709.87 1725.48,704.35 1722.00,702.19
             1722.00,702.19 1709.72,693.76 1709.72,693.76
             1709.72,693.76 1700.00,688.34 1700.00,688.34
             1700.00,688.34 1687.91,680.18 1687.91,680.18
             1687.91,680.18 1669.60,667.40 1669.60,667.40
             1668.24,665.78 1668.33,664.92 1668.00,663.00
             1668.00,663.00 1665.00,663.00 1665.00,663.00
             1665.00,663.00 1667.00,657.00 1667.00,657.00
             1664.32,653.33 1664.83,651.68 1669.00,650.00
             1669.00,650.00 1667.00,646.00 1667.00,646.00
             1672.78,647.08 1679.93,649.59 1681.00,655.76 Z
           M 7.01,647.22
           C 7.01,647.22 31.00,659.56 31.00,659.56
             31.00,659.56 55.99,672.44 55.99,672.44
             55.99,672.44 62.28,676.12 62.28,676.12
             62.28,676.12 70.00,678.82 70.00,678.82
             70.00,678.82 80.83,685.00 80.83,685.00
             81.00,687.38 81.10,691.79 80.83,693.96
             79.07,701.88 72.17,707.77 64.00,705.50
             60.04,704.40 53.98,698.84 50.00,696.28
             50.00,696.28 20.72,677.42 20.72,677.42
             15.78,673.90 6.03,668.62 3.00,664.00
             3.00,664.00 0.00,666.00 0.00,666.00
             0.00,666.00 0.00,647.22 0.00,647.22
             0.00,647.22 7.01,647.22 7.01,647.22 Z
           M 27.98,773.83
           C 34.08,775.93 35.35,783.36 30.66,787.49
             27.59,790.19 24.64,789.57 21.00,789.00
             21.00,789.00 22.00,785.00 22.00,785.00
             13.57,782.05 20.18,771.15 27.98,773.83 Z
           M 1701.00,781.00
           C 1701.00,781.00 1705.00,780.00 1705.00,780.00
             1707.01,791.39 1704.21,787.05 1700.00,794.00
             1700.00,794.00 1692.00,793.00 1692.00,793.00
             1688.67,787.01 1687.21,788.94 1691.00,782.00
             1691.00,782.00 1689.00,779.00 1689.00,779.00
             1689.00,779.00 1693.00,779.00 1693.00,779.00
             1693.00,779.00 1693.00,776.00 1693.00,776.00
             1697.85,776.13 1700.09,775.71 1701.00,781.00 Z
           M 44.66,823.00
           C 44.66,823.00 61.85,879.00 61.85,879.00
             63.78,886.59 71.76,897.24 61.85,903.02
             56.67,906.12 47.80,907.00 44.31,900.90
             42.79,898.23 42.60,889.17 41.56,885.00
             41.56,885.00 39.48,878.00 39.48,878.00
             39.48,878.00 37.77,867.00 37.77,867.00
             37.77,867.00 31.51,843.00 31.51,843.00
             31.51,843.00 29.66,833.00 29.66,833.00
             28.76,828.74 26.16,812.63 27.74,809.23
             28.54,807.49 28.91,807.69 30.23,806.74
             42.17,803.88 42.17,814.94 44.66,823.00 Z
           M 1710.00,809.00
           C 1710.00,809.00 1710.00,813.00 1710.00,813.00
             1710.00,813.00 1707.00,813.00 1707.00,813.00
             1707.00,813.00 1707.00,809.00 1707.00,809.00
             1707.00,809.00 1710.00,809.00 1710.00,809.00 Z
           M 1713.09,816.93
           C 1716.66,820.38 1719.46,831.71 1721.34,837.00
             1721.34,837.00 1730.69,864.00 1730.69,864.00
             1732.73,869.84 1736.39,879.09 1737.00,885.00
             1737.00,885.00 1733.00,886.00 1733.00,886.00
             1739.76,888.97 1740.93,893.08 1742.00,900.00
             1742.00,900.00 1738.00,903.00 1738.00,903.00
             1740.40,905.42 1738.35,907.05 1735.94,908.66
             1731.11,911.91 1727.44,911.93 1722.00,911.00
             1722.00,911.00 1723.00,907.00 1723.00,907.00
             1723.00,907.00 1717.00,907.00 1717.00,907.00
             1717.00,907.00 1718.00,903.00 1718.00,903.00
             1713.44,899.30 1710.86,886.61 1712.00,881.00
             1709.07,878.49 1709.57,872.52 1708.97,868.84
             1708.97,868.84 1702.00,838.00 1702.00,838.00
             1702.00,838.00 1705.00,837.00 1705.00,837.00
             1705.00,837.00 1705.00,835.00 1705.00,835.00
             1700.09,832.86 1698.97,831.41 1700.00,826.00
             1698.01,824.03 1698.51,823.70 1699.00,821.00
             1696.55,818.59 1697.85,815.38 1698.00,812.00
             1702.10,812.96 1710.38,814.32 1713.09,816.93 Z
           M 1713.00,823.00
           C 1713.00,823.00 1714.00,824.00 1714.00,824.00
             1714.00,824.00 1714.00,823.00 1714.00,823.00
             1714.00,823.00 1713.00,823.00 1713.00,823.00 Z
           M 185.48,896.00
           C 185.95,899.20 183.19,902.51 180.55,904.02
             178.73,905.06 177.00,904.93 175.00,905.00
             175.00,905.00 172.00,897.00 172.00,897.00
             172.00,897.00 173.00,902.00 173.00,902.00
             167.33,899.95 169.54,895.51 171.00,891.00
             171.00,891.00 175.00,892.00 175.00,892.00
             178.95,886.80 184.72,890.97 185.48,896.00 Z
           M 1856.00,894.00
           C 1856.00,894.00 1853.00,898.00 1853.00,898.00
             1858.95,900.32 1855.75,906.09 1855.00,911.00
             1851.45,910.89 1849.58,911.00 1847.26,907.87
             1843.14,902.32 1844.66,894.59 1853.00,896.00
             1853.00,896.00 1856.00,894.00 1856.00,894.00 Z
           M 129.28,1009.95
           C 128.77,1005.52 134.99,992.66 136.89,988.00
             136.89,988.00 144.89,965.00 144.89,965.00
             144.89,965.00 154.58,939.00 154.58,939.00
             156.62,931.69 161.44,916.48 171.87,922.45
             179.88,927.04 172.88,940.39 171.01,947.00
             171.01,947.00 166.07,964.58 166.07,964.58
             166.07,964.58 163.58,975.72 163.58,975.72
             163.58,975.72 161.55,981.04 161.55,981.04
             161.55,981.04 159.85,990.00 159.85,990.00
             159.85,990.00 153.00,1018.00 153.00,1018.00
             153.00,1018.00 148.00,1018.00 148.00,1018.00
             148.00,1018.00 148.00,1021.00 148.00,1021.00
             136.68,1020.96 141.83,1019.18 133.00,1017.00
             131.75,1014.63 129.58,1012.62 129.28,1009.95 Z
           M 1844.00,927.26
           C 1849.12,926.92 1851.91,930.04 1851.87,935.00
             1851.87,935.00 1847.22,956.00 1847.22,956.00
             1846.05,961.66 1844.62,973.19 1840.00,977.00
             1841.94,985.08 1837.55,994.93 1835.39,1003.00
             1835.39,1003.00 1832.90,1016.00 1832.90,1016.00
             1831.59,1020.58 1829.45,1026.52 1824.00,1023.00
             1824.00,1023.00 1822.00,1027.00 1822.00,1027.00
             1818.88,1026.33 1810.07,1024.27 1808.42,1021.69
             1804.47,1015.51 1807.67,1009.08 1809.73,1003.00
             1809.73,1003.00 1812.46,994.28 1812.46,994.28
             1812.46,994.28 1816.31,986.00 1816.31,986.00
             1816.31,986.00 1826.50,957.00 1826.50,957.00
             1826.50,957.00 1835.07,934.57 1835.07,934.57
             1836.17,933.35 1836.66,933.48 1838.00,933.00
             1838.00,933.00 1837.00,929.00 1837.00,929.00
             1837.00,929.00 1844.00,927.26 1844.00,927.26 Z
           M 1834.00,991.00
           C 1834.00,991.00 1835.00,992.00 1835.00,992.00
             1835.00,992.00 1835.00,991.00 1835.00,991.00
             1835.00,991.00 1834.00,991.00 1834.00,991.00 Z
           M 1672.00,1017.00
           C 1672.00,1017.00 1672.00,1023.00 1672.00,1023.00
             1672.00,1023.00 1669.00,1023.00 1669.00,1023.00
             1669.00,1023.00 1669.00,1017.00 1669.00,1017.00
             1669.00,1017.00 1672.00,1017.00 1672.00,1017.00 Z
           M 13.29,1035.09
           C 13.34,1033.37 13.70,1032.39 14.78,1031.05
             23.04,1020.81 33.74,1040.46 23.12,1042.25
             23.12,1042.25 14.00,1041.00 14.00,1041.00
             14.00,1041.00 13.29,1035.09 13.29,1035.09 Z
           M 1693.00,1050.00
           C 1693.00,1050.00 1692.00,1046.00 1692.00,1046.00
             1692.00,1046.00 1689.00,1048.00 1689.00,1048.00
             1686.52,1039.81 1687.99,1042.91 1690.00,1035.00
             1703.76,1036.99 1700.57,1047.25 1693.00,1050.00 Z
           M 1691.00,1044.00
           C 1691.00,1044.00 1692.00,1045.00 1692.00,1045.00
             1692.00,1045.00 1692.00,1044.00 1692.00,1044.00
             1692.00,1044.00 1691.00,1044.00 1691.00,1044.00 Z
           M 176.00,1113.00
           C 178.76,1113.05 180.96,1112.92 182.85,1115.29
             185.49,1118.59 184.06,1129.86 178.00,1126.00
             178.00,1126.00 176.41,1128.58 176.41,1128.58
             176.41,1128.58 162.00,1133.13 162.00,1133.13
             162.00,1133.13 155.00,1134.49 155.00,1134.49
             155.00,1134.49 149.00,1136.63 149.00,1136.63
             149.00,1136.63 140.00,1138.49 140.00,1138.49
             140.00,1138.49 114.00,1145.79 114.00,1145.79
             114.00,1145.79 97.29,1149.66 97.29,1149.66
             97.29,1149.66 95.00,1148.00 95.00,1148.00
             87.04,1149.37 87.94,1143.86 86.99,1138.28
             86.43,1134.98 85.02,1132.04 87.87,1129.16
             91.12,1125.88 96.71,1126.24 101.04,1125.25
             101.04,1125.25 132.00,1119.88 132.00,1119.88
             136.50,1119.02 142.02,1117.40 146.00,1119.88
             151.20,1114.43 168.40,1112.88 176.00,1113.00 Z
           M 1830.00,1123.20
           C 1834.43,1122.36 1847.73,1118.89 1851.00,1119.30
             1852.95,1119.54 1855.11,1120.41 1857.00,1121.00
             1857.00,1121.00 1857.00,1137.00 1857.00,1137.00
             1857.00,1137.00 1845.00,1138.00 1845.00,1138.00
             1845.00,1138.00 1842.00,1136.00 1842.00,1136.00
             1842.00,1136.00 1844.00,1140.00 1844.00,1140.00
             1844.00,1140.00 1830.00,1143.00 1830.00,1143.00
             1830.00,1143.00 1830.00,1138.00 1830.00,1138.00
             1827.97,1138.48 1822.90,1140.03 1821.28,1141.16
             1816.81,1144.28 1820.51,1147.11 1811.00,1148.00
             1811.00,1148.00 1810.00,1145.00 1810.00,1145.00
             1808.02,1149.71 1806.94,1150.18 1802.00,1151.00
             1802.00,1151.00 1798.00,1146.00 1798.00,1146.00
             1798.00,1146.00 1797.00,1149.00 1797.00,1149.00
             1797.00,1149.00 1800.00,1149.00 1800.00,1149.00
             1800.00,1149.00 1800.00,1152.00 1800.00,1152.00
             1800.00,1152.00 1779.00,1152.84 1779.00,1152.84
             1779.00,1152.84 1772.26,1152.84 1772.26,1152.84
             1772.26,1152.84 1767.00,1148.00 1767.00,1148.00
             1767.00,1148.00 1769.00,1157.00 1769.00,1157.00
             1763.24,1154.82 1762.46,1146.44 1762.00,1141.00
             1762.00,1141.00 1766.00,1140.00 1766.00,1140.00
             1766.00,1140.00 1763.00,1136.00 1763.00,1136.00
             1768.61,1136.26 1770.45,1136.54 1773.00,1131.00
             1773.00,1131.00 1783.00,1132.00 1783.00,1132.00
             1783.00,1132.00 1789.00,1130.00 1789.00,1130.00
             1789.00,1130.00 1789.00,1133.00 1789.00,1133.00
             1789.00,1133.00 1793.00,1133.00 1793.00,1133.00
             1793.00,1133.00 1792.00,1129.00 1792.00,1129.00
             1796.23,1128.24 1802.97,1126.12 1805.00,1131.00
             1805.00,1131.00 1815.00,1129.00 1815.00,1129.00
             1810.04,1126.92 1814.99,1122.75 1820.00,1126.00
             1822.40,1123.33 1826.57,1123.84 1830.00,1123.20 Z
           M 983.00,1120.00
           C 983.00,1120.00 983.00,1123.00 983.00,1123.00
             983.00,1123.00 980.00,1123.00 980.00,1123.00
             980.00,1123.00 980.00,1120.00 980.00,1120.00
             980.00,1120.00 983.00,1120.00 983.00,1120.00 Z
           M 940.00,1124.85
           C 940.00,1124.85 960.91,1121.54 960.91,1121.54
             964.22,1121.43 965.00,1122.55 968.04,1122.99
             968.04,1122.99 980.00,1123.68 980.00,1123.68
             990.12,1124.43 993.30,1116.46 996.00,1123.00
             999.25,1121.30 1001.30,1119.90 1003.00,1124.00
             1003.00,1124.00 1009.00,1123.00 1009.00,1123.00
             1009.00,1123.00 1009.00,1126.00 1009.00,1126.00
             1009.00,1126.00 1001.00,1131.00 1001.00,1131.00
             1001.00,1131.00 1009.00,1129.00 1009.00,1129.00
             1009.00,1129.00 1009.00,1132.00 1009.00,1132.00
             1004.32,1132.72 1002.03,1134.62 998.00,1132.00
             998.00,1132.00 996.41,1134.59 996.41,1134.59
             996.41,1134.59 983.17,1138.44 983.17,1138.44
             983.17,1138.44 977.00,1137.00 977.00,1137.00
             977.00,1137.00 977.00,1141.00 977.00,1141.00
             977.00,1141.00 959.00,1145.00 959.00,1145.00
             959.00,1145.00 959.00,1141.00 959.00,1141.00
             959.00,1141.00 953.00,1143.00 953.00,1143.00
             953.00,1143.00 957.00,1143.00 957.00,1143.00
             955.45,1146.98 953.45,1147.25 950.00,1145.00
             947.95,1150.28 937.19,1151.75 932.00,1152.00
             932.00,1152.00 931.00,1147.00 931.00,1147.00
             931.00,1147.00 931.00,1153.00 931.00,1153.00
             928.97,1152.39 928.03,1152.31 926.42,1150.69
             924.49,1148.75 921.06,1140.42 923.04,1138.00
             923.71,1137.18 924.59,1137.17 925.00,1137.00
             925.00,1137.00 925.00,1134.00 925.00,1134.00
             925.00,1134.00 922.00,1134.00 922.00,1134.00
             924.52,1125.84 932.75,1125.71 940.00,1124.85 Z
           M 542.25,1134.72
           C 544.19,1131.01 544.96,1126.40 548.38,1123.58
             551.36,1121.12 566.26,1119.91 569.13,1122.29
             571.28,1124.07 570.97,1127.49 571.00,1130.00
             571.00,1130.00 567.00,1128.00 567.00,1128.00
             567.00,1128.00 565.00,1131.00 565.00,1131.00
             569.11,1132.75 567.23,1134.84 564.00,1136.00
             564.00,1136.00 563.00,1133.00 563.00,1133.00
             561.42,1141.80 561.78,1142.13 557.05,1150.08
             553.82,1155.51 549.78,1159.61 548.00,1166.00
             548.00,1166.00 537.00,1175.00 537.00,1175.00
             537.00,1175.00 538.00,1171.00 538.00,1171.00
             532.95,1170.58 532.10,1170.00 531.00,1165.00
             531.00,1165.00 527.00,1166.00 527.00,1166.00
             529.00,1157.11 537.87,1143.11 542.25,1134.72 Z
           M 1016.00,1121.00
           C 1016.00,1121.00 1016.00,1124.00 1016.00,1124.00
             1016.00,1124.00 1012.00,1124.00 1012.00,1124.00
             1012.00,1124.00 1012.00,1121.00 1012.00,1121.00
             1012.00,1121.00 1016.00,1121.00 1016.00,1121.00 Z
           M 696.00,1128.00
           C 696.00,1128.00 696.00,1133.00 696.00,1133.00
             696.00,1133.00 692.00,1131.00 692.00,1131.00
             688.65,1134.09 687.41,1133.89 683.00,1134.00
             683.00,1134.00 686.00,1131.00 686.00,1131.00
             686.00,1131.00 685.00,1123.00 685.00,1123.00
             685.00,1123.00 696.00,1128.00 696.00,1128.00 Z
           M 1402.00,1125.00
           C 1402.00,1125.00 1408.21,1123.00 1408.21,1123.00
             1408.21,1123.00 1408.21,1127.91 1408.21,1127.91
             1408.21,1127.91 1401.23,1141.28 1401.23,1141.28
             1401.23,1141.28 1397.00,1143.00 1397.00,1143.00
             1397.00,1143.00 1397.00,1139.00 1397.00,1139.00
             1397.00,1139.00 1400.00,1136.00 1400.00,1136.00
             1400.00,1136.00 1393.00,1138.00 1393.00,1138.00
             1393.00,1138.00 1396.00,1142.00 1396.00,1142.00
             1396.00,1142.00 1396.00,1151.00 1396.00,1151.00
             1396.00,1151.00 1389.00,1151.00 1389.00,1151.00
             1389.00,1151.00 1388.00,1154.00 1388.00,1154.00
             1388.00,1154.00 1393.00,1153.00 1393.00,1153.00
             1391.60,1158.71 1383.73,1172.07 1378.00,1174.00
             1378.00,1174.00 1377.00,1170.00 1377.00,1170.00
             1373.92,1173.43 1370.45,1172.15 1369.00,1168.00
             1369.00,1168.00 1365.00,1168.00 1365.00,1168.00
             1366.32,1161.12 1367.44,1160.65 1374.00,1160.00
             1370.25,1156.93 1370.92,1155.52 1372.00,1151.00
             1372.00,1151.00 1376.00,1152.00 1376.00,1152.00
             1373.99,1143.37 1377.16,1143.41 1379.00,1136.00
             1379.00,1136.00 1383.00,1138.00 1383.00,1138.00
             1383.00,1138.00 1385.00,1135.00 1385.00,1135.00
             1380.45,1133.04 1382.99,1126.21 1389.00,1127.00
             1389.00,1127.00 1390.00,1123.00 1390.00,1123.00
             1394.69,1123.00 1398.06,1122.19 1402.00,1125.00 Z
           M 714.28,1130.13
           C 718.22,1121.63 727.43,1127.24 735.17,1127.13
             739.08,1127.08 744.26,1126.90 747.00,1130.00
             753.00,1128.57 755.17,1130.50 761.00,1131.00
             761.00,1131.00 770.00,1131.00 770.00,1131.00
             770.00,1131.00 797.00,1133.95 797.00,1133.95
             800.65,1134.36 810.64,1134.68 812.95,1137.29
             816.95,1142.29 816.42,1151.51 812.95,1156.74
             812.95,1156.74 809.00,1162.00 809.00,1162.00
             809.00,1162.00 784.00,1156.73 784.00,1156.73
             780.41,1155.81 776.46,1155.86 774.00,1153.00
             774.00,1153.00 770.00,1154.00 770.00,1154.00
             768.34,1150.68 767.75,1149.63 764.00,1149.00
             764.00,1149.00 766.00,1153.00 766.00,1153.00
             766.00,1153.00 739.00,1146.26 739.00,1146.26
             734.74,1145.55 721.86,1144.65 718.60,1141.98
             716.72,1140.45 717.03,1137.18 717.00,1135.00
             717.00,1135.00 713.00,1135.00 713.00,1135.00
             713.31,1133.32 713.56,1131.70 714.28,1130.13 Z
           M 1403.00,1131.00
           C 1403.00,1131.00 1405.00,1126.00 1405.00,1126.00
             1405.00,1126.00 1403.00,1131.00 1403.00,1131.00 Z
           M 1525.00,1127.00
           C 1525.00,1127.00 1532.00,1126.00 1532.00,1126.00
             1532.00,1126.00 1530.00,1136.00 1530.00,1136.00
             1523.26,1135.53 1524.59,1133.76 1519.00,1131.00
             1519.00,1131.00 1521.00,1125.00 1521.00,1125.00
             1521.00,1125.00 1525.00,1127.00 1525.00,1127.00 Z
           M 1810.00,1126.00
           C 1810.00,1126.00 1810.00,1129.00 1810.00,1129.00
             1810.00,1129.00 1807.00,1129.00 1807.00,1129.00
             1807.00,1129.00 1807.00,1126.00 1807.00,1126.00
             1807.00,1126.00 1810.00,1126.00 1810.00,1126.00 Z
           M 548.00,1130.00
           C 548.00,1130.00 549.00,1131.00 549.00,1131.00
             549.00,1131.00 549.00,1130.00 549.00,1130.00
             549.00,1130.00 548.00,1130.00 548.00,1130.00 Z
           M 564.00,1131.00
           C 564.00,1131.00 565.00,1132.00 565.00,1132.00
             565.00,1132.00 565.00,1131.00 565.00,1131.00
             565.00,1131.00 564.00,1131.00 564.00,1131.00 Z
           M 1567.00,1132.00
           C 1574.41,1130.54 1577.39,1132.66 1584.00,1133.87
             1584.00,1133.87 1592.00,1133.87 1592.00,1133.87
             1592.00,1133.87 1637.00,1139.00 1637.00,1139.00
             1637.00,1139.00 1636.00,1143.00 1636.00,1143.00
             1636.00,1143.00 1639.00,1143.00 1639.00,1143.00
             1639.00,1143.00 1639.00,1140.00 1639.00,1140.00
             1639.00,1140.00 1650.00,1141.00 1650.00,1141.00
             1650.00,1141.00 1650.00,1148.00 1650.00,1148.00
             1650.00,1148.00 1654.00,1145.00 1654.00,1145.00
             1654.00,1145.00 1651.00,1149.00 1651.00,1149.00
             1651.00,1149.00 1655.00,1149.00 1655.00,1149.00
             1655.00,1149.00 1654.00,1158.00 1654.00,1158.00
             1654.00,1158.00 1651.00,1158.00 1651.00,1158.00
             1651.00,1158.00 1650.00,1154.00 1650.00,1154.00
             1650.29,1157.49 1650.03,1158.01 1653.00,1160.00
             1651.55,1164.65 1649.62,1165.86 1645.00,1167.00
             1645.00,1167.00 1644.00,1162.00 1644.00,1162.00
             1644.00,1162.00 1644.00,1166.00 1644.00,1166.00
             1644.00,1166.00 1637.00,1161.00 1637.00,1161.00
             1636.89,1161.27 1636.79,1162.71 1635.41,1163.32
             1632.09,1164.77 1619.27,1160.65 1617.00,1158.00
             1613.47,1158.97 1611.59,1159.81 1610.00,1156.00
             1610.00,1156.00 1604.00,1157.00 1604.00,1157.00
             1604.00,1157.00 1604.00,1153.00 1604.00,1153.00
             1595.07,1156.23 1594.26,1153.63 1586.00,1152.19
             1580.26,1151.19 1574.38,1151.27 1569.00,1149.00
             1569.00,1149.00 1570.00,1144.00 1570.00,1144.00
             1570.00,1144.00 1566.00,1144.00 1566.00,1144.00
             1566.00,1144.00 1567.00,1148.00 1567.00,1148.00
             1563.66,1147.61 1562.96,1147.82 1561.00,1145.00
             1561.00,1145.00 1556.00,1146.00 1556.00,1146.00
             1556.63,1140.74 1557.50,1139.05 1552.00,1137.00
             1552.00,1137.00 1553.00,1132.00 1553.00,1132.00
             1553.00,1132.00 1557.00,1134.00 1557.00,1134.00
             1557.00,1134.00 1558.00,1130.00 1558.00,1130.00
             1561.47,1130.00 1564.55,1129.26 1567.00,1132.00 Z
           M 1386.00,1132.00
           C 1386.00,1132.00 1385.00,1135.00 1385.00,1135.00
             1385.00,1135.00 1388.00,1132.00 1388.00,1132.00
             1388.00,1132.00 1386.00,1132.00 1386.00,1132.00 Z
           M 925.00,1133.00
           C 925.00,1133.00 926.00,1134.00 926.00,1134.00
             926.00,1134.00 926.00,1133.00 926.00,1133.00
             926.00,1133.00 925.00,1133.00 925.00,1133.00 Z
           M 1788.00,1133.00
           C 1788.00,1133.00 1789.00,1134.00 1789.00,1134.00
             1789.00,1134.00 1789.00,1133.00 1789.00,1133.00
             1789.00,1133.00 1788.00,1133.00 1788.00,1133.00 Z
           M 339.00,1139.00
           C 344.81,1138.23 345.29,1143.27 346.81,1148.00
             346.81,1148.00 353.58,1171.00 353.58,1171.00
             354.93,1175.67 356.74,1178.17 356.00,1183.00
             360.68,1186.83 362.35,1198.24 363.68,1204.00
             363.68,1204.00 368.05,1217.00 368.05,1217.00
             369.06,1220.11 369.63,1224.84 367.11,1227.43
             364.78,1229.81 355.44,1229.00 352.00,1229.00
             352.00,1229.00 352.00,1217.00 352.00,1217.00
             347.62,1213.95 343.55,1204.12 341.54,1199.00
             341.54,1199.00 335.77,1184.00 335.77,1184.00
             331.58,1173.93 324.61,1162.12 324.00,1151.00
             319.96,1149.54 320.24,1148.00 320.00,1144.00
             320.00,1144.00 323.00,1143.00 323.00,1143.00
             323.00,1143.00 320.00,1140.00 320.00,1140.00
             320.00,1140.00 324.00,1141.00 324.00,1141.00
             324.00,1141.00 323.00,1136.00 323.00,1136.00
             329.81,1133.73 336.61,1129.67 339.00,1139.00 Z
           M 1163.00,1135.67
           C 1168.77,1132.94 1168.94,1132.99 1175.00,1134.97
             1175.00,1134.97 1179.58,1136.52 1179.58,1136.52
             1182.34,1138.11 1182.87,1142.18 1183.72,1145.00
             1186.14,1153.07 1188.69,1159.61 1190.00,1168.00
             1190.00,1168.00 1187.00,1169.00 1187.00,1169.00
             1188.28,1169.22 1189.15,1169.12 1190.31,1169.99
             1193.30,1172.26 1196.31,1184.11 1197.00,1188.00
             1193.00,1190.68 1193.34,1194.38 1196.00,1198.00
             1195.53,1194.46 1195.61,1194.20 1199.00,1193.00
             1199.00,1193.00 1201.00,1201.00 1201.00,1201.00
             1201.00,1201.00 1197.00,1201.00 1197.00,1201.00
             1197.00,1201.00 1201.00,1206.00 1201.00,1206.00
             1201.00,1206.00 1200.00,1211.00 1200.00,1211.00
             1203.65,1212.02 1208.64,1215.58 1203.00,1218.00
             1203.00,1218.00 1204.00,1226.00 1204.00,1226.00
             1199.07,1225.89 1196.08,1226.23 1193.00,1222.00
             1193.00,1222.00 1189.00,1223.00 1189.00,1223.00
             1189.00,1223.00 1192.00,1219.00 1192.00,1219.00
             1184.28,1216.92 1184.59,1211.32 1181.57,1205.00
             1179.72,1201.13 1177.49,1200.10 1180.00,1196.00
             1176.44,1194.63 1173.26,1190.04 1178.00,1188.00
             1178.00,1188.00 1173.18,1182.19 1173.18,1182.19
             1173.18,1182.19 1170.29,1177.44 1170.29,1177.44
             1170.29,1177.44 1167.78,1171.58 1167.78,1171.58
             1167.78,1171.58 1170.00,1170.00 1170.00,1170.00
             1170.00,1170.00 1169.00,1166.00 1169.00,1166.00
             1169.00,1166.00 1165.00,1168.00 1165.00,1168.00
             1163.93,1157.66 1154.95,1151.35 1159.00,1145.00
             1156.09,1140.18 1158.48,1137.81 1163.00,1135.67 Z
           M 1577.00,1135.00
           C 1577.00,1135.00 1578.00,1136.00 1578.00,1136.00
             1578.00,1136.00 1578.00,1135.00 1578.00,1135.00
             1578.00,1135.00 1577.00,1135.00 1577.00,1135.00 Z
           M 331.00,1137.00
           C 331.00,1137.00 332.00,1138.00 332.00,1138.00
             332.00,1138.00 332.00,1137.00 332.00,1137.00
             332.00,1137.00 331.00,1137.00 331.00,1137.00 Z
           M 1524.00,1136.00
           C 1524.00,1136.00 1524.00,1139.00 1524.00,1139.00
             1524.00,1139.00 1521.00,1139.00 1521.00,1139.00
             1521.00,1139.00 1521.00,1136.00 1521.00,1136.00
             1521.00,1136.00 1524.00,1136.00 1524.00,1136.00 Z
           M 1530.00,1137.00
           C 1530.00,1137.00 1530.00,1140.00 1530.00,1140.00
             1530.00,1140.00 1527.00,1140.00 1527.00,1140.00
             1527.00,1140.00 1527.00,1137.00 1527.00,1137.00
             1527.00,1137.00 1530.00,1137.00 1530.00,1137.00 Z
           M 1164.00,1139.00
           C 1164.00,1139.00 1165.00,1140.00 1165.00,1140.00
             1165.00,1140.00 1165.00,1139.00 1165.00,1139.00
             1165.00,1139.00 1164.00,1139.00 1164.00,1139.00 Z
           M 1380.00,1142.00
           C 1380.00,1142.00 1380.00,1147.00 1380.00,1147.00
             1380.00,1147.00 1382.00,1142.00 1382.00,1142.00
             1382.00,1142.00 1380.00,1142.00 1380.00,1142.00 Z
           M 541.00,1143.00
           C 541.00,1143.00 542.00,1144.00 542.00,1144.00
             542.00,1144.00 542.00,1143.00 542.00,1143.00
             542.00,1143.00 541.00,1143.00 541.00,1143.00 Z
           M 952.00,1143.00
           C 952.00,1143.00 953.00,1144.00 953.00,1144.00
             953.00,1144.00 953.00,1143.00 953.00,1143.00
             953.00,1143.00 952.00,1143.00 952.00,1143.00 Z
           M 1823.00,1143.00
           C 1823.00,1143.00 1823.00,1146.00 1823.00,1146.00
             1823.00,1146.00 1820.00,1146.00 1820.00,1146.00
             1820.00,1146.00 1820.00,1143.00 1820.00,1143.00
             1820.00,1143.00 1823.00,1143.00 1823.00,1143.00 Z
           M 945.00,1145.00
           C 945.00,1145.00 946.00,1146.00 946.00,1146.00
             946.00,1146.00 946.00,1145.00 946.00,1145.00
             946.00,1145.00 945.00,1145.00 945.00,1145.00 Z
           M 1582.00,1148.00
           C 1582.00,1148.00 1587.00,1147.00 1587.00,1147.00
             1587.00,1147.00 1582.00,1148.00 1582.00,1148.00 Z
           M 1590.00,1147.00
           C 1590.00,1147.00 1591.00,1148.00 1591.00,1148.00
             1591.00,1148.00 1591.00,1147.00 1591.00,1147.00
             1591.00,1147.00 1590.00,1147.00 1590.00,1147.00 Z
           M 324.00,1150.00
           C 324.00,1150.00 325.00,1151.00 325.00,1151.00
             325.00,1151.00 325.00,1150.00 325.00,1150.00
             325.00,1150.00 324.00,1150.00 324.00,1150.00 Z
           M 810.00,1151.00
           C 810.00,1151.00 811.00,1152.00 811.00,1152.00
             811.00,1152.00 811.00,1151.00 811.00,1151.00
             811.00,1151.00 810.00,1151.00 810.00,1151.00 Z
           M 1387.00,1155.00
           C 1387.00,1155.00 1388.00,1156.00 1388.00,1156.00
             1388.00,1156.00 1388.00,1155.00 1388.00,1155.00
             1388.00,1155.00 1387.00,1155.00 1387.00,1155.00 Z
           M 1620.00,1156.00
           C 1620.00,1156.00 1621.00,1157.00 1621.00,1157.00
             1621.00,1157.00 1621.00,1156.00 1621.00,1156.00
             1621.00,1156.00 1620.00,1156.00 1620.00,1156.00 Z
           M 1167.00,1161.00
           C 1167.00,1161.00 1168.00,1162.00 1168.00,1162.00
             1168.00,1162.00 1168.00,1161.00 1168.00,1161.00
             1168.00,1161.00 1167.00,1161.00 1167.00,1161.00 Z
           M 331.00,1166.00
           C 331.00,1166.00 332.00,1167.00 332.00,1167.00
             332.00,1167.00 332.00,1166.00 332.00,1166.00
             332.00,1166.00 331.00,1166.00 331.00,1166.00 Z
           M 1378.00,1169.00
           C 1378.00,1169.00 1379.00,1170.00 1379.00,1170.00
             1379.00,1170.00 1379.00,1169.00 1379.00,1169.00
             1379.00,1169.00 1378.00,1169.00 1378.00,1169.00 Z
           M 1173.00,1175.00
           C 1173.00,1175.00 1171.00,1171.00 1171.00,1171.00
             1170.70,1173.58 1170.89,1173.56 1173.00,1175.00 Z
           M 531.00,1171.00
           C 531.00,1171.00 531.00,1174.00 531.00,1174.00
             531.00,1174.00 528.00,1174.00 528.00,1174.00
             528.00,1174.00 528.00,1171.00 528.00,1171.00
             528.00,1171.00 531.00,1171.00 531.00,1171.00 Z
           M 1376.00,1175.00
           C 1376.00,1175.00 1376.00,1178.00 1376.00,1178.00
             1376.00,1178.00 1373.00,1178.00 1373.00,1178.00
             1373.00,1178.00 1373.00,1175.00 1373.00,1175.00
             1373.00,1175.00 1376.00,1175.00 1376.00,1175.00 Z
           M 521.00,1188.00
           C 521.00,1188.00 525.00,1202.00 525.00,1202.00
             525.00,1202.00 522.00,1202.00 522.00,1202.00
             522.00,1202.00 521.00,1198.00 521.00,1198.00
             521.00,1198.00 516.00,1204.00 516.00,1204.00
             510.53,1202.12 513.14,1199.28 515.00,1195.00
             512.29,1193.87 512.55,1193.87 512.00,1191.00
             512.00,1191.00 521.00,1188.00 521.00,1188.00 Z
           M 1178.00,1189.00
           C 1178.00,1189.00 1179.00,1190.00 1179.00,1190.00
             1179.00,1190.00 1179.00,1189.00 1179.00,1189.00
             1179.00,1189.00 1178.00,1189.00 1178.00,1189.00 Z
           M 1360.00,1190.00
           C 1360.00,1190.00 1360.00,1193.00 1360.00,1193.00
             1360.00,1193.00 1357.00,1193.00 1357.00,1193.00
             1357.00,1193.00 1357.00,1190.00 1357.00,1190.00
             1357.00,1190.00 1360.00,1190.00 1360.00,1190.00 Z
           M 1180.00,1193.00
           C 1180.00,1193.00 1181.00,1194.00 1181.00,1194.00
             1181.00,1194.00 1181.00,1193.00 1181.00,1193.00
             1181.00,1193.00 1180.00,1193.00 1180.00,1193.00 Z
           M 1353.00,1195.00
           C 1359.14,1193.74 1360.08,1196.51 1361.00,1202.00
             1361.00,1202.00 1354.00,1203.00 1354.00,1203.00
             1354.00,1203.00 1351.00,1206.00 1351.00,1206.00
             1351.00,1206.00 1353.00,1203.00 1353.00,1203.00
             1353.00,1203.00 1353.00,1196.00 1353.00,1196.00
             1353.00,1196.00 1351.00,1200.00 1351.00,1200.00
             1351.00,1200.00 1348.00,1200.00 1348.00,1200.00
             1348.21,1194.03 1350.85,1190.01 1353.00,1195.00 Z
           M 1188.00,1211.00
           C 1188.00,1211.00 1189.00,1212.00 1189.00,1212.00
             1189.00,1212.00 1189.00,1211.00 1189.00,1211.00
             1189.00,1211.00 1188.00,1211.00 1188.00,1211.00 Z
           M 1191.00,1216.00
           C 1191.00,1216.00 1190.00,1212.00 1190.00,1212.00
             1190.00,1212.00 1191.00,1216.00 1191.00,1216.00 Z
           M 1208.00,1222.00
           C 1208.00,1222.00 1208.00,1225.00 1208.00,1225.00
             1208.00,1225.00 1205.00,1225.00 1205.00,1225.00
             1205.00,1225.00 1205.00,1222.00 1205.00,1222.00
             1205.00,1222.00 1208.00,1222.00 1208.00,1222.00 Z" />
</svg>
