<?xml version="1.0" encoding="UTF-8" standalone="no"?>
<!DOCTYPE svg PUBLIC "-//W3C//DTD SVG 20010904//EN"
              "http://www.w3.org/TR/2001/REC-SVG-20010904/DTD/svg10.dtd">

<svg xmlns="http://www.w3.org/2000/svg"
     width="100%" height="100%"
     viewBox="0 0 2064 1434">
  <path id="Selection"
        fill="#f09e0c" stroke="#f09e0c" stroke-width="1"
        d="M 1846.00,13.82
           C 1846.00,13.82 1854.00,13.32 1854.00,13.32
             1854.00,13.32 1878.00,14.00 1878.00,14.00
             1876.63,22.16 1870.51,25.77 1864.00,30.17
             1861.49,31.86 1855.88,34.70 1856.46,38.29
             1856.93,41.24 1861.18,48.30 1865.02,47.87
             1868.11,47.52 1876.23,41.16 1879.00,39.12
             1882.27,36.71 1889.06,33.70 1893.00,32.63
             1902.39,30.09 1908.92,39.17 1908.62,46.00
             1908.22,54.78 1895.38,60.64 1889.00,65.14
             1884.83,68.08 1868.49,79.88 1865.00,81.35
             1862.54,82.00 1858.53,82.26 1856.00,81.35
             1851.33,80.30 1847.62,75.49 1844.90,71.72
             1844.90,71.72 1831.25,50.00 1831.25,50.00
             1827.58,44.49 1821.86,36.15 1823.79,29.00
             1825.49,22.69 1832.32,19.81 1837.00,16.00
             1837.00,16.00 1831.00,16.00 1831.00,16.00
             1831.00,16.00 1831.00,13.00 1831.00,13.00
             1831.00,13.00 1846.00,13.82 1846.00,13.82 Z
           M 1714.00,14.00
           C 1713.58,17.17 1713.16,22.36 1711.40,24.96
             1706.63,32.02 1695.37,33.15 1691.02,24.96
             1689.63,22.33 1690.00,17.06 1690.00,14.00
             1690.00,14.00 1714.00,14.00 1714.00,14.00 Z
           M 1574.00,15.00
           C 1571.90,20.39 1563.05,20.67 1561.00,15.00
             1561.00,15.00 1574.00,15.00 1574.00,15.00 Z
           M 1440.00,16.00
           C 1440.00,16.00 1440.00,19.00 1440.00,19.00
             1440.00,19.00 1437.00,19.00 1437.00,19.00
             1437.00,19.00 1437.00,16.00 1437.00,16.00
             1437.00,16.00 1440.00,16.00 1440.00,16.00 Z
           M 1476.00,16.00
           C 1476.00,16.00 1473.00,19.00 1473.00,19.00
             1476.50,24.32 1479.68,28.27 1477.11,35.00
             1472.60,46.82 1456.86,46.18 1453.61,33.99
             1451.10,24.55 1457.86,23.30 1458.00,16.00
             1458.00,16.00 1476.00,16.00 1476.00,16.00 Z
           M 1065.00,21.00
           C 1065.00,21.00 1065.00,24.00 1065.00,24.00
             1065.00,24.00 1061.00,24.00 1061.00,24.00
             1061.00,24.00 1061.00,21.00 1061.00,21.00
             1061.00,21.00 1065.00,21.00 1065.00,21.00 Z
           M 1082.00,21.00
           C 1082.00,21.00 1082.00,24.00 1082.00,24.00
             1082.00,24.00 1076.00,24.00 1076.00,24.00
             1076.00,24.00 1076.00,21.00 1076.00,21.00
             1076.00,21.00 1082.00,21.00 1082.00,21.00 Z
           M 1100.00,21.66
           C 1100.00,21.66 1116.00,21.00 1116.00,21.00
             1114.37,26.52 1109.22,31.72 1103.01,30.76
             1099.69,30.25 1098.20,28.40 1095.89,26.21
             1093.59,24.04 1093.11,23.98 1092.00,21.00
             1092.00,21.00 1100.00,21.66 1100.00,21.66 Z
           M 816.00,26.00
           C 816.00,26.00 816.00,29.00 816.00,29.00
             816.00,29.00 807.00,29.00 807.00,29.00
             809.01,34.37 809.76,38.84 806.12,43.89
             801.94,49.72 792.43,50.77 787.88,44.79
             783.68,39.29 785.72,33.17 786.00,27.00
             786.00,27.00 816.00,26.00 816.00,26.00 Z
           M 825.00,26.00
           C 825.00,26.00 825.00,29.00 825.00,29.00
             825.00,29.00 822.00,29.00 822.00,29.00
             822.00,29.00 822.00,26.00 822.00,26.00
             822.00,26.00 825.00,26.00 825.00,26.00 Z
           M 1592.00,52.31
           C 1583.90,54.31 1576.36,45.67 1577.11,38.00
             1577.71,31.87 1582.57,28.30 1588.01,26.53
             1604.78,23.92 1608.54,48.24 1592.00,52.31 Z
           M 1080.79,30.03
           C 1088.74,35.99 1085.82,48.85 1077.00,52.26
             1068.07,55.71 1059.15,48.19 1060.26,39.00
             1060.89,33.82 1064.57,30.74 1069.00,28.70
             1073.01,27.79 1077.28,27.40 1080.79,30.03 Z
           M 615.00,29.00
           C 613.82,32.29 612.69,32.45 611.29,35.13
             609.80,37.99 610.11,40.73 606.86,43.70
             601.93,48.19 593.90,47.73 590.28,41.90
             589.34,40.39 586.49,32.05 586.00,30.00
             586.00,30.00 615.00,29.00 615.00,29.00 Z
           M 1209.00,53.95
           C 1197.64,53.17 1193.83,35.58 1207.04,29.65
             1226.67,25.58 1228.96,55.31 1209.00,53.95 Z
           M 338.88,54.00
           C 338.88,54.00 349.37,71.00 349.37,71.00
             349.37,71.00 360.58,89.00 360.58,89.00
             362.42,92.17 367.90,102.59 371.18,103.51
             375.05,104.59 386.37,95.27 389.72,92.74
             389.72,92.74 419.04,72.79 419.04,72.79
             424.95,68.54 432.16,63.39 440.00,65.31
             446.57,66.93 451.05,76.57 454.31,82.00
             454.31,82.00 473.56,113.17 473.56,113.17
             475.04,115.61 481.33,126.06 483.17,127.13
             485.07,128.23 486.58,127.14 488.17,126.09
             488.17,126.09 500.00,117.91 500.00,117.91
             500.00,117.91 534.00,94.96 534.00,94.96
             538.40,92.03 544.33,86.76 550.00,87.43
             554.67,87.99 558.59,92.45 561.24,96.00
             561.24,96.00 568.33,107.91 568.33,107.91
             568.33,107.91 578.92,125.00 578.92,125.00
             580.69,127.91 586.45,135.00 583.96,138.40
             582.16,140.86 568.40,140.06 565.00,140.00
             557.12,139.85 554.58,135.52 550.90,129.00
             549.41,126.36 547.23,120.59 543.71,120.37
             540.76,120.20 536.27,124.70 534.01,126.49
             528.74,130.67 520.09,136.71 514.00,139.32
             508.60,141.63 502.76,141.00 497.00,141.00
             497.00,141.00 469.00,141.00 469.00,141.00
             466.53,141.00 463.30,141.20 461.10,139.98
             458.20,138.37 456.08,133.83 454.32,131.00
             454.32,131.00 440.67,109.00 440.67,109.00
             438.71,106.04 434.48,97.66 430.91,97.39
             427.68,97.14 420.07,103.88 417.00,105.93
             417.00,105.93 382.00,129.71 382.00,129.71
             376.61,133.44 370.14,138.60 363.04,136.49
             357.52,134.85 351.01,122.99 347.91,118.00
             347.91,118.00 324.19,79.00 324.19,79.00
             324.19,79.00 313.14,60.96 313.14,60.96
             310.21,53.68 311.99,46.49 319.00,42.74
             330.09,40.06 333.37,45.87 338.88,54.00 Z
           M 767.00,69.77
           C 751.78,72.44 745.17,50.28 763.00,45.56
             780.69,44.18 780.62,67.39 767.00,69.77 Z
           M 1047.70,51.60
           C 1055.34,57.32 1054.12,70.74 1045.00,74.26
             1034.75,78.22 1025.28,66.70 1028.83,57.18
             1030.13,53.72 1032.86,52.16 1036.01,50.70
             1039.60,49.89 1044.54,49.23 1047.70,51.60 Z
           M 815.00,80.94
           C 805.14,80.15 798.87,61.90 814.00,56.56
             832.87,53.33 834.61,82.53 815.00,80.94 Z
           M 1463.96,57.60
           C 1472.42,63.30 1471.28,83.42 1456.00,81.66
             1441.87,80.03 1440.55,63.04 1452.09,56.72
             1455.82,55.81 1460.59,55.33 1463.96,57.60 Z
           M 1241.49,67.06
           C 1247.37,74.77 1242.92,86.26 1233.00,86.95
             1216.90,88.06 1213.49,68.24 1228.00,62.57
             1233.24,61.74 1238.06,62.56 1241.49,67.06 Z
           M 735.00,90.85
           C 725.89,91.79 723.01,85.96 723.00,78.00
             723.00,75.98 722.89,73.34 723.82,71.51
             725.76,67.71 730.12,66.22 734.00,65.55
             749.54,65.96 751.13,89.20 735.00,90.85 Z
           M 1600.82,67.39
           C 1610.16,74.70 1605.43,86.99 1597.00,89.49
             1580.24,94.46 1574.42,70.80 1589.00,65.56
             1593.36,64.80 1597.11,64.49 1600.82,67.39 Z
           M 118.20,105.00
           C 117.21,110.19 116.37,113.76 122.02,116.57
             129.97,120.54 133.41,115.25 134.91,108.00
             134.91,108.00 137.33,98.00 137.33,98.00
             137.33,98.00 138.80,90.00 138.80,90.00
             140.78,83.80 146.54,80.23 153.00,81.15
             158.78,81.97 161.85,87.57 161.92,93.00
             162.00,99.01 159.19,108.10 157.75,114.00
             157.75,114.00 153.56,135.00 153.56,135.00
             152.33,139.88 150.16,143.94 145.00,145.43
             140.04,146.87 133.93,145.31 129.00,144.42
             129.00,144.42 101.00,139.07 101.00,139.07
             96.80,137.90 92.54,135.18 90.85,130.96
             89.42,127.39 91.23,118.93 92.00,115.00
             92.00,115.00 94.63,104.00 94.63,104.00
             96.02,97.09 97.68,81.04 102.34,76.22
             104.75,73.73 106.79,73.25 110.00,72.51
             128.88,71.69 120.11,94.90 118.20,105.00 Z
           M 1062.96,107.77
           C 1052.14,109.56 1044.72,97.49 1050.17,88.29
             1052.18,84.90 1055.41,83.50 1059.00,82.50
             1076.67,80.72 1076.87,105.48 1062.96,107.77 Z
           M 253.96,113.77
           C 237.01,116.96 232.89,93.94 250.00,90.48
             266.31,89.73 265.46,111.61 253.96,113.77 Z
           M 845.87,92.43
           C 851.28,96.95 852.86,109.43 843.00,113.52
             827.11,120.10 818.38,99.01 833.09,90.73
             837.36,89.67 842.27,89.42 845.87,92.43 Z
           M 1473.00,118.27
           C 1464.13,120.71 1456.65,112.30 1457.23,105.00
             1457.73,98.71 1462.39,94.53 1468.00,92.56
             1485.24,89.97 1488.53,114.01 1473.00,118.27 Z
           M 1251.00,120.66
           C 1243.20,121.73 1237.09,113.26 1238.23,106.00
             1239.25,99.43 1243.90,95.91 1250.00,94.51
             1266.42,93.80 1268.09,118.30 1251.00,120.66 Z
           M 1577.00,125.26
           C 1570.45,127.44 1560.24,121.58 1561.23,111.00
             1561.76,105.28 1566.11,101.75 1571.04,99.65
             1588.10,96.48 1592.39,120.15 1577.00,125.26 Z
           M 1088.49,116.74
           C 1092.93,120.19 1098.23,129.89 1090.79,133.20
             1087.54,134.73 1074.47,135.55 1071.35,133.20
             1066.99,129.92 1068.12,123.01 1071.35,119.52
             1073.08,117.77 1074.90,116.89 1077.00,115.84
             1080.61,114.87 1085.30,114.26 1088.49,116.74 Z
           M 1491.14,121.18
           C 1494.66,115.51 1502.33,113.78 1507.89,117.39
             1511.13,119.49 1515.04,126.03 1510.68,128.98
             1508.50,130.46 1499.94,130.03 1497.00,130.00
             1493.59,129.96 1492.32,129.81 1489.00,129.00
             1489.37,126.38 1489.71,123.48 1491.14,121.18 Z
           M 1228.26,121.17
           C 1230.81,124.82 1230.97,130.86 1225.94,132.43
             1222.97,133.36 1210.82,133.50 1208.31,131.83
             1203.97,128.92 1206.14,120.05 1215.00,116.57
             1220.36,115.62 1224.90,116.35 1228.26,121.17 Z
           M 1547.69,121.30
           C 1552.69,126.48 1549.02,129.88 1543.00,130.00
             1540.42,130.04 1532.42,130.44 1530.60,128.98
             1529.65,128.22 1529.29,127.14 1529.29,125.96
             1529.29,121.29 1534.34,119.60 1538.00,118.57
             1541.59,118.25 1544.99,118.52 1547.69,121.30 Z
           M 2023.00,165.32
           C 2017.53,169.07 2007.87,173.30 2001.24,170.26
             1997.04,168.34 1992.33,158.11 1997.51,151.04
             2001.74,145.27 2015.44,137.62 2022.00,134.02
             2025.65,132.02 2029.16,129.18 2033.00,128.00
             2033.00,128.00 2033.00,143.00 2033.00,143.00
             2033.00,143.00 2034.00,160.00 2034.00,160.00
             2027.84,159.82 2027.77,162.06 2023.00,165.32 Z
           M 1902.57,198.53
           C 1909.21,205.33 1906.23,218.40 1897.00,221.06
             1886.97,223.95 1877.25,213.99 1880.70,204.01
             1882.28,199.45 1885.77,197.34 1890.00,195.65
             1894.70,194.70 1898.97,194.84 1902.57,198.53 Z
           M 38.00,216.00
           C 38.00,216.00 39.00,221.00 39.00,221.00
             45.57,218.22 55.29,213.24 61.78,218.65
             66.09,222.25 67.75,235.33 69.13,241.00
             69.13,241.00 73.66,263.00 73.66,263.00
             73.66,263.00 80.25,294.00 80.25,294.00
             81.22,299.79 83.87,310.86 81.85,316.00
             79.10,323.03 73.55,324.45 67.00,326.13
             67.00,326.13 53.00,329.58 53.00,329.58
             53.00,329.58 40.11,331.31 40.11,331.31
             36.52,332.33 37.23,334.40 33.00,336.00
             33.00,336.00 34.00,321.00 34.00,321.00
             34.00,321.00 34.00,300.00 34.00,300.00
             34.00,300.00 37.00,300.00 37.00,300.00
             37.14,301.76 37.07,303.98 38.60,305.22
             41.53,307.60 54.21,303.20 55.94,299.87
             57.56,296.74 54.45,288.62 53.66,285.00
             53.66,285.00 47.71,256.00 47.71,256.00
             45.89,249.21 46.95,245.72 38.00,245.00
             38.00,245.00 37.00,252.00 37.00,252.00
             37.00,252.00 34.00,252.00 34.00,252.00
             34.00,252.00 35.00,216.00 35.00,216.00
             35.00,216.00 38.00,216.00 38.00,216.00 Z
           M 2035.00,217.00
           C 2035.00,217.00 2035.00,225.00 2035.00,225.00
             2035.00,225.00 2032.00,225.00 2032.00,225.00
             2032.00,225.00 2032.00,217.00 2032.00,217.00
             2032.00,217.00 2035.00,217.00 2035.00,217.00 Z
           M 1864.99,218.78
           C 1876.38,224.87 1874.29,240.59 1862.00,243.58
             1850.87,246.29 1843.93,233.44 1846.72,226.09
             1848.30,221.94 1852.03,219.82 1856.00,218.78
             1858.98,218.04 1862.17,217.58 1864.99,218.78 Z
           M 176.00,266.01
           C 161.71,270.53 155.55,248.66 170.09,242.56
             186.65,239.74 188.56,262.03 176.00,266.01 Z
           M 1835.66,260.24
           C 1828.06,265.88 1829.22,248.27 1831.60,245.08
             1839.87,243.10 1841.07,256.24 1835.66,260.24 Z
           M 208.00,272.87
           C 192.81,274.78 193.19,258.33 197.57,253.15
             200.23,250.00 203.24,249.99 207.00,249.44
             221.22,248.80 221.46,271.18 208.00,272.87 Z
           M 232.61,257.99
           C 234.32,256.82 237.00,257.02 239.00,257.00
             239.73,265.97 240.65,269.66 239.00,279.00
             222.69,278.43 228.36,260.90 232.61,257.99 Z
           M 37.00,259.00
           C 37.00,259.00 37.00,262.00 37.00,262.00
             37.00,262.00 34.00,262.00 34.00,262.00
             34.00,262.00 34.00,259.00 34.00,259.00
             34.00,259.00 37.00,259.00 37.00,259.00 Z
           M 1855.90,276.31
           C 1863.34,282.51 1861.97,296.50 1851.99,299.43
             1835.25,304.34 1828.05,281.44 1843.04,274.65
             1847.37,273.74 1852.26,273.28 1855.90,276.31 Z
           M 187.00,299.97
           C 177.71,303.42 169.44,295.22 171.28,286.01
             172.13,281.72 175.37,278.73 179.04,276.73
             196.77,272.46 200.07,295.12 187.00,299.97 Z
           M 1873.00,334.66
           C 1859.89,337.32 1855.38,323.24 1857.74,317.00
             1859.50,312.34 1863.51,309.96 1868.00,308.55
             1883.86,306.79 1889.18,331.38 1873.00,334.66 Z
           M 199.90,311.60
           C 207.14,316.68 206.92,330.35 197.00,334.11
             188.53,337.32 180.32,329.58 181.25,321.00
             181.79,316.06 184.84,312.96 189.00,310.74
             192.53,309.88 196.72,309.37 199.90,311.60 Z
           M 2037.00,336.00
           C 2037.00,336.00 2037.00,339.00 2037.00,339.00
             2037.00,339.00 2034.00,339.00 2034.00,339.00
             2034.00,339.00 2034.00,336.00 2034.00,336.00
             2034.00,336.00 2037.00,336.00 2037.00,336.00 Z
           M 36.00,344.00
           C 36.00,344.00 36.00,347.00 36.00,347.00
             36.00,347.00 33.00,347.00 33.00,347.00
             33.00,347.00 33.00,344.00 33.00,344.00
             33.00,344.00 36.00,344.00 36.00,344.00 Z
           M 210.89,346.31
           C 217.39,351.80 216.25,364.07 208.00,367.26
             192.62,373.21 185.59,352.03 199.09,344.72
             203.20,343.72 207.42,343.38 210.89,346.31 Z
           M 36.00,351.00
           C 36.00,351.00 36.00,354.00 36.00,354.00
             36.00,354.00 33.00,354.00 33.00,354.00
             33.00,354.00 33.00,351.00 33.00,351.00
             33.00,351.00 36.00,351.00 36.00,351.00 Z
           M 36.00,355.00
           C 36.00,355.00 36.00,359.00 36.00,359.00
             36.00,359.00 33.00,359.00 33.00,359.00
             33.00,359.00 33.00,355.00 33.00,355.00
             33.00,355.00 36.00,355.00 36.00,355.00 Z
           M 36.00,360.00
           C 36.00,360.00 36.00,364.00 36.00,364.00
             36.00,364.00 33.00,364.00 33.00,364.00
             33.00,364.00 33.00,360.00 33.00,360.00
             33.00,360.00 36.00,360.00 36.00,360.00 Z
           M 221.86,381.23
           C 227.60,386.75 226.57,397.86 218.83,401.13
             203.66,407.54 194.84,387.37 209.17,378.74
             213.86,377.53 218.15,377.66 221.86,381.23 Z
           M 1982.00,430.18
           C 1973.39,433.27 1964.27,424.80 1965.37,416.00
             1966.07,410.37 1970.26,407.11 1975.00,404.73
             1991.61,400.80 1998.84,424.15 1982.00,430.18 Z
           M 226.00,411.11
           C 242.06,412.68 236.34,438.92 222.00,436.76
             212.19,435.28 205.05,419.71 220.00,411.74
             222.29,411.19 223.59,410.88 226.00,411.11 Z
           M 154.70,485.01
           C 162.08,488.82 164.62,502.38 153.00,507.47
             138.90,513.64 133.66,496.46 138.74,489.17
             140.23,487.03 141.84,486.18 144.00,485.01
             147.39,483.92 151.40,483.41 154.70,485.01 Z
           M 1890.00,525.70
           C 1880.36,526.45 1876.68,518.25 1877.02,510.00
             1877.09,508.19 1877.17,506.67 1878.02,505.02
             1880.35,500.50 1884.39,499.26 1889.00,498.54
             1906.87,498.88 1907.28,524.36 1890.00,525.70 Z
           M 1855.91,532.16
           C 1844.62,536.78 1835.80,524.26 1839.60,514.00
             1840.94,510.36 1843.74,508.44 1847.00,506.74
             1863.83,502.72 1871.27,525.88 1855.91,532.16 Z
           M 1934.74,516.65
           C 1942.82,523.42 1940.27,536.55 1930.00,539.43
             1916.16,543.31 1904.05,520.35 1922.00,514.53
             1926.42,513.81 1931.07,513.57 1934.74,516.65 Z
           M 1831.00,552.00
           C 1831.00,552.00 1831.00,543.00 1831.00,543.00
             1837.75,544.19 1837.75,550.81 1831.00,552.00 Z
           M 1955.96,546.95
           C 1966.89,552.92 1963.77,568.47 1953.00,572.28
             1942.37,576.03 1934.84,563.26 1937.56,554.09
             1938.69,550.26 1941.66,548.42 1945.00,546.95
             1948.46,545.90 1952.67,545.45 1955.96,546.95 Z
           M 34.00,559.00
           C 34.00,559.00 34.00,574.87 34.00,574.87
             37.21,574.22 40.77,573.48 43.98,574.87
             51.62,577.73 52.91,589.11 47.61,594.78
             44.11,598.51 39.72,598.93 35.00,598.00
             35.00,598.00 31.00,602.00 31.00,602.00
             31.00,602.00 31.00,559.00 31.00,559.00
             31.00,559.00 34.00,559.00 34.00,559.00 Z
           M 80.98,605.83
           C 75.01,608.90 67.64,605.26 65.65,599.00
             63.57,592.42 65.78,586.52 71.43,582.82
             88.60,577.56 93.23,599.54 80.98,605.83 Z
           M 1958.91,610.16
           C 1949.14,615.43 1938.40,606.12 1940.23,595.04
             1940.90,590.94 1943.82,588.27 1947.04,586.02
             1964.38,580.15 1972.65,602.76 1958.91,610.16 Z
           M 234.00,615.00
           C 234.00,615.00 234.92,631.00 234.92,631.00
             234.92,631.00 234.04,639.00 234.04,639.00
             234.04,639.00 234.04,649.00 234.04,649.00
             221.22,647.99 226.19,633.89 228.27,626.00
             228.27,626.00 231.00,615.00 231.00,615.00
             231.00,615.00 234.00,615.00 234.00,615.00 Z
           M 1839.42,617.57
           C 1842.16,620.56 1845.01,635.51 1831.00,636.00
             1831.00,636.00 1831.00,615.00 1831.00,615.00
             1834.09,615.10 1837.13,615.09 1839.42,617.57 Z
           M 1937.00,646.35
           C 1924.98,650.06 1917.89,637.12 1922.51,627.04
             1924.11,623.54 1926.68,622.20 1930.00,620.70
             1948.83,616.88 1950.83,642.08 1937.00,646.35 Z
           M 1869.61,639.48
           C 1874.78,644.73 1875.15,658.13 1865.00,661.44
             1851.94,665.70 1844.87,651.56 1847.74,644.02
             1849.32,639.88 1853.15,638.09 1857.00,636.64
             1861.93,635.65 1865.82,635.64 1869.61,639.48 Z
           M 1909.69,645.17
           C 1914.88,651.31 1911.16,662.63 1903.83,665.42
             1893.91,669.19 1884.38,658.64 1886.55,649.02
             1887.62,644.26 1892.01,642.41 1895.00,639.00
             1900.76,639.76 1905.66,640.42 1909.69,645.17 Z
           M 226.16,734.87
           C 229.51,731.57 232.56,733.71 232.96,738.02
             232.96,738.02 232.96,743.00 232.96,743.00
             232.96,743.00 232.00,752.00 232.00,752.00
             222.59,750.46 220.84,740.11 226.16,734.87 Z
           M 88.20,749.00
           C 88.13,739.78 99.36,733.62 106.96,739.43
             110.53,742.16 116.66,751.82 118.90,756.00
             120.38,758.75 122.77,763.78 126.02,764.67
             128.81,765.43 132.52,762.17 134.72,760.61
             141.85,755.58 152.65,745.27 161.83,750.97
             163.42,751.95 165.21,753.62 166.07,755.30
             166.96,757.07 166.99,759.06 166.99,761.00
             166.99,771.76 156.85,776.49 148.96,781.80
             146.38,783.55 141.44,786.79 140.87,790.01
             140.37,792.84 143.75,797.55 145.19,800.00
             149.38,807.12 155.63,814.37 154.94,823.00
             154.33,830.62 143.83,836.83 137.17,832.44
             132.82,829.57 127.22,818.86 124.31,814.00
             122.98,811.80 120.13,806.25 117.54,805.64
             115.23,805.10 110.99,808.61 109.00,809.83
             101.74,814.29 93.96,822.20 85.00,820.85
             77.33,819.71 73.27,809.83 76.53,803.18
             79.16,797.82 89.01,792.08 94.00,788.65
             97.89,785.99 99.32,784.33 104.00,783.00
             102.75,772.17 88.28,760.76 88.20,749.00 Z
           M 1831.00,765.00
           C 1831.01,763.25 1830.95,760.67 1831.60,759.06
             1833.82,753.55 1839.70,754.64 1843.41,757.86
             1848.86,762.59 1851.24,769.42 1846.58,775.70
             1845.48,777.18 1843.48,779.03 1841.83,779.86
             1839.16,781.22 1835.92,780.99 1833.00,781.00
             1830.32,773.82 1830.95,772.58 1831.00,765.00 Z
           M 1932.95,811.00
           C 1932.95,811.00 1926.89,841.00 1926.89,841.00
             1926.89,841.00 1923.55,860.00 1923.55,860.00
             1923.55,860.00 1921.21,869.00 1921.21,869.00
             1921.21,869.00 1920.66,876.00 1920.66,876.00
             1920.66,876.00 1918.17,884.00 1918.17,884.00
             1916.22,892.01 1917.21,902.52 1910.53,908.57
             1903.46,914.99 1890.03,909.41 1882.00,907.20
             1876.70,905.74 1871.87,903.01 1869.34,910.02
             1869.34,910.02 1862.20,942.00 1862.20,942.00
             1862.20,942.00 1857.05,966.00 1857.05,966.00
             1856.06,973.90 1854.08,986.24 1845.00,988.57
             1834.22,991.33 1831.99,979.10 1832.17,971.42
             1832.77,946.24 1837.88,933.35 1842.26,910.00
             1844.14,899.96 1844.91,878.40 1857.04,875.31
             1864.31,873.46 1876.83,879.19 1885.00,879.83
             1894.06,880.54 1894.13,873.94 1895.20,867.00
             1895.20,867.00 1896.94,859.00 1896.94,859.00
             1896.94,859.00 1900.55,842.00 1900.55,842.00
             1900.55,842.00 1905.75,814.00 1905.75,814.00
             1907.50,806.82 1908.58,801.42 1916.09,798.54
             1925.20,796.96 1932.47,801.09 1932.95,811.00 Z
           M 230.40,859.33
           C 231.06,860.62 230.98,863.49 231.09,865.00
             231.38,869.01 233.61,879.27 228.75,881.22
             223.16,883.46 218.83,875.24 218.28,870.83
             217.53,864.93 222.03,860.22 226.94,857.88
             227.44,857.89 229.25,857.09 230.40,859.33 Z
           M 224.00,920.43
           C 213.38,923.47 207.17,911.97 211.01,903.04
             212.65,899.21 215.36,898.02 219.00,896.64
             235.03,893.63 234.03,917.56 224.00,920.43 Z
           M 228.98,936.60
           C 228.98,936.60 230.00,955.00 230.00,955.00
             219.15,951.77 222.83,942.71 225.00,935.00
             225.00,935.00 228.98,936.60 228.98,936.60 Z
           M 32.00,938.00
           C 32.00,938.00 32.00,955.00 32.00,955.00
             32.00,955.00 29.00,955.00 29.00,955.00
             29.00,955.00 29.00,938.00 29.00,938.00
             29.00,938.00 32.00,938.00 32.00,938.00 Z
           M 143.00,1012.12
           C 136.75,1014.37 133.08,1012.35 129.71,1007.00
             128.30,1004.74 127.23,1002.74 127.43,1000.00
             127.86,994.28 132.19,990.87 137.00,988.70
             150.76,986.08 157.35,1006.97 143.00,1012.12 Z
           M 1975.00,1032.68
           C 1964.91,1035.06 1956.75,1021.67 1961.31,1013.09
             1963.43,1009.12 1966.96,1008.29 1971.00,1007.44
             1988.84,1005.36 1988.99,1029.38 1975.00,1032.68 Z
           M 2014.98,1015.78
           C 2027.71,1022.63 2020.97,1043.78 2008.00,1041.50
             1997.80,1039.70 1990.30,1020.61 2006.00,1015.78
             2008.96,1015.05 2012.19,1014.57 2014.98,1015.78 Z
           M 2041.00,1023.00
           C 2041.00,1023.00 2041.00,1028.00 2041.00,1028.00
             2041.00,1028.00 2038.00,1028.00 2038.00,1028.00
             2038.00,1028.00 2038.00,1023.00 2038.00,1023.00
             2038.00,1023.00 2041.00,1023.00 2041.00,1023.00 Z
           M 2040.00,1029.00
           C 2040.00,1029.00 2040.00,1041.00 2040.00,1041.00
             2040.00,1041.00 2037.00,1041.00 2037.00,1041.00
             2037.00,1041.00 2037.00,1029.00 2037.00,1029.00
             2037.00,1029.00 2040.00,1029.00 2040.00,1029.00 Z
           M 2041.00,1047.00
           C 2041.00,1047.00 2041.00,1052.00 2041.00,1052.00
             2041.00,1052.00 2038.00,1052.00 2038.00,1052.00
             2038.00,1052.00 2038.00,1047.00 2038.00,1047.00
             2038.00,1047.00 2041.00,1047.00 2041.00,1047.00 Z
           M 2041.00,1055.00
           C 2041.00,1055.00 2041.00,1093.00 2041.00,1093.00
             2036.68,1091.45 2038.03,1090.41 2035.45,1087.32
             2033.46,1084.95 2030.80,1083.83 2029.33,1080.91
             2025.20,1072.68 2034.13,1066.88 2036.15,1063.82
             2037.98,1061.04 2037.93,1058.17 2038.00,1055.00
             2038.00,1055.00 2041.00,1055.00 2041.00,1055.00 Z
           M 223.33,1173.41
           C 221.64,1172.08 214.24,1160.39 212.98,1158.00
             211.43,1155.06 209.95,1149.66 205.97,1149.40
             203.08,1149.21 193.99,1157.16 191.00,1159.25
             191.00,1159.25 160.00,1179.83 160.00,1179.83
             153.94,1183.82 148.92,1188.66 141.00,1187.89
             132.51,1187.06 129.19,1176.36 125.07,1170.00
             125.07,1170.00 104.30,1135.17 104.30,1135.17
             100.44,1128.73 91.73,1115.55 89.33,1109.00
             86.22,1100.55 89.81,1093.64 99.00,1092.51
             105.94,1091.65 112.22,1101.78 115.50,1107.01
             115.50,1107.01 136.49,1143.42 136.49,1143.42
             138.25,1146.70 142.97,1156.45 146.21,1157.70
             148.26,1158.50 149.98,1156.59 151.51,1155.53
             151.51,1155.53 164.00,1146.63 164.00,1146.63
             164.00,1146.63 196.01,1125.16 196.01,1125.16
             200.42,1122.42 203.59,1118.63 209.00,1118.11
             217.95,1117.25 221.33,1124.18 225.12,1131.00
             227.56,1135.36 227.93,1137.08 228.00,1142.00
             228.00,1142.00 227.34,1156.00 227.34,1156.00
             227.34,1156.00 227.97,1164.00 227.97,1164.00
             227.97,1164.00 227.00,1175.00 227.00,1175.00
             225.41,1174.51 224.77,1174.54 223.33,1173.41 Z
           M 1886.70,1095.17
           C 1895.98,1100.59 1894.63,1115.51 1884.00,1118.43
             1868.30,1122.74 1862.67,1099.97 1878.00,1094.56
             1880.91,1094.06 1883.99,1093.59 1886.70,1095.17 Z
           M 2041.00,1098.00
           C 2041.00,1098.00 2041.00,1137.00 2041.00,1137.00
             2041.00,1137.00 2038.00,1137.00 2038.00,1137.00
             2038.00,1137.00 2037.00,1127.00 2037.00,1127.00
             2033.36,1128.13 2029.74,1129.85 2026.00,1127.98
             2017.60,1123.77 2015.79,1111.00 2026.00,1106.93
             2029.56,1105.41 2033.38,1106.35 2037.00,1106.93
             2037.00,1106.93 2038.00,1098.00 2038.00,1098.00
             2038.00,1098.00 2041.00,1098.00 2041.00,1098.00 Z
           M 33.00,1139.00
           C 33.00,1139.00 33.00,1147.00 33.00,1147.00
             42.53,1145.73 37.07,1160.60 30.00,1163.00
             30.00,1163.00 30.00,1139.00 30.00,1139.00
             30.00,1139.00 33.00,1139.00 33.00,1139.00 Z
           M 1838.93,1225.43
           C 1841.46,1228.45 1843.17,1235.40 1848.04,1235.43
             1851.09,1235.46 1853.98,1232.28 1856.28,1230.65
             1856.28,1230.65 1863.00,1226.89 1863.00,1226.89
             1869.20,1223.14 1878.75,1216.18 1885.87,1222.31
             1891.11,1226.84 1891.17,1235.42 1886.89,1240.56
             1882.38,1245.99 1878.23,1246.88 1873.00,1250.45
             1866.07,1255.17 1857.54,1261.76 1850.00,1265.33
             1845.48,1267.47 1837.39,1267.94 1833.88,1263.70
             1829.86,1258.86 1832.14,1253.45 1832.20,1248.00
             1832.20,1248.00 1832.20,1223.00 1832.20,1223.00
             1834.82,1223.17 1836.95,1223.06 1838.93,1225.43 Z
           M 189.23,1272.00
           C 189.29,1269.64 190.32,1267.06 191.77,1265.21
             192.91,1263.74 194.38,1262.59 196.02,1261.73
             211.00,1253.80 218.41,1285.35 199.01,1283.88
             196.09,1283.66 193.65,1282.09 191.00,1281.00
             191.00,1281.00 189.23,1272.00 189.23,1272.00 Z
           M 1990.96,1266.73
           C 1995.97,1268.53 2000.90,1276.66 1999.17,1281.91
             1998.54,1283.84 1996.70,1285.66 1995.24,1287.04
             1993.53,1288.66 1992.28,1289.75 1989.96,1290.43
             1980.32,1293.26 1974.23,1281.23 1977.60,1273.18
             1978.97,1269.92 1982.96,1268.04 1986.00,1266.73
             1988.04,1266.37 1988.84,1265.99 1990.96,1266.73 Z
           M 513.00,1294.53
           C 513.00,1294.53 501.04,1302.09 501.04,1302.09
             501.04,1302.09 494.83,1306.91 494.83,1306.91
             494.83,1306.91 487.42,1311.23 487.42,1311.23
             487.42,1311.23 465.00,1326.83 465.00,1326.83
             459.27,1330.83 450.15,1331.74 445.53,1325.47
             443.97,1323.35 443.24,1320.60 443.11,1318.00
             442.57,1307.42 454.44,1301.93 462.00,1297.08
             462.00,1297.08 483.87,1283.22 483.87,1283.22
             487.15,1280.86 487.66,1278.81 492.02,1276.86
             500.06,1273.26 507.78,1274.99 516.00,1275.00
             521.92,1275.01 527.19,1274.59 533.00,1276.00
             530.78,1282.84 519.02,1290.76 513.00,1294.53 Z
           M 1680.10,1295.71
           C 1675.80,1303.54 1666.14,1303.65 1660.31,1297.38
             1658.25,1295.16 1656.79,1290.30 1659.60,1288.02
             1660.77,1287.07 1663.50,1286.81 1665.00,1286.58
             1667.28,1286.24 1668.66,1286.03 1671.00,1286.03
             1671.00,1286.03 1682.00,1287.00 1682.00,1287.00
             1681.76,1289.89 1681.53,1293.12 1680.10,1295.71 Z
           M 1584.00,1311.71
           C 1574.32,1313.44 1566.15,1302.65 1571.57,1293.05
             1573.65,1289.36 1576.17,1288.58 1579.99,1287.53
             1594.68,1286.04 1597.95,1309.21 1584.00,1311.71 Z
           M 1957.00,1287.43
           C 1961.99,1288.71 1967.85,1295.69 1967.47,1301.00
             1967.16,1305.37 1962.78,1309.67 1959.00,1311.43
             1951.07,1315.11 1942.85,1306.90 1943.10,1299.00
             1943.26,1293.63 1946.69,1290.48 1951.01,1287.93
             1953.33,1287.26 1954.51,1286.80 1957.00,1287.43 Z
           M 1640.00,1323.66
           C 1634.30,1324.84 1625.97,1322.67 1623.60,1316.83
             1620.80,1309.93 1627.96,1301.66 1634.09,1299.67
             1648.93,1299.86 1651.34,1321.30 1640.00,1323.66 Z
           M 2015.39,1302.82
           C 2019.50,1306.17 2023.60,1319.62 2013.98,1322.77
             2009.87,1324.12 2004.73,1324.34 2001.28,1321.35
             1996.56,1317.27 1995.73,1305.67 2005.00,1301.65
             2008.34,1300.97 2012.53,1300.50 2015.39,1302.82 Z
           M 1927.98,1331.56
           C 1926.25,1332.79 1924.13,1334.15 1922.00,1334.49
             1916.05,1335.46 1911.50,1329.34 1911.06,1324.00
             1910.42,1316.32 1912.37,1311.91 1920.00,1309.57
             1931.94,1308.72 1940.09,1322.96 1927.98,1331.56 Z
           M 35.00,1311.00
           C 35.00,1311.00 35.00,1316.00 35.00,1316.00
             35.00,1316.00 32.00,1316.00 32.00,1316.00
             32.00,1316.00 32.00,1311.00 32.00,1311.00
             32.00,1311.00 35.00,1311.00 35.00,1311.00 Z
           M 53.00,1336.46
           C 44.69,1337.85 39.15,1325.46 43.02,1319.27
             44.53,1316.87 47.45,1316.22 50.00,1315.57
             63.82,1315.38 64.20,1334.59 53.00,1336.46 Z
           M 1401.83,1338.43
           C 1392.32,1343.47 1383.75,1333.08 1383.53,1327.83
             1383.30,1322.35 1387.43,1318.92 1391.42,1315.98
             1405.58,1310.78 1415.66,1331.11 1401.83,1338.43 Z
           M 36.00,1321.00
           C 36.00,1321.00 37.00,1328.00 37.00,1328.00
             37.00,1328.00 34.00,1328.00 34.00,1328.00
             34.00,1328.00 33.00,1321.00 33.00,1321.00
             33.00,1321.00 36.00,1321.00 36.00,1321.00 Z
           M 1611.17,1325.90
           C 1615.32,1330.53 1614.84,1341.59 1608.94,1344.57
             1600.81,1348.69 1591.95,1344.07 1590.83,1334.99
             1590.49,1333.06 1590.22,1331.04 1590.83,1329.17
             1591.97,1326.29 1594.55,1324.58 1597.00,1323.01
             1602.21,1321.29 1607.27,1321.56 1611.17,1325.90 Z
           M 86.98,1344.26
           C 77.65,1347.93 72.47,1336.86 74.43,1330.09
             75.44,1326.59 77.97,1325.21 81.00,1323.74
             93.72,1321.43 98.63,1339.69 86.98,1344.26 Z
           M 1128.49,1396.00
           C 1121.28,1383.79 1101.43,1355.62 1097.19,1344.00
             1094.07,1335.46 1099.56,1328.96 1108.00,1327.76
             1109.61,1327.64 1112.18,1327.13 1113.70,1327.76
             1116.31,1328.57 1118.98,1333.12 1120.51,1335.42
             1120.51,1335.42 1134.73,1357.46 1134.73,1357.46
             1136.03,1358.77 1136.17,1358.49 1137.00,1359.00
             1137.84,1366.43 1141.05,1367.78 1144.63,1374.01
             1147.10,1378.33 1154.74,1391.52 1159.02,1393.15
             1164.01,1395.06 1172.89,1386.95 1177.00,1384.31
             1177.00,1384.31 1206.04,1364.80 1206.04,1364.80
             1212.14,1360.28 1217.91,1354.93 1226.00,1355.03
             1234.75,1355.15 1238.32,1363.43 1242.15,1369.99
             1250.84,1384.84 1267.24,1406.20 1271.00,1422.00
             1271.00,1422.00 1241.00,1422.00 1241.00,1422.00
             1241.00,1422.00 1244.00,1418.00 1244.00,1418.00
             1238.42,1413.08 1234.14,1405.55 1230.58,1399.00
             1229.08,1396.25 1224.80,1389.30 1221.90,1388.23
             1217.71,1386.69 1212.15,1392.56 1208.83,1394.66
             1208.83,1394.66 1201.42,1399.09 1201.42,1399.09
             1201.42,1399.09 1190.83,1407.46 1190.83,1407.46
             1184.18,1411.43 1175.88,1413.54 1172.00,1421.00
             1172.00,1421.00 1138.00,1421.00 1138.00,1421.00
             1138.00,1421.00 1138.00,1418.00 1138.00,1418.00
             1138.00,1418.00 1143.00,1417.00 1143.00,1417.00
             1137.09,1413.60 1132.16,1402.20 1128.49,1396.00 Z
           M 2036.00,1327.00
           C 2035.61,1335.53 2034.99,1343.99 2031.93,1352.00
             2030.40,1355.99 2030.17,1358.51 2026.00,1360.00
             2026.00,1360.00 2026.00,1354.00 2026.00,1354.00
             2019.06,1351.84 2016.96,1343.67 2021.31,1339.31
             2024.12,1336.50 2028.36,1337.00 2032.00,1337.00
             2032.00,1337.00 2033.00,1327.00 2033.00,1327.00
             2033.00,1327.00 2036.00,1327.00 2036.00,1327.00 Z
           M 38.00,1330.00
           C 38.00,1330.00 38.00,1334.00 38.00,1334.00
             38.00,1334.00 35.00,1334.00 35.00,1334.00
             35.00,1334.00 35.00,1330.00 35.00,1330.00
             35.00,1330.00 38.00,1330.00 38.00,1330.00 Z
           M 124.80,1334.80
           C 130.08,1341.10 126.32,1352.27 118.00,1352.94
             105.07,1353.99 106.18,1338.35 107.99,1335.48
             109.42,1333.21 111.65,1332.44 114.00,1331.58
             117.96,1331.05 122.04,1331.50 124.80,1334.80 Z
           M 1891.99,1355.13
           C 1881.64,1357.70 1873.15,1346.45 1878.45,1337.18
             1880.39,1333.81 1883.51,1332.62 1887.00,1331.53
             1901.95,1329.58 1904.57,1351.99 1891.99,1355.13 Z
           M 40.00,1338.00
           C 40.00,1338.00 41.00,1344.00 41.00,1344.00
             37.46,1342.62 37.62,1341.60 37.00,1338.00
             37.00,1338.00 40.00,1338.00 40.00,1338.00 Z
           M 632.99,1365.47
           C 623.90,1367.67 616.70,1358.55 618.83,1350.00
             620.25,1344.26 623.85,1342.51 629.00,1340.65
             644.86,1338.54 646.59,1362.17 632.99,1365.47 Z
           M 1572.96,1366.69
           C 1556.49,1370.99 1552.23,1348.40 1567.00,1343.53
             1582.15,1341.42 1585.22,1363.48 1572.96,1366.69 Z
           M 165.59,1403.98
           C 167.24,1402.94 171.12,1396.39 176.17,1393.22
             176.17,1393.22 184.00,1389.17 184.00,1389.17
             184.00,1389.17 200.28,1376.54 200.28,1376.54
             200.28,1376.54 210.91,1369.86 210.91,1369.86
             210.91,1369.86 226.09,1359.59 226.09,1359.59
             228.17,1358.80 233.58,1358.96 236.00,1359.00
             237.44,1359.03 239.28,1358.99 240.62,1359.56
             244.77,1361.32 251.45,1373.92 254.09,1378.00
             255.44,1380.10 258.80,1385.45 261.46,1385.66
             264.34,1385.90 273.04,1378.45 276.00,1376.59
             276.00,1376.59 307.00,1357.17 307.00,1357.17
             312.73,1353.42 317.37,1348.67 324.72,1348.23
             337.90,1347.45 339.21,1362.36 330.56,1370.73
             330.56,1370.73 321.00,1377.24 321.00,1377.24
             321.00,1377.24 301.00,1390.60 301.00,1390.60
             301.00,1390.60 293.00,1396.19 293.00,1396.19
             293.00,1396.19 275.00,1407.00 275.00,1407.00
             275.00,1407.00 281.00,1408.00 281.00,1408.00
             281.00,1408.00 281.00,1411.00 281.00,1411.00
             281.00,1411.00 239.00,1410.00 239.00,1410.00
             239.00,1410.00 239.00,1407.00 239.00,1407.00
             239.00,1407.00 246.00,1407.00 246.00,1407.00
             244.15,1404.90 241.55,1402.11 240.20,1399.72
             238.26,1396.31 235.92,1389.70 231.90,1388.23
             228.83,1387.11 225.48,1389.93 223.00,1391.42
             223.00,1391.42 211.00,1399.29 211.00,1399.29
             211.00,1399.29 200.00,1406.00 200.00,1406.00
             200.00,1406.00 209.00,1407.00 209.00,1407.00
             209.00,1407.00 209.00,1409.91 209.00,1409.91
             209.00,1409.91 196.00,1409.91 196.00,1409.91
             196.00,1409.91 181.00,1408.59 181.00,1408.59
             181.00,1408.59 172.00,1408.59 172.00,1408.59
             172.00,1408.59 158.00,1408.00 158.00,1408.00
             158.00,1408.00 158.00,1405.00 158.00,1405.00
             160.29,1404.99 163.62,1405.23 165.59,1403.98 Z
           M 600.36,1349.92
           C 604.30,1352.80 608.73,1367.42 598.96,1371.91
             584.86,1378.39 575.19,1357.82 588.09,1349.92
             590.99,1349.03 597.76,1348.14 600.36,1349.92 Z
           M 868.08,1403.00
           C 868.08,1403.00 874.53,1374.00 874.53,1374.00
             875.67,1369.33 876.24,1362.07 878.57,1358.19
             883.04,1350.76 893.99,1352.31 898.40,1359.02
             900.20,1361.76 900.06,1364.86 899.99,1368.00
             899.99,1368.00 897.08,1388.00 897.08,1388.00
             896.17,1393.54 894.95,1397.16 901.02,1400.08
             910.23,1404.50 910.69,1396.42 912.09,1392.00
             912.09,1392.00 915.26,1382.00 915.26,1382.00
             917.04,1374.93 916.33,1368.01 924.02,1364.28
             932.50,1360.15 940.83,1366.07 941.80,1375.00
             942.22,1378.84 939.84,1387.84 938.88,1392.00
             936.87,1400.76 937.21,1408.22 932.00,1416.00
             932.00,1416.00 936.00,1416.00 936.00,1416.00
             936.00,1416.00 936.00,1419.00 936.00,1419.00
             936.00,1419.00 895.00,1419.00 895.00,1419.00
             895.00,1419.00 883.00,1418.04 883.00,1418.04
             883.00,1418.04 868.08,1418.04 868.08,1418.04
             868.08,1418.04 868.08,1403.00 868.08,1403.00 Z
           M 1859.00,1376.85
           C 1855.88,1377.34 1850.75,1377.10 1848.11,1375.26
             1842.25,1371.19 1840.63,1356.53 1855.00,1353.57
             1869.53,1353.82 1871.19,1374.97 1859.00,1376.85 Z
           M 674.43,1359.53
           C 679.13,1364.52 677.50,1374.80 669.96,1377.99
             656.28,1383.79 647.41,1364.55 660.02,1356.93
             664.96,1355.44 670.62,1355.49 674.43,1359.53 Z
           M 1633.11,1361.17
           C 1636.84,1366.52 1635.52,1377.02 1628.95,1379.52
             1613.61,1385.36 1606.29,1363.61 1620.02,1356.82
             1625.40,1355.44 1629.73,1356.33 1633.11,1361.17 Z
           M 98.96,1377.99
           C 87.40,1382.88 78.46,1365.06 91.02,1357.85
             104.95,1354.14 109.26,1373.64 98.96,1377.99 Z
           M 51.00,1361.00
           C 51.00,1361.00 51.00,1364.00 51.00,1364.00
             51.00,1364.00 48.00,1364.00 48.00,1364.00
             48.00,1364.00 48.00,1361.00 48.00,1361.00
             48.00,1361.00 51.00,1361.00 51.00,1361.00 Z
           M 1548.32,1374.00
           C 1549.02,1376.27 1548.92,1378.74 1548.32,1380.96
             1547.48,1383.17 1546.57,1384.41 1544.87,1385.95
             1534.03,1395.82 1520.36,1381.62 1527.62,1370.44
             1528.94,1368.40 1530.74,1366.63 1533.04,1365.73
             1535.52,1364.77 1540.23,1365.00 1543.00,1365.00
             1544.74,1368.20 1547.51,1370.31 1548.32,1374.00 Z
           M 571.71,1375.80
           C 578.25,1379.81 582.46,1395.79 570.00,1399.69
             553.79,1404.75 549.17,1381.42 563.04,1375.80
             565.83,1375.06 569.10,1374.51 571.71,1375.80 Z
           M 1037.91,1400.98
           C 1028.66,1404.42 1021.06,1396.02 1022.19,1387.00
             1022.89,1381.45 1026.23,1378.34 1031.00,1375.94
             1045.66,1373.60 1051.81,1395.83 1037.91,1400.98 Z
           M 82.99,1391.31
           C 86.60,1393.69 89.52,1394.78 91.00,1399.00
             84.49,1397.43 69.51,1388.79 65.31,1383.83
             63.72,1381.95 63.66,1381.22 63.00,1379.00
             69.08,1380.73 77.38,1387.62 82.99,1391.31 Z
           M 1301.42,1407.55
           C 1301.42,1407.55 1332.00,1386.91 1332.00,1386.91
             1336.52,1384.14 1341.44,1380.92 1347.00,1382.43
             1352.96,1384.05 1359.46,1396.65 1362.49,1402.00
             1365.19,1406.75 1370.00,1413.44 1369.00,1419.00
             1369.00,1419.00 1375.00,1420.00 1375.00,1420.00
             1375.00,1420.00 1375.00,1423.00 1375.00,1423.00
             1375.00,1423.00 1339.00,1423.00 1339.00,1423.00
             1339.00,1423.00 1322.00,1422.00 1322.00,1422.00
             1322.00,1422.00 1279.00,1422.00 1279.00,1422.00
             1279.00,1422.00 1279.00,1419.00 1279.00,1419.00
             1279.00,1419.00 1291.00,1419.00 1291.00,1419.00
             1292.05,1412.78 1296.59,1411.32 1301.42,1407.55 Z
           M 1882.08,1410.20
           C 1880.54,1410.79 1876.63,1410.98 1874.96,1410.82
             1865.44,1409.93 1862.04,1398.26 1867.58,1391.33
             1869.17,1389.35 1870.81,1388.70 1873.00,1387.70
             1886.89,1384.92 1893.66,1405.75 1882.08,1410.20 Z
           M 696.21,1391.56
           C 700.23,1396.19 700.02,1407.17 693.88,1409.99
             679.47,1416.62 668.38,1397.47 683.00,1388.93
             687.44,1387.62 692.92,1387.75 696.21,1391.56 Z
           M 1650.96,1413.35
           C 1635.64,1420.61 1627.67,1400.08 1641.17,1391.74
             1656.55,1387.79 1662.20,1408.03 1650.96,1413.35 Z
           M 100.00,1399.00
           C 100.00,1399.00 100.00,1402.00 100.00,1402.00
             100.00,1402.00 97.00,1402.00 97.00,1402.00
             97.00,1402.00 97.00,1399.00 97.00,1399.00
             97.00,1399.00 100.00,1399.00 100.00,1399.00 Z
           M 385.00,1410.00
           C 385.00,1410.00 396.00,1410.00 396.00,1410.00
             396.00,1410.00 396.00,1412.96 396.00,1412.96
             396.00,1412.96 380.00,1412.96 380.00,1412.96
             380.00,1412.96 370.00,1412.00 370.00,1412.00
             372.61,1404.17 384.59,1397.34 385.00,1410.00 Z
           M 155.00,1405.00
           C 155.00,1405.00 155.00,1408.00 155.00,1408.00
             155.00,1408.00 151.00,1408.00 151.00,1408.00
             151.00,1408.00 151.00,1405.00 151.00,1405.00
             151.00,1405.00 155.00,1405.00 155.00,1405.00 Z
           M 287.00,1409.00
           C 287.00,1409.00 287.00,1412.00 287.00,1412.00
             287.00,1412.00 283.00,1412.00 283.00,1412.00
             283.00,1412.00 283.00,1409.00 283.00,1409.00
             283.00,1409.00 287.00,1409.00 287.00,1409.00 Z
           M 690.00,1414.00
           C 690.00,1414.00 690.00,1417.00 690.00,1417.00
             690.00,1417.00 682.00,1417.00 682.00,1417.00
             682.00,1417.00 682.00,1414.00 682.00,1414.00
             682.00,1414.00 690.00,1414.00 690.00,1414.00 Z
           M 1331.00,1420.00
           C 1331.00,1420.00 1343.00,1420.00 1343.00,1420.00
             1339.69,1413.57 1334.44,1413.93 1331.00,1420.00 Z
           M 1654.00,1420.00
           C 1654.00,1420.00 1654.00,1423.00 1654.00,1423.00
             1654.00,1423.00 1637.00,1423.00 1637.00,1423.00
             1637.00,1423.00 1637.00,1420.00 1637.00,1420.00
             1637.00,1420.00 1654.00,1420.00 1654.00,1420.00 Z" />
</svg>
