<?xml version="1.0" encoding="UTF-8" standalone="no"?>
<!DOCTYPE svg PUBLIC "-//W3C//DTD SVG 20010904//EN"
              "http://www.w3.org/TR/2001/REC-SVG-20010904/DTD/svg10.dtd">

<svg xmlns="http://www.w3.org/2000/svg"
     width="100%" height="100%"
     viewBox="0 0 2573 1765">
  <path id="Selection"
        fill="#f22e32" stroke="#f22e32" stroke-width="1"
        d="M 2256.00,16.00
           C 2256.06,18.78 2256.54,32.15 2257.64,33.62
             2260.88,37.98 2266.34,37.05 2271.00,37.00
             2271.00,37.00 2302.00,38.96 2302.00,38.96
             2308.08,39.26 2318.08,39.76 2322.87,43.72
             2328.46,48.34 2327.20,58.41 2326.41,65.00
             2326.41,65.00 2325.27,80.00 2325.27,80.00
             2325.27,80.00 2325.27,92.00 2325.27,92.00
             2324.80,97.09 2322.69,106.29 2325.27,110.85
             2327.08,113.93 2333.64,115.11 2337.00,115.22
             2337.00,115.22 2346.00,115.22 2346.00,115.22
             2346.00,115.22 2372.00,117.01 2372.00,117.01
             2380.09,116.90 2389.52,117.94 2393.84,126.00
             2396.38,131.21 2394.07,139.20 2393.84,145.00
             2393.84,145.00 2391.31,197.00 2391.31,197.00
             2391.74,206.18 2389.30,216.86 2378.00,215.94
             2370.97,215.37 2367.22,208.51 2367.18,202.00
             2367.18,202.00 2368.00,191.00 2368.00,191.00
             2368.00,191.00 2368.00,180.00 2368.00,180.00
             2368.00,180.00 2370.00,152.00 2370.00,152.00
             2369.78,139.80 2364.02,141.53 2355.00,140.91
             2355.00,140.91 2345.00,140.00 2345.00,140.00
             2345.00,140.00 2331.00,139.09 2331.00,139.09
             2331.00,139.09 2317.00,138.28 2317.00,138.28
             2313.95,137.92 2308.70,138.38 2306.30,136.98
             2301.43,134.13 2298.92,126.39 2299.32,121.00
             2299.32,121.00 2301.00,105.00 2301.00,105.00
             2301.00,105.00 2301.00,96.00 2301.00,96.00
             2301.00,96.00 2302.00,86.00 2302.00,86.00
             2302.05,81.60 2303.73,70.17 2301.40,67.30
             2297.68,62.70 2280.93,62.03 2275.00,62.00
             2267.34,61.96 2251.01,61.31 2244.00,59.59
             2238.53,58.24 2235.20,57.82 2232.15,52.00
             2230.72,48.73 2231.78,45.45 2232.15,42.00
             2232.15,42.00 2233.30,24.00 2233.30,24.00
             2233.30,24.00 2235.00,15.00 2235.00,15.00
             2235.00,15.00 2256.00,16.00 2256.00,16.00 Z
           M 1341.00,20.18
           C 1341.00,20.18 1355.00,21.00 1355.00,21.00
             1355.00,21.00 1355.00,26.00 1355.00,26.00
             1355.00,26.00 1367.00,24.00 1367.00,24.00
             1367.00,24.00 1364.00,20.00 1364.00,20.00
             1364.00,20.00 1413.00,20.00 1413.00,20.00
             1415.22,20.00 1418.57,19.76 1420.47,20.99
             1423.22,22.78 1424.49,26.98 1425.18,30.00
             1426.78,36.98 1427.77,43.86 1427.32,51.00
             1427.32,51.00 1429.94,77.91 1429.94,77.91
             1429.93,80.27 1430.41,87.94 1431.69,89.57
             1434.27,92.87 1446.81,91.28 1451.43,91.19
             1451.43,91.19 1477.00,89.00 1477.00,89.00
             1484.50,88.91 1488.97,85.78 1494.99,88.03
             1506.06,92.17 1504.27,106.25 1497.88,110.66
             1491.65,114.96 1480.16,113.60 1473.00,113.87
             1473.00,113.87 1460.00,115.71 1460.00,115.71
             1460.00,115.71 1444.83,116.96 1444.83,116.96
             1436.42,117.90 1429.62,119.11 1421.00,119.00
             1408.18,118.82 1407.66,109.28 1406.91,99.00
             1406.91,99.00 1406.00,89.00 1406.00,89.00
             1406.00,89.00 1404.00,62.00 1404.00,62.00
             1403.94,57.38 1403.63,51.15 1399.52,48.18
             1395.95,45.61 1389.19,47.31 1385.00,47.59
             1385.00,47.59 1361.00,49.83 1361.00,49.83
             1361.00,49.83 1351.00,50.42 1351.00,50.42
             1343.67,51.39 1336.43,52.32 1332.01,44.98
             1329.48,40.78 1331.01,36.59 1330.99,32.00
             1330.97,27.03 1329.98,25.58 1329.00,21.00
             1329.00,21.00 1341.00,20.18 1341.00,20.18 Z
           M 1053.10,24.00
           C 1053.10,24.00 1053.10,31.00 1053.10,31.00
             1053.01,32.41 1052.98,34.67 1053.10,36.00
             1055.70,45.48 1063.49,41.68 1069.99,42.66
             1069.99,42.66 1076.28,43.82 1076.28,43.82
             1079.50,44.30 1082.80,43.83 1086.00,43.82
             1086.00,43.82 1106.00,45.42 1106.00,45.42
             1111.44,46.14 1116.30,45.77 1120.67,49.71
             1128.03,56.33 1123.59,63.39 1123.72,68.00
             1123.72,68.00 1123.72,76.00 1123.72,76.00
             1123.72,76.00 1122.67,84.00 1122.67,84.00
             1122.67,84.00 1122.67,93.00 1122.67,93.00
             1122.67,93.00 1121.99,105.01 1121.99,105.01
             1121.95,108.61 1120.22,114.84 1121.99,117.70
             1125.24,122.82 1134.91,121.74 1140.00,122.09
             1140.00,122.09 1173.72,124.15 1173.72,124.15
             1180.62,124.44 1187.12,125.17 1190.78,132.17
             1192.37,135.52 1190.94,139.87 1190.78,143.58
             1190.78,143.58 1190.78,158.00 1190.78,158.00
             1190.78,158.00 1189.00,169.00 1189.00,169.00
             1185.40,168.97 1170.53,169.42 1168.51,167.98
             1164.75,165.30 1166.69,158.20 1166.40,156.00
             1165.90,152.21 1162.41,149.64 1159.00,148.47
             1153.70,146.65 1145.66,147.01 1140.00,147.00
             1140.00,147.00 1121.80,145.78 1121.80,145.78
             1113.34,145.65 1102.39,146.75 1097.01,138.91
             1092.68,132.54 1096.98,125.56 1097.01,117.00
             1097.01,117.00 1097.01,106.00 1097.01,106.00
             1097.01,106.00 1098.00,87.00 1098.00,87.00
             1098.01,83.35 1099.78,74.89 1097.45,72.60
             1094.73,69.93 1081.08,69.04 1077.00,69.00
             1077.00,69.00 1055.00,66.38 1055.00,66.38
             1048.40,65.97 1033.75,70.04 1029.58,58.00
             1028.95,56.16 1029.01,53.93 1029.04,52.00
             1029.04,52.00 1029.04,39.00 1029.04,39.00
             1029.68,30.88 1031.27,34.32 1030.00,24.00
             1030.00,24.00 1053.10,24.00 1053.10,24.00 Z
           M 230.00,52.00
           C 230.00,52.00 231.59,77.00 231.59,77.00
             232.88,82.61 233.74,89.32 240.02,91.35
             245.87,93.24 253.21,91.04 259.00,90.14
             259.00,90.14 272.00,90.14 272.00,90.14
             272.00,90.14 283.00,88.95 283.00,88.95
             290.70,88.09 296.34,85.43 302.77,91.46
             307.63,96.01 306.37,103.48 301.54,107.49
             296.87,111.36 287.99,113.24 282.00,112.91
             282.00,112.91 276.00,112.34 276.00,112.34
             276.00,112.34 254.00,114.30 254.00,114.30
             254.00,114.30 246.00,115.96 246.00,115.96
             246.00,115.96 236.00,115.96 236.00,115.96
             228.03,116.63 216.05,119.43 212.94,108.99
             212.03,105.90 212.38,104.01 212.29,101.00
             212.29,101.00 211.00,90.00 211.00,90.00
             211.00,90.00 211.00,75.00 211.00,75.00
             211.00,75.00 209.29,64.00 209.29,64.00
             208.72,59.39 210.14,53.17 206.69,49.68
             201.84,44.79 195.14,46.70 189.00,46.32
             184.52,46.04 181.32,47.40 177.00,47.96
             177.00,47.96 168.00,47.96 168.00,47.96
             168.00,47.96 154.00,49.20 154.00,49.20
             154.00,49.20 145.00,49.20 145.00,49.20
             137.61,48.08 135.02,36.65 135.78,34.31
             136.78,31.23 149.80,29.28 153.00,29.09
             153.00,29.09 163.00,29.82 163.00,29.82
             163.00,29.82 174.00,29.00 174.00,29.00
             174.00,29.00 187.00,29.00 187.00,29.00
             187.00,29.00 203.00,28.00 203.00,28.00
             212.04,27.99 218.92,28.20 228.00,27.00
             228.00,27.00 230.00,52.00 230.00,52.00 Z
           M 153.00,33.00
           C 153.00,33.00 157.00,34.00 157.00,34.00
             155.37,32.17 155.34,32.24 153.00,33.00 Z
           M 1771.43,132.00
           C 1771.43,132.00 1774.62,144.00 1774.62,144.00
             1775.28,147.31 1774.55,152.98 1777.51,155.23
             1780.14,157.23 1790.65,153.99 1794.00,153.08
             1794.00,153.08 1825.00,144.50 1825.00,144.50
             1828.39,143.47 1836.50,140.75 1839.72,141.51
             1846.84,143.19 1849.40,148.42 1850.96,155.00
             1851.47,157.13 1852.28,160.55 1850.96,162.49
             1849.01,165.37 1843.10,165.00 1840.00,165.09
             1840.00,165.09 1782.00,165.09 1782.00,165.09
             1782.00,165.09 1765.00,165.09 1765.00,165.09
             1761.72,165.30 1758.16,166.62 1755.27,164.40
             1752.35,162.15 1751.41,157.38 1750.53,154.00
             1750.53,154.00 1748.26,145.00 1748.26,145.00
             1747.26,139.66 1747.15,134.14 1745.37,129.00
             1744.16,125.53 1742.61,120.03 1738.90,118.61
             1735.08,117.16 1728.98,120.23 1725.00,121.04
             1725.00,121.04 1716.83,122.13 1716.83,122.13
             1716.83,122.13 1691.00,128.44 1691.00,128.44
             1686.45,129.26 1678.41,131.26 1674.61,128.44
             1673.33,127.31 1671.83,125.09 1670.93,123.71
             1665.41,115.26 1668.01,114.65 1666.18,106.00
             1666.18,106.00 1653.80,53.00 1653.80,53.00
             1652.43,45.71 1652.75,35.93 1662.01,34.23
             1674.52,31.93 1677.19,41.13 1679.09,51.00
             1679.09,51.00 1687.27,85.00 1687.27,85.00
             1688.02,87.86 1689.60,96.80 1690.98,98.84
             1694.85,103.97 1699.41,96.88 1709.00,98.84
             1712.00,95.59 1724.46,94.35 1729.00,93.38
             1735.51,92.00 1750.71,86.18 1756.83,88.74
             1759.56,89.88 1762.34,93.46 1763.73,96.00
             1765.03,98.37 1765.45,100.39 1765.96,103.00
             1766.60,106.86 1766.92,108.13 1765.96,112.00
             1768.78,113.85 1768.77,114.22 1767.00,117.00
             1772.04,122.52 1770.27,125.29 1771.43,132.00 Z
           M 480.09,56.00
           C 480.09,56.00 488.79,91.00 488.79,91.00
             489.97,94.41 491.81,100.07 495.11,101.81
             498.53,103.62 507.10,100.72 511.01,99.83
             511.01,99.83 530.00,95.37 530.00,95.37
             530.00,95.37 538.00,94.16 538.00,94.16
             544.16,92.73 544.65,91.18 552.00,91.01
             553.71,90.97 557.11,90.88 558.62,91.57
             563.70,93.89 565.69,104.07 566.61,109.00
             566.61,109.00 571.30,128.00 571.30,128.00
             571.30,128.00 575.50,145.00 575.50,145.00
             576.59,148.62 577.37,155.02 580.53,157.31
             583.20,159.25 592.16,155.59 596.00,154.92
             596.00,154.92 628.00,147.74 628.00,147.74
             634.49,146.50 636.01,144.40 643.00,146.29
             650.09,148.20 651.69,151.97 651.96,159.00
             652.04,161.09 652.21,164.54 650.40,165.98
             648.81,167.23 644.99,167.00 643.00,167.00
             643.00,167.00 585.00,167.00 585.00,167.00
             585.00,167.00 570.00,166.00 570.00,166.00
             566.64,165.96 560.98,166.44 558.11,164.83
             554.76,162.95 553.81,159.44 552.88,156.00
             552.88,156.00 548.12,135.00 548.12,135.00
             547.06,130.54 545.68,121.36 540.90,119.64
             538.26,118.69 532.11,120.49 529.00,120.83
             529.00,120.83 491.00,129.07 491.00,129.07
             485.44,129.59 481.21,131.19 476.04,127.85
             469.33,123.52 468.56,113.33 467.25,106.00
             467.25,106.00 463.16,85.04 463.16,85.04
             463.16,85.04 460.62,76.96 460.62,76.96
             460.62,76.96 456.51,54.00 456.51,54.00
             454.96,46.25 455.45,39.07 464.01,36.48
             477.65,34.61 479.24,45.58 480.09,56.00 Z
           M 2093.43,108.00
           C 2091.73,111.51 2082.48,119.41 2079.16,122.46
             2079.16,122.46 2057.72,142.75 2057.72,142.75
             2057.72,142.75 2052.48,147.17 2052.48,147.17
             2050.72,148.98 2049.05,151.45 2048.93,154.04
             2048.80,156.58 2050.64,159.93 2047.67,162.22
             2045.22,163.67 2040.76,162.71 2038.00,162.22
             2031.88,161.92 2024.27,165.25 2019.51,159.77
             2010.88,149.85 2021.07,140.92 2027.31,133.98
             2027.31,133.98 2038.28,123.63 2038.28,123.63
             2040.99,121.41 2042.21,121.35 2045.49,118.18
             2045.49,118.18 2067.92,96.50 2067.92,96.50
             2070.77,94.10 2072.42,91.79 2076.01,90.34
             2079.99,88.73 2084.77,89.00 2089.00,89.00
             2090.61,93.05 2091.09,93.96 2095.00,96.00
             2095.00,100.04 2095.24,104.26 2093.43,108.00 Z
           M 890.88,114.71
           C 887.72,120.00 876.93,128.73 872.00,132.87
             872.00,132.87 851.40,152.37 851.40,152.37
             849.62,154.23 847.83,156.31 847.68,159.00
             847.50,162.42 850.97,166.39 844.94,168.28
             841.26,169.43 824.32,168.73 821.04,166.98
             815.88,164.22 814.51,155.02 816.98,150.29
             818.47,147.45 825.37,141.46 827.93,138.93
             827.93,138.93 838.26,128.37 838.26,128.37
             838.26,128.37 843.72,124.37 843.72,124.37
             843.72,124.37 859.04,110.14 859.04,110.14
             863.75,105.76 871.10,97.47 877.00,95.53
             891.03,93.27 895.52,106.93 890.88,114.71 Z
           M 1942.70,128.78
           C 1949.82,133.24 1950.52,151.13 1939.98,153.52
             1924.19,157.10 1921.78,138.35 1928.48,131.80
             1930.37,129.95 1932.57,129.29 1935.00,128.78
             1937.56,128.12 1940.32,127.61 1942.70,128.78 Z
           M 725.14,145.00
           C 725.38,142.76 726.09,141.00 727.20,139.05
             734.72,125.76 753.74,138.32 747.47,150.98
             746.37,153.20 744.99,155.09 742.79,156.30
             741.20,157.18 738.82,157.81 737.00,157.84
             733.71,157.89 730.37,155.87 727.00,155.00
             725.93,151.55 724.73,148.71 725.14,145.00 Z
           M 2517.99,205.57
           C 2503.15,209.63 2496.24,186.90 2511.01,181.61
             2527.56,178.88 2531.09,201.99 2517.99,205.57 Z
           M 120.00,206.84
           C 112.35,210.92 103.95,206.40 104.16,198.00
             104.29,192.69 107.88,188.83 112.00,186.02
             125.29,181.70 132.61,200.11 120.00,206.84 Z
           M 281.01,263.48
           C 282.35,265.61 282.02,270.44 282.00,273.00
             281.98,276.33 282.11,279.95 279.43,282.42
             276.69,284.95 273.14,283.72 269.77,288.13
             267.83,290.66 264.80,302.32 263.90,306.00
             263.90,306.00 259.56,326.00 259.56,326.00
             259.56,326.00 257.46,333.00 257.46,333.00
             256.05,339.11 257.99,345.00 248.99,349.62
             240.70,353.88 237.79,351.09 230.00,348.92
             230.00,348.92 200.00,340.54 200.00,340.54
             195.26,339.42 186.79,335.04 182.80,339.32
             179.27,343.11 177.57,354.81 176.68,360.00
             176.68,360.00 173.16,372.00 173.16,372.00
             173.16,372.00 170.44,385.00 170.44,385.00
             168.88,391.50 168.46,399.82 161.00,402.20
             158.91,402.87 149.09,403.73 147.00,403.36
             147.00,403.36 140.00,401.17 140.00,401.17
             140.00,401.17 104.00,390.92 104.00,390.92
             98.06,389.31 85.91,387.27 81.53,383.67
             75.90,379.06 75.90,369.11 82.13,364.85
             84.81,363.03 88.86,362.88 92.00,363.04
             92.00,363.04 116.00,368.59 116.00,368.59
             116.00,368.59 128.00,372.55 128.00,372.55
             128.00,372.55 134.00,373.32 134.00,373.32
             140.73,374.50 143.49,378.12 147.89,375.24
             152.79,372.04 152.98,364.21 154.28,359.09
             154.28,359.09 156.71,352.91 156.71,352.91
             156.71,352.91 159.47,336.28 159.47,336.28
             160.28,333.51 161.05,333.86 162.06,329.00
             163.54,321.87 164.19,314.03 172.00,310.85
             177.57,308.59 184.59,311.06 190.00,312.64
             190.00,312.64 207.00,316.78 207.00,316.78
             207.00,316.78 219.00,320.67 219.00,320.67
             223.95,321.86 232.43,325.73 236.42,321.49
             238.45,319.32 238.94,313.23 240.05,310.00
             240.05,310.00 243.45,301.00 243.45,301.00
             243.45,301.00 247.09,284.00 247.09,284.00
             247.09,284.00 250.29,274.00 250.29,274.00
             251.86,268.10 250.12,261.77 259.04,257.65
             265.01,256.39 277.45,257.81 281.01,263.48 Z
           M 2530.00,396.54
           C 2530.00,396.54 2515.00,391.40 2515.00,391.40
             2515.00,391.40 2502.00,388.72 2502.00,388.72
             2502.00,388.72 2495.00,386.28 2495.00,386.28
             2491.54,385.46 2490.96,386.02 2487.00,384.32
             2474.39,378.90 2474.10,365.42 2483.04,361.23
             2489.18,358.35 2496.87,360.46 2503.00,362.08
             2503.00,362.08 2508.72,363.43 2508.72,363.43
             2508.72,363.43 2514.04,365.59 2514.04,365.59
             2514.04,365.59 2527.00,368.28 2527.00,368.28
             2527.00,368.28 2543.04,372.83 2543.04,372.83
             2549.54,373.19 2549.48,368.89 2555.00,367.00
             2555.00,367.00 2555.00,401.00 2555.00,401.00
             2555.00,401.00 2530.00,396.54 2530.00,396.54 Z
           M 2332.00,415.37
           C 2337.22,416.81 2341.49,416.19 2345.74,421.08
             2349.08,424.93 2349.75,431.19 2348.51,436.00
             2348.51,436.00 2346.41,442.00 2346.41,442.00
             2346.41,442.00 2345.55,448.00 2345.55,448.00
             2345.55,448.00 2342.59,458.00 2342.59,458.00
             2342.59,458.00 2341.59,465.00 2341.59,465.00
             2341.59,465.00 2339.10,472.00 2339.10,472.00
             2339.10,472.00 2334.00,491.00 2334.00,491.00
             2334.00,491.00 2341.00,494.11 2341.00,494.11
             2341.00,494.11 2348.00,495.54 2348.00,495.54
             2348.00,495.54 2366.00,501.36 2366.00,501.36
             2366.00,501.36 2376.72,503.50 2376.72,503.50
             2379.20,504.29 2379.10,504.99 2384.00,506.32
             2387.64,507.30 2393.78,508.02 2396.32,510.43
             2404.39,518.07 2400.08,531.35 2391.99,533.57
             2384.26,535.69 2376.88,530.34 2372.00,529.29
             2372.00,529.29 2366.00,528.54 2366.00,528.54
             2366.00,528.54 2351.00,523.68 2351.00,523.68
             2351.00,523.68 2344.28,522.57 2344.28,522.57
             2344.28,522.57 2330.00,518.41 2330.00,518.41
             2325.39,517.24 2313.50,514.76 2310.39,512.08
             2306.77,508.96 2306.91,504.39 2307.01,500.00
             2307.20,491.81 2308.72,491.62 2310.51,485.00
             2310.51,485.00 2314.49,466.00 2314.49,466.00
             2315.52,462.18 2316.18,462.90 2317.60,456.00
             2318.22,452.99 2321.15,443.52 2319.93,441.30
             2318.64,438.95 2305.94,433.77 2303.00,433.00
             2303.00,433.00 2303.00,410.00 2303.00,410.00
             2317.91,411.97 2316.75,411.15 2332.00,415.37 Z
           M 2487.00,570.49
           C 2479.01,569.50 2473.15,561.84 2476.29,554.00
             2477.15,551.83 2478.42,549.83 2480.13,548.23
             2482.48,546.02 2484.79,545.09 2488.00,545.13
             2494.95,545.22 2495.42,547.48 2497.83,552.72
             2499.63,556.63 2500.97,558.91 2497.00,562.00
             2497.76,568.14 2492.70,571.21 2487.00,570.49 Z
           M 95.40,553.17
           C 99.24,558.56 95.07,567.35 89.91,569.40
             82.12,572.49 73.26,566.83 74.48,558.09
             74.93,554.84 78.51,550.47 81.14,548.74
             86.61,547.34 91.90,548.26 95.40,553.17 Z
           M 200.59,603.00
           C 200.59,603.00 203.29,588.00 203.29,588.00
             203.29,588.00 205.46,582.00 205.46,582.00
             206.64,577.85 205.44,575.09 208.34,570.09
             211.22,565.14 218.47,562.50 223.71,565.27
             225.71,566.33 227.58,568.35 228.70,570.29
             232.56,576.99 229.18,580.73 227.55,587.00
             227.55,587.00 224.61,602.00 224.61,602.00
             224.61,602.00 222.38,609.00 222.38,609.00
             222.38,609.00 220.51,621.00 220.51,621.00
             219.63,626.02 216.30,629.57 218.70,634.94
             220.97,640.02 230.11,641.17 235.00,642.49
             235.00,642.49 251.00,646.55 251.00,646.55
             251.00,646.55 256.83,647.27 256.83,647.27
             256.83,647.27 263.04,649.70 263.04,649.70
             269.39,651.16 272.95,650.12 278.87,655.48
             285.10,661.13 281.87,666.08 281.17,673.00
             281.17,673.00 278.71,690.00 278.71,690.00
             278.71,690.00 276.29,697.00 276.29,697.00
             276.29,697.00 275.37,703.00 275.37,703.00
             274.28,706.98 271.22,717.14 271.68,721.00
             272.53,728.21 278.68,727.03 281.71,731.63
             283.74,734.71 282.98,744.18 282.83,748.13
             282.70,751.27 282.06,752.15 281.00,755.00
             281.00,755.00 264.00,751.46 264.00,751.46
             257.77,750.34 252.73,750.94 247.28,746.06
             242.47,741.76 242.92,732.71 244.54,727.00
             244.54,727.00 246.46,722.00 246.46,722.00
             246.46,722.00 247.24,715.17 247.24,715.17
             247.24,715.17 248.80,710.00 248.80,710.00
             248.80,710.00 249.54,703.91 249.54,703.91
             249.54,703.91 252.42,693.00 252.42,693.00
             253.61,688.60 256.68,682.98 256.14,678.57
             255.27,671.37 249.90,674.30 240.28,670.55
             240.28,670.55 235.91,668.55 235.91,668.55
             235.91,668.55 229.17,667.46 229.17,667.46
             229.17,667.46 224.83,665.54 224.83,665.54
             224.83,665.54 219.00,664.54 219.00,664.54
             219.00,664.54 213.00,662.70 213.00,662.70
             205.12,660.77 193.95,660.83 191.53,651.00
             190.98,648.76 190.94,645.35 191.02,643.01
             191.18,637.77 193.02,636.01 194.25,631.00
             195.52,625.84 194.11,621.18 199.00,618.00
             196.61,609.59 199.15,608.84 200.59,603.00 Z
           M 2302.73,700.00
           C 2303.64,691.37 2299.27,682.12 2306.13,675.11
             2307.83,673.37 2309.63,672.08 2312.00,671.24
             2313.49,671.02 2316.39,670.94 2317.96,671.24
             2322.82,671.40 2331.38,676.92 2335.41,679.81
             2335.41,679.81 2350.96,690.33 2350.96,690.33
             2350.96,690.33 2358.05,695.83 2358.05,695.83
             2361.81,698.42 2369.21,704.72 2373.87,702.49
             2376.53,701.22 2380.77,693.73 2382.70,691.00
             2382.70,691.00 2391.27,677.42 2391.27,677.42
             2391.27,677.42 2398.18,667.93 2398.18,667.93
             2398.18,667.93 2402.00,661.72 2402.00,661.72
             2405.10,657.47 2410.06,650.02 2416.00,650.48
             2425.34,651.21 2428.20,656.11 2435.04,660.58
             2435.04,660.58 2459.73,676.45 2459.73,676.45
             2459.73,676.45 2472.17,686.56 2472.17,686.56
             2479.69,691.00 2489.76,695.82 2488.89,706.00
             2487.99,716.55 2479.63,717.99 2471.00,718.00
             2471.00,718.00 2471.00,715.00 2471.00,715.00
             2462.69,714.40 2459.85,709.55 2453.42,704.90
             2453.42,704.90 2435.05,693.00 2435.05,693.00
             2431.70,690.61 2425.22,685.05 2421.02,684.86
             2417.12,684.68 2412.67,693.90 2410.45,697.00
             2410.45,697.00 2401.29,709.17 2401.29,709.17
             2396.53,716.94 2389.84,731.62 2381.91,736.15
             2374.31,740.49 2368.14,735.88 2362.05,731.59
             2362.05,731.59 2348.87,721.71 2348.87,721.71
             2348.87,721.71 2333.99,711.56 2333.99,711.56
             2330.35,708.81 2324.12,703.31 2319.05,704.19
             2316.05,704.71 2307.99,716.87 2307.00,720.00
             2300.23,717.56 2302.12,705.78 2302.73,700.00 Z
           M 26.00,659.00
           C 26.00,659.00 27.00,665.00 27.00,665.00
             31.99,658.43 39.26,666.41 43.99,669.55
             43.99,669.55 77.38,693.00 77.38,693.00
             80.84,696.40 85.18,701.85 84.49,707.04
             82.81,719.54 70.60,718.49 62.28,713.15
             62.28,713.15 48.44,703.64 48.44,703.64
             41.63,698.60 31.12,689.02 24.00,686.00
             23.06,674.44 21.63,676.39 26.00,665.00
             22.63,663.60 23.12,662.44 23.00,659.00
             23.00,659.00 26.00,659.00 26.00,659.00 Z
           M 2538.49,789.00
           C 2538.99,791.14 2539.10,793.88 2538.49,795.91
             2537.01,798.93 2532.93,801.56 2530.00,802.76
             2519.96,806.88 2512.46,796.44 2514.23,787.04
             2515.00,782.90 2518.72,779.77 2522.17,777.74
             2530.39,775.70 2537.59,780.47 2538.49,789.00 Z
           M 133.99,784.45
           C 136.14,787.98 135.30,798.72 127.00,801.44
             113.54,805.85 109.53,788.97 112.99,783.48
             114.42,781.22 116.66,780.44 119.00,779.57
             124.62,778.56 130.65,778.97 133.99,784.45 Z
           M 41.73,946.40
           C 45.95,943.08 46.19,934.96 47.02,930.00
             47.77,925.46 48.36,925.58 49.37,922.00
             49.37,922.00 51.89,911.42 51.89,911.42
             51.89,911.42 52.63,903.17 52.63,903.17
             52.63,903.17 54.60,899.12 54.60,899.12
             55.58,896.59 54.77,894.64 55.26,892.16
             56.18,887.52 60.45,883.21 65.00,882.19
             72.39,880.53 71.80,882.17 78.01,883.53
             78.01,883.53 87.00,885.26 87.00,885.26
             87.00,885.26 112.00,891.55 112.00,891.55
             112.00,891.55 118.00,893.53 118.00,893.53
             123.80,894.91 121.42,892.99 130.00,895.97
             136.70,898.30 146.44,897.32 148.53,907.04
             149.92,913.55 146.45,922.34 138.98,922.85
             130.15,923.46 119.57,918.73 111.00,916.77
             111.00,916.77 104.28,916.77 104.28,916.77
             104.28,916.77 92.00,912.59 92.00,912.59
             86.07,911.22 87.16,913.02 80.00,910.00
             80.00,910.00 74.17,919.01 74.17,919.01
             71.21,925.72 71.66,931.20 70.38,938.00
             70.38,938.00 68.17,947.00 68.17,947.00
             67.20,952.27 64.78,968.23 62.28,971.98
             56.47,980.68 45.25,977.53 36.83,975.46
             33.45,974.64 31.51,975.80 29.00,973.00
             29.00,973.00 24.00,974.00 24.00,974.00
             24.00,974.00 24.00,949.00 24.00,949.00
             27.87,949.27 38.88,948.64 41.73,946.40 Z
           M 2471.00,882.12
           C 2475.91,881.76 2479.39,883.81 2484.00,884.69
             2484.00,884.69 2504.00,888.74 2504.00,888.74
             2504.00,888.74 2508.91,889.29 2508.91,889.29
             2511.94,889.99 2512.23,891.22 2516.04,891.87
             2516.04,891.87 2536.00,896.41 2536.00,896.41
             2540.67,897.52 2543.40,897.07 2547.79,900.19
             2551.88,903.09 2554.21,912.18 2552.26,916.83
             2551.45,918.77 2549.65,920.47 2547.96,921.66
             2543.88,924.52 2539.74,924.06 2535.00,924.00
             2527.33,923.90 2522.97,921.06 2516.00,919.46
             2516.00,919.46 2497.00,916.22 2497.00,916.22
             2493.78,915.34 2484.33,911.68 2481.56,913.78
             2479.70,915.19 2477.37,926.20 2476.73,929.00
             2476.73,929.00 2474.48,938.91 2474.48,938.91
             2474.48,938.91 2471.96,946.04 2471.96,946.04
             2471.96,946.04 2469.37,962.09 2469.37,962.09
             2469.37,962.09 2467.50,967.00 2467.50,967.00
             2465.36,973.54 2466.54,976.56 2459.00,979.63
             2453.61,981.82 2446.42,979.18 2441.00,978.26
             2441.00,978.26 2435.00,977.51 2435.00,977.51
             2435.00,977.51 2429.00,975.41 2429.00,975.41
             2429.00,975.41 2414.00,972.08 2414.00,972.08
             2406.45,970.09 2401.98,968.04 2394.00,969.00
             2393.33,974.99 2392.16,974.82 2390.84,980.00
             2390.84,980.00 2388.61,994.00 2388.61,994.00
             2388.61,994.00 2385.49,1002.00 2385.49,1002.00
             2385.49,1002.00 2383.16,1018.00 2383.16,1018.00
             2381.97,1023.10 2379.44,1031.91 2374.87,1034.77
             2368.83,1038.57 2361.39,1036.82 2355.00,1035.33
             2355.00,1035.33 2341.00,1032.27 2341.00,1032.27
             2341.00,1032.27 2332.83,1029.47 2332.83,1029.47
             2332.83,1029.47 2322.00,1027.24 2322.00,1027.24
             2315.92,1026.09 2307.81,1025.20 2303.42,1020.27
             2300.32,1016.80 2300.95,1010.44 2301.00,1006.00
             2301.04,1002.88 2301.10,997.14 2304.41,995.58
             2307.28,994.22 2311.98,996.70 2315.01,997.37
             2315.01,997.37 2344.00,1004.49 2344.00,1004.49
             2346.23,1004.95 2354.13,1006.83 2355.71,1005.92
             2359.13,1003.97 2361.63,991.89 2362.30,988.01
             2362.30,988.01 2364.77,979.91 2364.77,979.91
             2364.77,979.91 2367.63,965.00 2367.63,965.00
             2367.63,965.00 2369.55,958.00 2369.55,958.00
             2370.73,952.63 2370.70,945.98 2375.29,942.01
             2379.33,938.52 2387.87,937.35 2393.00,938.27
             2393.00,938.27 2399.00,940.32 2399.00,940.32
             2405.06,942.19 2411.66,943.39 2418.00,943.00
             2422.12,947.09 2428.51,947.40 2434.00,948.46
             2438.55,949.34 2441.68,951.62 2444.87,946.80
             2448.14,941.86 2447.92,934.53 2449.54,929.00
             2449.54,929.00 2452.56,921.00 2452.56,921.00
             2452.56,921.00 2454.40,907.83 2454.40,907.83
             2454.40,907.83 2456.54,901.00 2456.54,901.00
             2456.54,901.00 2456.54,895.00 2456.54,895.00
             2456.54,895.00 2459.00,887.00 2459.00,887.00
             2463.36,885.73 2466.28,882.46 2471.00,882.12 Z
           M 173.77,1041.42
           C 176.92,1033.36 183.27,1032.99 189.99,1029.42
             189.99,1029.42 197.00,1024.82 197.00,1024.82
             197.00,1024.82 207.99,1019.82 207.99,1019.82
             207.99,1019.82 219.17,1013.47 219.17,1013.47
             219.17,1013.47 228.00,1009.78 228.00,1009.78
             228.00,1009.78 236.91,1005.72 236.91,1005.72
             243.48,1002.30 246.47,999.00 255.00,1002.56
             261.45,1005.25 263.47,1014.10 266.86,1019.72
             266.86,1019.72 274.81,1035.96 274.81,1035.96
             278.54,1043.23 282.92,1050.45 282.19,1059.00
             282.19,1059.00 282.19,1089.00 282.19,1089.00
             279.05,1089.58 276.22,1090.05 273.60,1088.09
             271.33,1086.40 268.79,1081.20 267.20,1078.58
             267.20,1078.58 252.35,1049.00 252.35,1049.00
             250.73,1044.27 247.55,1034.89 241.83,1033.70
             238.41,1032.99 227.74,1040.05 224.00,1041.77
             219.12,1044.02 211.65,1046.25 209.00,1051.00
             209.00,1051.00 186.00,1058.85 186.00,1058.85
             186.00,1058.85 175.00,1056.00 175.00,1056.00
             173.78,1051.29 171.88,1046.27 173.77,1041.42 Z
           M 56.83,1093.09
           C 60.54,1099.99 55.60,1109.88 48.00,1111.45
             35.45,1114.04 25.54,1091.83 42.00,1086.53
             48.07,1085.55 53.70,1087.27 56.83,1093.09 Z
           M 2451.96,1088.44
           C 2454.65,1089.58 2456.01,1090.66 2457.70,1093.06
             2467.90,1107.55 2447.74,1123.75 2437.81,1111.62
             2436.72,1110.29 2435.51,1107.64 2434.95,1106.00
             2434.12,1103.55 2433.64,1099.57 2434.31,1097.05
             2435.56,1092.36 2438.66,1093.84 2442.00,1087.00
             2445.87,1087.01 2448.26,1086.87 2451.96,1088.44 Z
           M 146.86,1182.53
           C 150.27,1186.41 149.71,1192.21 150.28,1197.00
             150.28,1197.00 151.17,1212.00 151.17,1212.00
             151.17,1212.00 152.92,1223.00 152.92,1223.00
             152.92,1223.00 152.92,1234.00 152.92,1234.00
             153.05,1237.80 153.27,1245.88 156.48,1248.19
             158.82,1250.20 171.73,1247.96 176.00,1248.19
             176.00,1248.19 198.00,1246.37 198.00,1246.37
             198.00,1246.37 209.00,1246.96 209.00,1246.96
             213.87,1246.77 218.51,1244.84 222.73,1248.51
             226.69,1251.96 226.56,1257.30 227.37,1262.04
             227.37,1262.04 230.58,1301.00 230.58,1301.00
             231.13,1305.19 230.31,1311.61 233.43,1314.65
             235.67,1316.83 239.95,1316.44 243.00,1316.73
             251.74,1317.57 252.59,1315.91 260.00,1315.08
             260.00,1315.08 272.00,1315.08 272.00,1315.08
             284.93,1315.03 281.25,1319.21 281.01,1329.00
             280.93,1332.49 281.77,1337.73 278.69,1340.07
             275.17,1342.73 264.58,1341.95 260.00,1342.00
             260.00,1342.00 231.00,1345.24 231.00,1345.24
             227.03,1345.05 219.44,1346.63 216.29,1345.24
             214.31,1344.76 213.01,1343.30 211.67,1341.74
             205.17,1334.16 207.70,1333.10 206.83,1324.00
             206.83,1324.00 205.16,1309.00 205.16,1309.00
             205.16,1309.00 205.16,1300.00 205.16,1300.00
             205.16,1300.00 203.08,1284.00 203.08,1284.00
             202.60,1281.09 202.26,1276.83 199.69,1274.85
             196.75,1272.86 187.62,1274.21 184.00,1274.85
             184.00,1274.85 166.00,1276.64 166.00,1276.64
             166.00,1276.64 159.00,1276.64 159.00,1276.64
             153.46,1277.01 150.27,1278.77 144.00,1277.67
             138.98,1276.79 133.35,1273.94 131.42,1268.96
             128.67,1261.85 130.41,1255.52 129.87,1249.00
             129.87,1249.00 127.08,1231.00 127.08,1231.00
             127.08,1231.00 127.08,1217.00 127.08,1217.00
             126.93,1213.26 126.40,1208.91 122.81,1206.78
             119.00,1204.51 115.52,1208.39 107.00,1207.91
             107.00,1207.91 98.00,1207.10 98.00,1207.10
             98.00,1207.10 79.00,1209.82 79.00,1209.82
             79.00,1209.82 72.00,1209.10 72.00,1209.10
             67.51,1208.90 63.68,1210.78 59.67,1207.80
             51.34,1201.62 52.92,1187.88 63.00,1184.53
             68.65,1182.65 75.12,1183.01 81.00,1183.00
             91.55,1182.98 93.72,1181.05 102.00,1180.17
             112.02,1179.12 110.38,1182.01 127.00,1178.46
             132.81,1177.66 142.69,1177.80 146.86,1182.53 Z
           M 2537.17,1279.35
           C 2528.80,1275.16 2530.09,1265.73 2530.00,1258.00
             2530.00,1258.00 2528.32,1242.00 2528.32,1242.00
             2529.04,1232.23 2527.75,1230.90 2527.09,1222.00
             2526.77,1217.74 2526.93,1213.38 2522.81,1210.73
             2519.73,1208.67 2514.60,1210.52 2511.09,1210.73
             2511.09,1210.73 2487.00,1212.29 2487.00,1212.29
             2487.00,1212.29 2480.00,1212.29 2480.00,1212.29
             2470.05,1212.66 2460.13,1217.79 2455.44,1204.99
             2454.70,1202.97 2454.19,1201.16 2454.48,1199.00
             2455.70,1189.73 2462.16,1187.89 2470.00,1186.57
             2470.00,1186.57 2498.00,1183.83 2498.00,1183.83
             2498.00,1183.83 2507.91,1182.74 2507.91,1182.74
             2507.91,1182.74 2513.00,1181.15 2513.00,1181.15
             2513.00,1181.15 2526.00,1181.15 2526.00,1181.15
             2532.87,1180.66 2540.16,1178.12 2546.24,1183.19
             2550.47,1186.71 2550.53,1191.99 2551.15,1197.00
             2552.53,1208.05 2552.87,1207.18 2553.00,1219.00
             2553.00,1219.00 2555.11,1243.96 2555.11,1243.96
             2555.11,1243.96 2556.80,1251.09 2556.80,1251.09
             2556.80,1251.09 2556.18,1260.00 2556.18,1260.00
             2556.18,1260.00 2556.96,1267.00 2556.96,1267.00
             2556.96,1267.00 2556.00,1280.00 2556.00,1280.00
             2550.06,1280.02 2542.39,1281.97 2537.17,1279.35 Z
           M 2336.00,1348.83
           C 2336.00,1348.83 2356.00,1348.83 2356.00,1348.83
             2356.00,1348.83 2370.00,1350.39 2370.00,1350.39
             2376.04,1350.32 2387.21,1349.31 2390.91,1355.11
             2392.87,1358.16 2394.25,1369.34 2393.79,1373.00
             2393.79,1373.00 2392.64,1380.00 2392.64,1380.00
             2392.64,1380.00 2392.64,1386.00 2392.64,1386.00
             2392.64,1386.00 2390.92,1396.00 2390.92,1396.00
             2390.92,1396.00 2390.92,1416.00 2390.92,1416.00
             2390.92,1416.00 2388.75,1438.83 2388.75,1438.83
             2387.17,1446.45 2380.85,1451.66 2373.00,1450.89
             2366.76,1450.28 2362.72,1445.02 2362.22,1439.00
             2362.22,1439.00 2365.04,1412.00 2365.04,1412.00
             2365.04,1412.00 2365.04,1398.00 2365.04,1398.00
             2365.04,1398.00 2365.04,1391.00 2365.04,1391.00
             2366.18,1384.10 2368.91,1377.22 2357.00,1376.96
             2357.00,1376.96 2347.00,1376.96 2347.00,1376.96
             2347.00,1376.96 2336.00,1376.00 2336.00,1376.00
             2336.00,1376.00 2322.00,1374.89 2322.00,1374.89
             2316.21,1374.63 2306.96,1376.18 2302.43,1371.57
             2300.02,1369.13 2300.14,1366.16 2299.91,1363.00
             2298.17,1351.29 2299.98,1351.47 2299.91,1341.00
             2299.91,1341.00 2299.91,1316.00 2299.91,1316.00
             2299.91,1316.00 2300.66,1305.00 2300.66,1305.00
             2300.66,1305.00 2300.02,1298.00 2300.02,1298.00
             2300.02,1298.00 2300.02,1282.00 2300.02,1282.00
             2300.00,1280.01 2299.77,1276.19 2301.02,1274.60
             2303.70,1271.21 2319.25,1273.74 2322.37,1276.15
             2326.65,1279.46 2326.94,1284.00 2327.00,1289.00
             2327.00,1289.00 2325.00,1319.00 2325.00,1319.00
             2325.00,1319.00 2325.00,1328.00 2325.00,1328.00
             2324.65,1331.87 2323.85,1333.71 2324.09,1338.00
             2324.09,1338.00 2325.00,1346.00 2325.00,1346.00
             2331.09,1346.63 2331.69,1347.97 2336.00,1348.83 Z
           M 118.82,1411.56
           C 129.78,1418.84 125.30,1431.43 118.00,1434.26
             102.01,1440.47 92.06,1418.06 108.00,1410.70
             111.60,1409.89 115.56,1409.39 118.82,1411.56 Z
           M 2514.00,1438.35
           C 2498.14,1443.34 2495.30,1424.41 2499.95,1417.47
             2501.66,1414.93 2504.30,1413.76 2507.00,1412.65
             2524.01,1409.56 2530.81,1433.06 2514.00,1438.35 Z
           M 279.98,1489.11
           C 281.47,1491.78 281.02,1499.67 281.00,1503.00
             280.99,1505.60 281.20,1509.40 279.26,1511.40
             276.91,1513.83 273.20,1512.13 269.56,1517.06
             269.56,1517.06 262.95,1536.00 262.95,1536.00
             262.95,1536.00 261.49,1544.00 261.49,1544.00
             259.61,1553.15 256.55,1567.30 249.33,1573.66
             244.84,1577.41 239.01,1575.46 234.00,1573.66
             224.85,1570.74 213.71,1567.12 204.00,1567.10
             204.00,1567.10 195.00,1567.10 195.00,1567.10
             190.50,1566.37 187.44,1563.75 183.38,1567.10
             179.34,1571.09 178.85,1576.13 177.66,1581.00
             177.66,1581.00 175.52,1588.00 175.52,1588.00
             175.52,1588.00 170.88,1610.00 170.88,1610.00
             169.34,1617.30 166.35,1625.51 158.00,1626.79
             152.45,1627.63 142.56,1623.55 137.00,1622.17
             137.00,1622.17 114.09,1615.68 114.09,1615.68
             114.09,1615.68 108.83,1613.49 108.83,1613.49
             101.28,1611.23 93.16,1611.05 86.00,1607.38
             73.36,1600.90 73.04,1588.09 79.48,1583.99
             81.17,1582.92 88.79,1582.09 91.00,1582.05
             98.46,1581.94 118.96,1589.24 127.00,1591.66
             131.92,1593.14 141.51,1596.26 145.59,1592.49
             149.34,1589.02 149.96,1581.87 151.15,1577.17
             151.15,1577.17 155.00,1563.00 155.00,1563.00
             155.00,1563.00 158.62,1553.00 158.62,1553.00
             160.04,1546.68 160.86,1538.94 167.32,1535.28
             171.88,1532.70 177.38,1534.81 182.00,1535.90
             182.00,1535.90 191.00,1538.61 191.00,1538.61
             191.00,1538.61 197.00,1539.45 197.00,1539.45
             197.00,1539.45 215.00,1544.56 215.00,1544.56
             218.39,1545.61 227.72,1548.88 230.85,1547.15
             233.61,1545.62 235.21,1537.37 236.50,1534.00
             240.44,1523.68 238.13,1525.60 239.43,1520.28
             239.43,1520.28 243.63,1505.00 243.63,1505.00
             243.63,1505.00 244.29,1499.09 244.29,1499.09
             244.76,1497.06 245.75,1495.69 246.59,1493.83
             250.29,1485.61 250.76,1484.23 260.00,1482.44
             265.52,1481.78 277.01,1483.81 279.98,1489.11 Z
           M 2552.00,1573.00
           C 2552.00,1573.00 2552.00,1576.00 2552.00,1576.00
             2552.00,1576.00 2549.00,1576.00 2549.00,1576.00
             2549.00,1576.00 2549.00,1573.00 2549.00,1573.00
             2549.00,1573.00 2552.00,1573.00 2552.00,1573.00 Z
           M 2551.00,1578.00
           C 2551.00,1578.00 2551.00,1597.00 2551.00,1597.00
             2551.00,1597.00 2547.00,1631.00 2547.00,1631.00
             2547.00,1631.00 2539.96,1628.21 2539.96,1628.21
             2539.96,1628.21 2516.00,1622.37 2516.00,1622.37
             2516.00,1622.37 2505.00,1618.45 2505.00,1618.45
             2505.00,1618.45 2498.00,1617.32 2498.00,1617.32
             2498.00,1617.32 2484.00,1613.45 2484.00,1613.45
             2480.93,1612.77 2478.96,1613.20 2476.02,1611.57
             2463.97,1604.90 2467.49,1583.98 2483.00,1585.17
             2488.88,1585.63 2500.52,1587.37 2506.00,1589.09
             2506.00,1589.09 2515.17,1592.53 2515.17,1592.53
             2515.17,1592.53 2521.00,1593.49 2521.00,1593.49
             2521.00,1593.49 2535.00,1597.20 2535.00,1597.20
             2536.88,1597.47 2538.11,1597.53 2539.73,1596.36
             2542.94,1594.05 2547.43,1582.10 2548.00,1578.00
             2548.00,1578.00 2551.00,1578.00 2551.00,1578.00 Z
           M 832.00,1583.00
           C 831.85,1584.87 831.90,1586.17 830.98,1587.91
             827.56,1594.36 815.78,1602.94 808.30,1598.71
             806.37,1597.62 805.22,1595.85 804.01,1594.07
             803.18,1592.86 801.96,1591.13 801.80,1589.72
             801.14,1587.91 801.75,1584.91 801.80,1583.00
             801.80,1583.00 832.00,1583.00 832.00,1583.00 Z
           M 1143.00,1751.82
           C 1135.06,1752.38 1133.90,1748.97 1129.96,1747.58
             1129.96,1747.58 1122.00,1746.00 1122.00,1746.00
             1113.38,1743.62 1100.01,1741.58 1098.30,1731.00
             1096.90,1722.32 1102.76,1709.63 1104.96,1701.00
             1106.33,1695.65 1103.95,1698.29 1108.12,1685.00
             1109.13,1681.77 1113.36,1669.30 1111.27,1666.72
             1109.58,1664.63 1098.09,1662.27 1095.00,1661.49
             1095.00,1661.49 1082.00,1657.45 1082.00,1657.45
             1082.00,1657.45 1076.00,1656.71 1076.00,1656.71
             1076.00,1656.71 1070.00,1654.54 1070.00,1654.54
             1070.00,1654.54 1064.28,1653.57 1064.28,1653.57
             1060.70,1652.59 1052.37,1648.53 1050.23,1645.54
             1048.49,1643.13 1047.32,1636.98 1047.21,1634.00
             1047.06,1629.89 1048.80,1627.77 1049.82,1624.00
             1049.82,1624.00 1054.55,1607.00 1054.55,1607.00
             1054.55,1607.00 1055.47,1600.28 1055.47,1600.28
             1055.47,1600.28 1057.31,1595.91 1057.31,1595.91
             1058.63,1591.84 1057.34,1588.02 1060.80,1584.48
             1063.64,1581.59 1066.50,1582.46 1070.00,1582.68
             1076.50,1583.09 1086.17,1578.62 1086.94,1588.00
             1087.26,1591.91 1082.93,1609.09 1081.77,1614.00
             1080.81,1618.05 1077.77,1621.76 1080.74,1625.77
             1083.14,1629.02 1093.67,1630.25 1098.00,1631.29
             1098.00,1631.29 1113.00,1636.03 1113.00,1636.03
             1113.00,1636.03 1119.72,1637.45 1119.72,1637.45
             1119.72,1637.45 1124.09,1639.15 1124.09,1639.15
             1124.09,1639.15 1130.00,1639.80 1130.00,1639.80
             1134.42,1641.09 1140.86,1645.84 1142.89,1650.04
             1146.21,1656.91 1143.47,1661.24 1141.73,1668.00
             1141.73,1668.00 1133.87,1700.00 1133.87,1700.00
             1133.00,1703.61 1129.85,1712.64 1131.41,1715.77
             1133.04,1719.07 1136.99,1718.74 1140.00,1719.68
             1140.00,1719.68 1147.00,1722.33 1147.00,1722.33
             1147.00,1722.33 1175.00,1730.16 1175.00,1730.16
             1180.33,1731.48 1188.64,1733.94 1192.15,1738.46
             1194.29,1741.22 1194.84,1747.54 1195.00,1751.00
             1195.00,1751.00 1143.00,1751.82 1143.00,1751.82 Z
           M 513.79,1621.00
           C 513.79,1621.00 510.01,1595.00 510.01,1595.00
             509.95,1592.16 509.75,1586.89 511.82,1584.74
             513.85,1582.64 518.28,1583.00 521.00,1583.00
             525.13,1582.99 532.48,1582.17 535.42,1585.43
             538.60,1588.96 536.99,1594.71 537.78,1599.00
             537.78,1599.00 541.25,1624.00 541.25,1624.00
             542.57,1631.61 544.82,1640.70 539.92,1647.67
             535.57,1653.85 528.24,1653.25 521.83,1653.96
             521.83,1653.96 492.00,1658.99 492.00,1658.99
             484.39,1659.18 474.41,1658.82 474.88,1669.00
             474.88,1669.00 478.58,1694.00 478.58,1694.00
             478.58,1694.00 479.51,1707.00 479.51,1707.00
             481.48,1716.81 484.96,1726.30 475.91,1733.71
             471.09,1737.66 466.63,1736.62 461.00,1737.28
             461.00,1737.28 443.00,1739.29 443.00,1739.29
             443.00,1739.29 429.00,1741.87 429.00,1741.87
             421.84,1742.88 414.87,1742.87 411.00,1750.00
             411.00,1750.00 385.00,1749.00 385.00,1749.00
             385.48,1741.89 381.35,1736.05 384.19,1729.00
             389.97,1714.59 399.18,1717.98 409.00,1716.57
             409.00,1716.57 431.00,1712.96 431.00,1712.96
             436.38,1712.70 448.07,1712.23 451.40,1707.78
             454.31,1703.87 451.10,1695.49 450.26,1691.00
             448.12,1679.53 449.67,1678.73 448.71,1671.00
             448.71,1671.00 445.11,1652.00 445.11,1652.00
             444.59,1645.51 448.08,1639.05 454.00,1636.16
             459.70,1633.38 468.09,1634.71 474.00,1633.74
             474.00,1633.74 481.00,1631.96 481.00,1631.96
             488.74,1630.35 504.30,1628.01 512.00,1628.00
             512.00,1628.00 513.79,1621.00 513.79,1621.00 Z
           M 1371.24,1593.00
           C 1371.24,1593.00 1367.24,1610.00 1367.24,1610.00
             1365.95,1616.80 1365.25,1624.89 1358.83,1629.01
             1352.95,1632.78 1343.32,1630.18 1337.17,1628.04
             1337.17,1628.04 1330.96,1625.32 1330.96,1625.32
             1330.96,1625.32 1318.00,1622.38 1318.00,1622.38
             1318.00,1622.38 1303.00,1617.49 1303.00,1617.49
             1303.00,1617.49 1296.28,1616.50 1296.28,1616.50
             1296.28,1616.50 1290.96,1614.13 1290.96,1614.13
             1283.79,1611.73 1277.02,1612.40 1271.70,1605.68
             1266.98,1599.71 1267.94,1588.77 1275.00,1585.17
             1277.99,1583.65 1282.65,1583.99 1286.00,1584.00
             1298.75,1584.02 1321.64,1592.64 1335.00,1595.99
             1345.47,1598.62 1341.42,1589.49 1346.68,1584.74
             1349.01,1582.64 1353.05,1583.00 1356.00,1583.00
             1356.00,1583.00 1371.24,1583.00 1371.24,1583.00
             1371.24,1583.00 1371.24,1593.00 1371.24,1593.00 Z
           M 1727.00,1586.00
           C 1730.39,1586.02 1733.99,1585.79 1735.98,1589.15
             1735.98,1589.15 1738.57,1603.00 1738.57,1603.00
             1738.57,1603.00 1741.28,1628.00 1741.28,1628.00
             1742.71,1636.52 1746.65,1642.93 1740.16,1650.78
             1737.13,1654.45 1732.33,1654.87 1728.00,1656.00
             1716.41,1659.02 1704.86,1659.97 1693.00,1660.92
             1688.07,1661.31 1677.87,1662.26 1674.64,1666.41
             1672.23,1669.51 1675.56,1681.05 1676.42,1685.00
             1676.42,1685.00 1680.17,1716.00 1680.17,1716.00
             1680.92,1721.22 1683.15,1725.51 1680.97,1730.90
             1677.56,1739.32 1665.61,1740.24 1658.00,1740.71
             1658.00,1740.71 1639.00,1743.84 1639.00,1743.84
             1639.00,1743.84 1613.00,1747.00 1613.00,1747.00
             1613.00,1747.00 1614.00,1752.00 1614.00,1752.00
             1614.00,1752.00 1585.00,1752.00 1585.00,1752.00
             1584.97,1744.29 1581.75,1738.69 1584.48,1731.00
             1585.90,1727.00 1588.98,1723.32 1593.00,1721.73
             1596.05,1720.53 1604.35,1720.10 1608.00,1719.57
             1608.00,1719.57 1634.00,1715.29 1634.00,1715.29
             1639.26,1714.60 1646.78,1716.30 1650.60,1711.66
             1652.62,1708.81 1651.40,1705.20 1650.60,1702.00
             1650.05,1697.98 1649.05,1690.02 1649.00,1686.00
             1648.90,1677.01 1648.13,1672.77 1646.11,1664.00
             1645.06,1659.41 1643.01,1652.93 1644.50,1648.28
             1649.35,1633.17 1670.57,1636.26 1683.00,1634.71
             1683.00,1634.71 1699.00,1631.58 1699.00,1631.58
             1702.40,1630.83 1710.49,1630.03 1712.52,1627.69
             1715.39,1624.37 1712.75,1617.84 1711.89,1614.00
             1711.89,1614.00 1709.34,1592.00 1709.34,1592.00
             1709.34,1592.00 1710.00,1586.00 1710.00,1586.00
             1716.76,1585.17 1720.34,1585.95 1727.00,1586.00 Z
           M 2298.18,1730.00
           C 2298.15,1724.86 2303.40,1707.55 2305.18,1702.00
             2305.18,1702.00 2308.51,1687.00 2308.51,1687.00
             2309.31,1684.22 2312.79,1674.36 2312.58,1672.02
             2312.01,1665.59 2301.86,1665.04 2297.17,1663.85
             2297.17,1663.85 2264.00,1654.92 2264.00,1654.92
             2258.21,1653.39 2252.75,1652.57 2250.34,1645.91
             2248.34,1640.37 2250.12,1635.38 2251.41,1630.00
             2251.41,1630.00 2257.30,1606.00 2257.30,1606.00
             2257.30,1606.00 2259.37,1600.00 2259.37,1600.00
             2260.64,1595.39 2259.88,1587.30 2267.02,1586.45
             2268.69,1586.02 2270.34,1586.39 2272.00,1586.45
             2275.65,1586.70 2281.72,1585.28 2284.81,1586.45
             2290.44,1589.00 2287.86,1594.81 2286.51,1599.00
             2286.51,1599.00 2280.52,1621.00 2280.52,1621.00
             2279.88,1624.09 2279.83,1627.16 2282.31,1629.49
             2285.12,1632.12 2295.98,1634.38 2300.00,1635.26
             2300.00,1635.26 2307.00,1637.59 2307.00,1637.59
             2307.00,1637.59 2314.00,1638.75 2314.00,1638.75
             2314.00,1638.75 2323.00,1641.58 2323.00,1641.58
             2329.59,1643.37 2336.34,1644.11 2341.15,1649.52
             2348.56,1657.20 2343.02,1662.72 2341.15,1669.00
             2341.15,1669.00 2338.52,1679.00 2338.52,1679.00
             2338.52,1679.00 2332.00,1703.00 2332.00,1703.00
             2331.40,1705.77 2328.90,1712.82 2329.56,1714.95
             2330.77,1718.83 2338.38,1720.98 2342.00,1722.03
             2342.00,1722.03 2348.00,1723.26 2348.00,1723.26
             2348.00,1723.26 2355.00,1725.80 2355.00,1725.80
             2355.00,1725.80 2378.00,1731.62 2378.00,1731.62
             2380.59,1732.44 2387.17,1735.74 2384.87,1739.41
             2383.25,1741.98 2370.28,1741.83 2367.00,1742.30
             2359.91,1743.31 2361.61,1743.99 2353.00,1744.00
             2353.00,1744.00 2323.00,1744.00 2323.00,1744.00
             2312.44,1744.13 2316.70,1745.03 2304.00,1744.00
             2302.35,1739.11 2298.22,1735.35 2298.18,1730.00 Z
           M 2013.09,1603.70
           C 2005.13,1601.99 1996.47,1587.26 2010.00,1587.00
             2010.00,1587.00 2032.00,1587.00 2032.00,1587.00
             2032.00,1587.00 2033.00,1593.00 2033.00,1593.00
             2026.76,1597.20 2021.65,1605.54 2013.09,1603.70 Z
           M 712.54,1615.75
           C 713.95,1616.85 715.37,1618.68 716.32,1620.02
             722.22,1628.33 719.50,1639.24 709.00,1641.61
             692.97,1645.23 684.55,1620.72 703.00,1615.75
             705.85,1615.06 709.94,1614.41 712.54,1615.75 Z
           M 1919.11,1625.17
           C 1923.25,1631.18 1919.99,1642.28 1911.00,1644.47
             1892.15,1649.05 1887.12,1625.27 1903.00,1619.56
             1909.64,1618.39 1914.98,1619.17 1919.11,1625.17 Z
           M 325.41,1671.17
           C 327.71,1676.98 324.63,1687.00 318.96,1689.98
             312.49,1693.37 303.22,1687.54 301.43,1681.00
             299.35,1673.38 302.85,1668.13 309.00,1664.02
             315.31,1661.91 322.77,1664.53 325.41,1671.17 Z
           M 1516.96,1666.62
           C 1519.19,1667.45 1520.63,1669.12 1522.18,1670.85
             1523.61,1672.46 1524.99,1673.96 1525.57,1676.09
             1527.35,1682.69 1521.31,1692.04 1515.00,1694.07
             1508.25,1696.24 1499.01,1688.57 1498.19,1682.00
             1497.28,1674.71 1501.56,1669.38 1508.00,1666.62
             1510.85,1666.06 1514.14,1665.52 1516.96,1666.62 Z
           M 702.69,1738.81
           C 699.92,1736.39 690.42,1738.17 687.00,1738.81
             687.00,1738.81 678.00,1740.92 678.00,1740.92
             678.00,1740.92 666.00,1744.55 666.00,1744.55
             666.00,1744.55 657.00,1745.68 657.00,1745.68
             653.72,1746.41 651.46,1747.62 648.00,1747.89
             643.81,1748.23 640.55,1747.26 636.91,1745.05
             627.94,1739.38 629.93,1729.68 636.91,1723.04
             642.03,1718.03 645.57,1718.79 652.00,1717.95
             652.00,1717.95 676.00,1713.58 676.00,1713.58
             676.00,1713.58 704.00,1707.13 704.00,1707.13
             708.25,1706.06 715.49,1704.00 719.72,1705.52
             725.75,1707.69 727.87,1713.45 729.42,1719.00
             731.27,1725.59 733.82,1737.29 733.82,1744.00
             733.82,1744.00 733.00,1752.00 733.00,1752.00
             733.00,1752.00 707.00,1751.00 707.00,1751.00
             706.32,1747.97 704.98,1740.46 702.69,1738.81 Z
           M 1920.00,1749.99
           C 1916.85,1749.91 1911.05,1749.53 1908.63,1747.41
             1906.51,1745.54 1904.72,1740.40 1900.83,1739.72
             1897.93,1739.21 1893.97,1741.82 1890.00,1742.62
             1890.00,1742.62 1884.00,1743.21 1884.00,1743.21
             1884.00,1743.21 1873.00,1745.72 1873.00,1745.72
             1868.72,1746.97 1867.49,1748.88 1864.00,1749.85
             1864.00,1749.85 1846.00,1749.85 1846.00,1749.85
             1838.67,1749.99 1834.14,1748.46 1833.20,1740.00
             1832.53,1733.93 1836.49,1726.26 1842.04,1723.65
             1848.02,1720.83 1861.24,1719.97 1867.91,1718.74
             1867.91,1718.74 1873.08,1717.05 1873.08,1717.05
             1873.08,1717.05 1879.09,1717.05 1879.09,1717.05
             1879.09,1717.05 1890.00,1713.84 1890.00,1713.84
             1890.00,1713.84 1908.00,1710.21 1908.00,1710.21
             1914.09,1708.92 1920.39,1708.03 1925.77,1712.05
             1929.08,1714.52 1929.18,1718.29 1930.15,1722.00
             1934.04,1736.72 1934.00,1733.49 1934.00,1749.00
             1934.00,1749.00 1920.00,1749.99 1920.00,1749.99 Z
           M 957.00,1746.89
           C 953.78,1747.70 949.27,1748.24 946.10,1746.89
             943.47,1745.91 942.54,1744.30 941.11,1741.98
             935.25,1732.46 941.16,1723.47 951.00,1720.53
             967.09,1718.31 972.09,1742.67 957.00,1746.89 Z
           M 2143.70,1745.01
           C 2142.05,1743.76 2141.39,1740.94 2141.20,1739.00
             2139.83,1725.42 2154.72,1717.01 2163.77,1728.30
             2167.69,1733.18 2165.26,1740.24 2165.00,1746.00
             2161.29,1746.00 2145.97,1746.72 2143.70,1745.01 Z" />
</svg>
