<?xml version="1.0" encoding="UTF-8" standalone="no"?>
<!DOCTYPE svg PUBLIC "-//W3C//DTD SVG 20010904//EN"
              "http://www.w3.org/TR/2001/REC-SVG-20010904/DTD/svg10.dtd">

<svg xmlns="http://www.w3.org/2000/svg"
     width="100%" height="100%"
     viewBox="0 0 2312 1638">
  <path id="Selection"
        fill="#1743bc" stroke="#1743bc" stroke-width="1"
        d="M 1089.00,15.00
           C 1089.00,15.00 1089.96,26.00 1089.96,26.00
             1089.96,26.00 1089.09,37.00 1089.09,37.00
             1089.09,37.00 1089.87,45.00 1089.87,45.00
             1089.87,45.00 1089.32,53.00 1089.32,53.00
             1089.32,53.00 1089.96,62.00 1089.96,62.00
             1089.96,62.00 1089.08,71.00 1089.08,71.00
             1089.08,71.00 1089.96,80.00 1089.96,80.00
             1089.96,80.00 1089.34,89.00 1089.34,89.00
             1089.34,89.00 1089.89,101.00 1089.89,101.00
             1089.89,101.00 1089.89,110.58 1089.89,110.58
             1089.88,117.77 1090.72,124.35 1082.98,128.27
             1079.66,130.02 1077.79,129.92 1074.58,128.27
             1066.48,123.94 1066.00,117.40 1066.02,109.01
             1066.03,105.82 1065.55,102.20 1068.00,100.00
             1065.14,90.66 1066.65,89.56 1066.67,81.00
             1066.67,81.00 1066.09,69.00 1066.09,69.00
             1066.09,69.00 1066.66,61.00 1066.66,61.00
             1066.66,61.00 1066.14,54.00 1066.14,54.00
             1066.14,54.00 1066.14,25.72 1066.14,25.72
             1066.14,25.72 1067.00,14.00 1067.00,14.00
             1067.00,14.00 1089.00,15.00 1089.00,15.00 Z
           M 2179.09,35.00
           C 2179.09,35.00 2179.96,43.00 2179.96,43.00
             2179.96,43.00 2179.18,55.00 2179.18,55.00
             2179.18,55.00 2179.68,64.00 2179.68,64.00
             2179.68,64.00 2179.68,75.00 2179.68,75.00
             2179.68,75.00 2179.68,86.00 2179.68,86.00
             2179.68,86.00 2179.68,95.00 2179.68,95.00
             2179.68,95.00 2179.68,105.00 2179.68,105.00
             2179.68,105.00 2179.68,115.00 2179.68,115.00
             2179.73,119.01 2181.67,121.60 2179.68,125.58
             2178.65,127.53 2175.42,131.91 2173.56,132.98
             2169.64,135.23 2161.65,133.51 2159.05,129.86
             2155.40,124.76 2155.99,118.89 2156.13,113.00
             2156.13,113.00 2156.13,102.00 2156.13,102.00
             2156.13,102.00 2155.45,92.00 2155.45,92.00
             2155.45,92.00 2156.07,82.83 2156.07,82.83
             2156.07,82.83 2156.07,39.00 2156.07,39.00
             2156.08,33.45 2156.72,34.04 2157.01,30.72
             2157.01,30.72 2157.01,24.00 2157.01,24.00
             2157.04,21.87 2156.95,19.37 2158.58,17.75
             2163.19,13.18 2173.77,18.60 2179.09,19.00
             2180.96,29.92 2179.18,27.05 2179.09,35.00 Z
           M 647.63,109.54
           C 647.63,109.54 647.63,121.58 647.63,121.58
             647.63,121.58 647.63,130.00 647.63,130.00
             647.63,130.00 647.63,137.00 647.63,137.00
             647.63,137.00 647.63,144.28 647.63,144.28
             647.90,147.28 648.49,151.22 646.40,153.69
             643.99,156.54 641.11,155.53 638.00,155.15
             633.93,155.05 629.04,156.83 626.58,155.15
             622.63,151.99 623.91,141.25 624.18,137.00
             624.18,137.00 624.18,131.09 624.18,131.09
             624.18,131.09 624.18,116.58 624.18,116.58
             624.18,116.58 623.23,108.00 623.23,108.00
             623.23,108.00 623.90,95.00 623.90,95.00
             623.90,95.00 622.39,86.00 622.39,86.00
             622.45,82.77 626.61,73.57 621.23,67.30
             617.27,62.67 603.00,63.93 597.00,63.94
             597.00,63.94 589.00,63.15 589.00,63.15
             589.00,63.15 585.00,63.15 585.00,63.15
             585.00,63.15 577.00,63.15 577.00,63.15
             577.00,63.15 562.58,63.15 562.58,63.15
             562.58,63.15 547.83,63.78 547.83,63.78
             547.83,63.78 540.00,62.79 540.00,62.79
             540.00,62.79 529.00,62.79 529.00,62.79
             524.95,62.08 519.70,61.17 516.14,63.74
             511.06,67.41 513.33,72.94 513.91,78.00
             513.91,78.00 513.91,85.00 513.91,85.00
             513.91,85.00 514.69,104.00 514.69,104.00
             514.69,104.00 514.69,126.00 514.69,126.00
             514.69,126.00 514.69,142.00 514.69,142.00
             514.95,151.58 514.04,154.21 504.00,153.99
             501.59,153.93 496.45,153.61 494.60,152.02
             492.87,150.53 493.10,148.05 492.92,146.00
             492.92,146.00 491.76,132.00 491.76,132.00
             491.76,132.00 491.76,119.00 491.76,119.00
             491.76,119.00 491.00,61.00 491.00,61.00
             491.07,53.78 489.42,44.61 495.44,39.51
             499.78,35.84 504.56,38.02 509.58,37.89
             509.58,37.89 533.00,37.89 533.00,37.89
             533.00,37.89 545.00,37.89 545.00,37.89
             545.00,37.89 565.00,39.11 565.00,39.11
             565.00,39.11 582.00,38.34 582.00,38.34
             582.00,38.34 601.00,39.58 601.00,39.58
             601.00,39.58 615.00,39.58 615.00,39.58
             621.44,39.93 636.54,38.96 641.46,42.56
             646.36,46.14 645.72,52.73 646.14,58.00
             647.02,64.90 646.07,64.71 646.14,71.00
             645.89,81.11 647.45,79.95 647.54,83.00
             647.54,83.00 646.84,88.09 646.84,88.09
             646.59,94.77 647.86,101.46 646.00,108.00
             646.47,108.46 646.88,108.26 647.63,109.54 Z
           M 1593.40,149.01
           C 1593.10,151.97 1593.97,157.32 1592.67,159.49
             1590.25,162.94 1572.95,164.60 1570.00,159.49
             1569.03,157.94 1570.00,149.76 1570.00,147.00
             1570.00,147.00 1570.00,97.00 1570.00,97.00
             1570.00,97.00 1570.00,86.00 1570.00,86.00
             1570.00,86.00 1570.00,64.00 1570.00,64.00
             1570.00,61.86 1569.89,58.00 1570.00,56.04
             1571.05,53.78 1572.05,52.64 1573.64,51.01
             1579.14,45.40 1585.38,47.64 1592.96,47.30
             1592.96,47.30 1640.00,47.30 1640.00,47.30
             1640.00,47.30 1649.00,47.30 1649.00,47.30
             1649.00,47.30 1658.00,47.82 1658.00,47.82
             1658.00,47.82 1666.00,47.04 1666.00,47.04
             1666.00,47.04 1675.00,47.66 1675.00,47.66
             1675.00,47.66 1684.00,47.01 1684.00,47.01
             1684.00,47.01 1694.00,47.82 1694.00,47.82
             1694.00,47.82 1701.00,47.09 1701.00,47.09
             1701.00,47.09 1710.00,47.69 1710.00,47.69
             1713.75,47.73 1716.73,46.51 1719.58,47.69
             1726.60,51.29 1726.55,56.41 1727.42,63.00
             1727.97,71.56 1728.20,80.40 1727.42,89.00
             1727.42,89.00 1727.42,97.00 1727.42,97.00
             1727.42,97.00 1727.42,108.00 1727.42,108.00
             1727.42,108.00 1727.42,114.99 1727.42,114.99
             1727.42,114.99 1727.42,131.01 1727.42,131.01
             1727.42,131.01 1727.42,142.00 1727.42,142.00
             1727.42,142.00 1727.42,151.00 1727.42,151.00
             1727.32,153.57 1727.15,159.65 1725.40,161.40
             1722.53,164.27 1714.71,162.41 1711.00,162.08
             1709.02,161.91 1706.40,162.13 1705.02,160.40
             1703.77,158.83 1703.16,151.14 1703.32,149.00
             1703.32,149.00 1704.30,134.00 1704.30,134.00
             1704.30,134.00 1703.70,116.09 1703.70,116.09
             1703.70,116.09 1703.70,81.00 1703.70,81.00
             1703.70,81.00 1702.00,72.57 1702.00,72.57
             1702.00,72.57 1685.00,72.57 1685.00,72.57
             1685.00,72.57 1675.00,72.57 1675.00,72.57
             1675.00,72.57 1664.00,72.57 1664.00,72.57
             1660.83,72.56 1659.59,73.11 1656.00,72.57
             1656.00,72.57 1648.00,72.57 1648.00,72.57
             1648.00,72.57 1639.00,72.57 1639.00,72.57
             1628.17,71.87 1617.83,71.87 1607.00,72.57
             1607.00,72.57 1598.05,72.57 1598.05,72.57
             1591.20,73.88 1593.72,83.10 1593.68,88.00
             1593.68,88.00 1593.68,115.82 1593.68,115.82
             1593.30,117.60 1592.96,117.66 1592.00,119.00
             1594.96,123.19 1592.80,125.76 1593.25,131.00
             1593.20,132.91 1593.90,135.97 1593.25,137.68
             1592.95,139.20 1592.52,139.24 1592.00,140.00
             1594.75,142.43 1593.75,145.61 1593.40,149.01 Z
           M 200.00,69.73
           C 200.00,69.73 209.00,69.73 209.00,69.73
             209.00,69.73 220.00,70.25 220.00,70.25
             220.00,70.25 229.00,70.25 229.00,70.25
             229.00,70.25 238.00,70.82 238.00,70.82
             238.00,70.82 248.00,70.09 248.00,70.09
             248.00,70.09 256.00,70.92 256.00,70.92
             256.00,70.92 267.00,70.09 267.00,70.09
             267.00,70.09 273.58,71.31 273.58,71.31
             273.58,71.31 293.00,71.31 293.00,71.31
             293.00,71.31 302.00,71.31 302.00,71.31
             302.00,71.31 312.00,71.31 312.00,71.31
             318.43,71.20 326.02,70.17 331.79,74.09
             337.22,77.77 339.31,89.26 332.67,94.26
             329.72,96.49 325.50,95.93 322.00,96.01
             322.00,96.01 314.00,96.66 314.00,96.66
             314.00,96.66 303.00,96.00 303.00,96.00
             303.00,96.00 242.00,94.76 242.00,94.76
             242.00,94.76 234.00,94.04 234.00,94.04
             229.35,93.86 227.97,94.54 224.00,94.82
             224.00,94.82 211.00,94.04 211.00,94.04
             211.00,94.04 203.00,94.90 203.00,94.90
             203.00,94.90 189.04,93.85 189.04,93.85
             180.24,92.42 175.06,75.65 188.05,69.73
             188.05,69.73 200.00,69.73 200.00,69.73 Z
           M 1288.00,83.04
           C 1288.00,83.04 1299.00,83.91 1299.00,83.91
             1299.00,83.91 1305.00,83.34 1305.00,83.34
             1305.00,83.34 1314.00,83.96 1314.00,83.96
             1314.00,83.96 1323.00,83.08 1323.00,83.08
             1323.00,83.08 1331.28,84.08 1331.28,84.08
             1334.47,84.02 1336.88,82.80 1342.00,83.09
             1342.00,83.09 1350.00,83.87 1350.00,83.87
             1350.00,83.87 1360.00,83.04 1360.00,83.04
             1360.00,83.04 1369.00,83.92 1369.00,83.92
             1369.00,83.92 1378.00,83.32 1378.00,83.32
             1381.20,83.56 1382.35,84.10 1386.00,84.04
             1395.94,83.38 1392.61,83.18 1403.00,84.04
             1403.00,84.04 1409.00,84.04 1409.00,84.04
             1417.48,86.46 1422.08,101.34 1409.91,108.00
             1405.90,109.96 1401.23,108.53 1397.00,108.00
             1397.00,108.00 1386.00,108.92 1386.00,108.92
             1386.00,108.92 1376.00,108.03 1376.00,108.03
             1376.00,108.03 1368.00,108.66 1368.00,108.66
             1368.00,108.66 1359.00,108.09 1359.00,108.09
             1359.00,108.09 1351.00,108.92 1351.00,108.92
             1351.00,108.92 1342.00,108.37 1342.00,108.37
             1342.00,108.37 1330.83,108.37 1330.83,108.37
             1330.83,108.37 1322.00,108.37 1322.00,108.37
             1319.16,108.38 1318.17,108.91 1315.00,108.37
             1315.00,108.37 1303.00,108.37 1303.00,108.37
             1303.00,108.37 1296.00,108.37 1296.00,108.37
             1296.00,108.37 1288.00,108.37 1288.00,108.37
             1281.43,108.65 1274.28,110.04 1268.13,106.55
             1262.24,103.22 1260.10,93.12 1263.74,88.37
             1265.32,86.31 1267.73,85.12 1270.00,84.01
             1270.00,84.01 1288.00,83.04 1288.00,83.04 Z
           M 788.69,130.00
           C 785.53,124.74 781.93,120.41 785.43,114.00
             790.19,105.28 800.62,107.12 809.00,107.01
             809.00,107.01 848.00,108.01 848.00,108.01
             848.00,108.01 859.00,108.66 859.00,108.66
             859.00,108.66 871.00,108.01 871.00,108.01
             871.00,108.01 919.00,108.01 919.00,108.01
             919.00,108.01 930.00,108.66 930.00,108.66
             930.00,108.66 941.00,108.00 941.00,108.00
             943.61,113.61 947.14,114.84 947.58,118.17
             948.72,126.60 936.76,138.88 936.00,150.00
             936.00,150.00 927.82,157.98 927.82,157.98
             927.82,157.98 914.00,159.00 914.00,159.00
             914.00,159.00 907.02,157.40 907.02,157.40
             907.02,157.40 906.00,150.00 906.00,150.00
             906.00,150.00 909.00,150.00 909.00,150.00
             909.16,143.67 910.60,140.59 916.00,137.00
             906.86,130.26 898.71,131.95 888.00,132.00
             888.00,132.00 876.00,132.68 876.00,132.68
             876.00,132.68 870.00,132.04 870.00,132.04
             870.00,132.04 858.00,132.68 858.00,132.68
             858.00,132.68 849.00,132.02 849.00,132.02
             849.00,132.02 841.00,132.66 841.00,132.66
             841.00,132.66 834.00,132.02 834.00,132.02
             834.00,132.02 817.00,132.02 817.00,132.02
             817.00,132.02 829.00,158.00 829.00,158.00
             823.67,158.00 808.35,158.85 804.22,156.41
             799.73,153.76 801.84,150.41 796.00,147.00
             795.48,143.66 790.54,133.09 788.69,130.00 Z
           M 1908.42,152.99
           C 1909.33,154.50 1911.65,158.19 1911.47,159.94
             1911.22,162.41 1908.00,163.17 1906.00,163.52
             1903.77,163.90 1887.99,162.99 1886.47,161.98
             1884.50,160.66 1881.50,153.99 1879.79,151.42
             1876.01,145.76 1875.77,144.75 1872.73,139.00
             1872.73,139.00 1867.87,129.91 1867.87,129.91
             1865.98,124.55 1868.90,116.81 1873.33,113.42
             1877.46,110.26 1880.41,111.61 1885.00,111.91
             1891.07,112.32 1895.99,111.29 1902.00,113.00
             1904.46,110.50 1910.48,111.97 1914.00,112.00
             1914.00,112.00 1940.00,112.68 1940.00,112.68
             1940.00,112.68 1949.00,112.09 1949.00,112.09
             1949.00,112.09 1974.42,112.09 1974.42,112.09
             1974.42,112.09 1993.00,111.51 1993.00,111.51
             1993.00,111.51 2017.04,112.05 2017.04,112.05
             2026.09,111.83 2024.79,113.26 2032.00,115.00
             2032.79,118.26 2034.75,121.78 2034.62,125.00
             2034.39,130.50 2026.75,141.17 2024.15,147.00
             2022.47,150.79 2017.82,160.86 2014.54,163.24
             2011.49,164.95 2006.41,163.34 2003.00,163.24
             2000.15,163.34 1994.87,164.68 1992.33,163.24
             1989.84,162.15 1990.52,159.24 1991.25,157.09
             1992.73,152.71 1996.66,144.63 2001.00,143.00
             2000.74,141.44 2000.75,139.91 1999.40,138.77
             1998.27,137.81 1986.97,137.18 1985.00,137.32
             1981.01,137.62 1979.43,138.15 1975.00,137.96
             1975.00,137.96 1967.00,137.18 1967.00,137.18
             1967.00,137.18 1956.00,137.96 1956.00,137.96
             1956.00,137.96 1947.00,137.08 1947.00,137.08
             1947.00,137.08 1939.00,137.77 1939.00,137.77
             1939.00,137.77 1930.00,137.77 1930.00,137.77
             1930.00,137.77 1921.00,137.77 1921.00,137.77
             1908.03,137.46 1914.12,136.34 1900.00,139.00
             1900.00,139.00 1908.42,152.99 1908.42,152.99 Z
           M 197.00,155.91
           C 181.46,156.76 179.22,140.83 184.56,134.94
             189.58,129.39 199.10,130.95 206.00,131.16
             206.00,131.16 226.00,131.16 226.00,131.16
             226.00,131.16 238.00,131.16 238.00,131.16
             238.00,131.16 251.00,132.00 251.00,132.00
             251.00,132.00 291.00,132.00 291.00,132.00
             291.00,132.00 301.00,132.66 301.00,132.66
             301.00,132.66 312.00,132.01 312.00,132.01
             312.00,132.01 320.00,132.66 320.00,132.66
             325.99,132.66 328.34,130.28 333.90,135.05
             336.06,136.90 337.06,138.28 338.06,141.01
             338.44,142.80 339.01,145.95 338.06,147.71
             337.14,150.12 334.22,149.98 332.00,150.08
             320.49,151.86 322.20,150.01 313.00,150.08
             313.00,150.08 304.00,150.08 304.00,150.08
             304.00,150.08 294.00,150.08 294.00,150.08
             294.00,150.08 287.28,150.08 287.28,150.08
             287.28,150.08 282.91,150.08 282.91,150.08
             282.91,150.08 269.00,150.08 269.00,150.08
             269.00,150.08 254.00,150.08 254.00,150.08
             245.37,150.42 239.17,144.41 234.00,155.00
             234.00,155.00 197.00,155.91 197.00,155.91 Z
           M 1283.00,143.72
           C 1283.00,143.72 1293.00,143.72 1293.00,143.72
             1298.47,143.96 1301.34,144.31 1307.00,143.72
             1307.00,143.72 1314.00,143.18 1314.00,143.18
             1314.00,143.18 1322.00,143.98 1322.00,143.98
             1322.00,143.98 1338.00,143.98 1338.00,143.98
             1338.00,143.98 1349.00,143.08 1349.00,143.08
             1349.00,143.08 1362.00,144.00 1362.00,144.00
             1362.00,144.00 1402.00,144.00 1402.00,144.00
             1406.69,144.01 1409.92,143.73 1413.79,146.94
             1417.28,149.84 1420.26,157.75 1415.57,160.98
             1412.87,162.83 1403.63,161.61 1400.00,161.56
             1400.00,161.56 1386.00,161.56 1386.00,161.56
             1382.24,161.61 1380.39,162.79 1376.00,162.48
             1376.00,162.48 1348.00,161.18 1348.00,161.18
             1348.00,161.18 1341.00,161.92 1341.00,161.92
             1341.00,161.92 1334.00,161.34 1334.00,161.34
             1334.00,161.34 1325.00,161.96 1325.00,161.96
             1325.00,161.96 1312.00,161.00 1312.00,161.00
             1312.00,161.00 1273.00,161.00 1273.00,161.00
             1270.23,161.00 1265.70,161.32 1263.60,159.26
             1259.73,155.46 1263.03,146.76 1271.01,143.72
             1276.82,142.57 1277.72,143.79 1283.00,143.72 Z
           M 15.83,248.82
           C 15.83,248.82 29.00,260.00 29.00,260.00
             32.54,268.72 41.27,273.77 47.57,280.59
             47.57,280.59 53.44,287.83 53.44,287.83
             53.44,287.83 75.88,310.46 75.88,310.46
             75.88,310.46 85.28,320.96 85.28,320.96
             85.28,320.96 101.35,337.83 101.35,337.83
             104.91,341.89 107.08,342.46 108.00,348.00
             113.34,348.89 116.35,353.87 116.88,359.09
             117.91,369.18 107.42,375.91 101.99,383.09
             101.99,383.09 73.83,413.74 73.83,413.74
             73.83,413.74 68.43,418.26 68.43,418.26
             68.43,418.26 55.54,433.61 55.54,433.61
             55.54,433.61 41.22,448.00 41.22,448.00
             36.61,453.42 29.45,462.41 24.25,466.91
             22.02,468.85 18.25,471.28 15.15,470.63
             12.61,470.10 12.26,468.22 12.06,465.98
             12.06,465.98 11.09,449.00 11.09,449.00
             11.62,440.54 20.70,434.00 26.00,428.00
             26.00,428.00 44.45,407.46 44.45,407.46
             44.45,407.46 49.40,402.74 49.40,402.74
             49.40,402.74 55.46,395.39 55.46,395.39
             55.46,395.39 71.00,379.02 71.00,379.02
             71.00,379.02 82.19,366.67 82.19,366.67
             83.67,365.08 86.79,363.11 86.91,360.87
             87.06,357.85 83.20,354.70 81.27,352.72
             81.27,352.72 65.47,335.91 65.47,335.91
             65.47,335.91 60.54,329.46 60.54,329.46
             60.54,329.46 53.28,322.91 53.28,322.91
             53.28,322.91 33.71,301.42 33.71,301.42
             33.71,301.42 15.64,282.00 15.64,282.00
             13.42,279.43 10.37,276.91 8.77,273.96
             6.34,269.49 5.11,252.25 6.00,247.00
             6.00,247.00 15.83,248.82 15.83,248.82 Z
           M 2184.91,262.95
           C 2187.66,264.20 2203.03,279.46 2205.83,282.56
             2205.83,282.56 2238.09,317.71 2238.09,317.71
             2238.09,317.71 2245.00,324.41 2245.00,324.41
             2245.00,324.41 2259.50,340.70 2259.50,340.70
             2259.50,340.70 2263.68,346.16 2263.68,346.16
             2263.68,346.16 2280.26,363.74 2280.26,363.74
             2282.79,366.48 2286.03,369.12 2286.62,373.01
             2287.87,381.29 2280.20,387.22 2275.21,392.28
             2275.21,392.28 2266.09,402.92 2266.09,402.92
             2266.09,402.92 2247.42,422.09 2247.42,422.09
             2247.42,422.09 2221.28,449.46 2221.28,449.46
             2221.28,449.46 2207.99,463.96 2207.99,463.96
             2207.99,463.96 2202.30,468.86 2202.30,468.86
             2198.91,472.07 2192.04,484.42 2184.00,487.28
             2174.59,490.63 2169.17,482.85 2163.84,477.01
             2163.84,477.01 2153.03,465.28 2153.03,465.28
             2153.03,465.28 2146.90,458.08 2146.90,458.08
             2146.90,458.08 2140.28,451.91 2140.28,451.91
             2140.28,451.91 2121.41,431.24 2121.41,431.24
             2121.41,431.24 2115.58,425.87 2115.58,425.87
             2115.58,425.87 2096.75,405.29 2096.75,405.29
             2091.42,399.74 2077.77,387.61 2075.68,381.00
             2074.87,378.41 2074.96,374.74 2075.00,372.00
             2075.04,369.86 2075.03,368.04 2075.93,366.04
             2077.51,362.52 2095.07,345.06 2098.91,341.42
             2098.91,341.42 2120.97,317.76 2120.97,317.76
             2120.97,317.76 2149.16,288.96 2149.16,288.96
             2155.25,282.44 2168.78,266.54 2176.00,262.95
             2179.21,261.99 2181.70,261.61 2184.91,262.95 Z
           M 2243.83,360.72
           C 2243.83,360.72 2234.78,351.75 2234.78,351.75
             2234.78,351.75 2220.28,335.08 2220.28,335.08
             2220.28,335.08 2215.54,330.65 2215.54,330.65
             2215.54,330.65 2200.58,314.39 2200.58,314.39
             2200.58,314.39 2188.74,301.81 2188.74,301.81
             2186.56,299.44 2184.13,296.16 2180.73,295.50
             2177.40,294.84 2175.80,297.52 2173.76,299.59
             2173.76,299.59 2161.59,311.98 2161.59,311.98
             2161.59,311.98 2121.72,353.95 2121.72,353.95
             2121.72,353.95 2108.91,367.60 2108.91,367.60
             2107.79,368.91 2104.65,371.94 2104.15,373.28
             2103.15,375.97 2105.29,377.70 2106.97,379.42
             2106.97,379.42 2119.36,392.29 2119.36,392.29
             2119.36,392.29 2144.75,419.64 2144.75,419.64
             2144.75,419.64 2162.55,438.05 2162.55,438.05
             2162.55,438.05 2173.82,450.69 2173.82,450.69
             2175.32,452.19 2176.78,453.99 2179.10,453.94
             2182.85,453.84 2185.17,450.64 2187.36,448.14
             2187.36,448.14 2192.51,443.29 2192.51,443.29
             2192.51,443.29 2199.01,436.05 2199.01,436.05
             2199.01,436.05 2204.32,431.32 2204.32,431.32
             2204.32,431.32 2209.09,425.42 2209.09,425.42
             2209.09,425.42 2235.16,398.16 2235.16,398.16
             2242.09,390.50 2250.75,383.98 2256.00,375.00
             2256.00,375.00 2243.83,360.72 2243.83,360.72 Z
           M 239.00,372.00
           C 239.00,372.00 237.57,388.72 237.57,388.72
             235.58,396.99 232.85,402.30 234.98,411.00
             234.98,411.00 236.40,420.00 236.40,420.00
             238.74,429.53 240.98,431.30 240.96,442.00
             240.96,442.00 240.96,457.00 240.96,457.00
             240.96,457.00 240.96,461.98 240.96,461.98
             240.33,466.84 237.32,468.16 233.67,464.69
             230.94,462.09 223.15,450.64 221.58,447.00
             221.58,447.00 214.73,431.00 214.73,431.00
             214.73,431.00 213.20,422.00 213.20,422.00
             209.34,401.40 210.54,387.23 219.17,368.04
             222.83,359.89 228.03,347.30 238.00,346.00
             239.18,354.92 239.01,363.04 239.00,372.00 Z
           M 92.02,601.76
           C 97.77,600.36 103.48,604.69 105.43,610.00
             106.85,614.54 105.56,620.32 105.43,625.00
             105.43,625.00 106.63,635.00 106.63,635.00
             106.63,635.00 106.04,643.00 106.04,643.00
             106.04,643.00 106.91,655.00 106.91,655.00
             106.58,659.03 104.87,665.11 106.91,668.81
             110.49,674.79 117.57,672.22 123.00,672.51
             123.00,672.51 131.00,672.51 131.00,672.51
             131.00,672.51 139.28,672.51 139.28,672.51
             139.28,672.51 149.00,672.51 149.00,672.51
             154.76,672.60 161.13,671.00 166.58,673.83
             175.38,678.41 176.37,689.81 167.96,695.40
             165.29,697.18 158.24,697.69 155.00,697.29
             155.00,697.29 148.00,697.29 148.00,697.29
             148.00,697.29 139.00,697.29 139.00,697.29
             139.00,697.29 120.97,697.29 120.97,697.29
             116.89,697.03 111.61,695.84 108.58,699.30
             104.96,703.43 108.30,709.12 107.91,716.00
             107.91,716.00 107.04,726.00 107.04,726.00
             107.04,726.00 107.68,735.00 107.68,735.00
             107.68,735.00 107.08,741.00 107.08,741.00
             107.08,741.00 107.78,752.17 107.78,752.17
             107.67,755.04 107.22,758.98 105.62,761.41
             99.75,770.33 90.17,767.99 86.30,758.71
             84.72,754.91 85.41,751.91 85.26,748.00
             85.26,748.00 84.29,734.80 84.29,734.80
             84.29,734.80 85.25,729.83 85.25,729.83
             85.25,729.83 84.62,717.00 84.62,717.00
             84.62,717.00 85.23,712.00 85.23,712.00
             85.60,706.88 83.50,706.31 85.23,700.00
             85.23,700.00 78.92,696.92 78.92,696.92
             76.75,696.28 70.66,696.97 67.99,696.92
             67.99,696.92 58.00,696.34 58.00,696.34
             58.00,696.34 51.00,697.52 51.00,697.52
             51.00,697.52 41.00,696.04 41.00,696.04
             34.76,695.75 28.53,698.45 23.33,693.81
             17.11,688.26 17.46,675.95 25.37,672.57
             26.90,671.92 35.71,672.04 38.00,672.01
             38.00,672.01 50.00,672.66 50.00,672.66
             50.00,672.66 68.00,671.61 68.00,671.61
             72.11,671.48 77.05,673.28 80.85,670.40
             82.06,669.48 82.81,668.44 83.23,666.98
             83.23,666.98 83.92,653.00 83.92,653.00
             82.69,639.34 84.07,643.96 83.92,636.83
             83.92,636.83 83.02,628.00 83.02,628.00
             83.02,628.00 83.02,608.00 83.02,608.00
             87.27,605.57 87.71,602.81 92.02,601.76 Z
           M 2266.05,621.43
           C 2270.49,627.09 2268.69,633.56 2268.37,640.00
             2268.37,640.00 2268.96,648.00 2268.96,648.00
             2269.14,652.65 2268.47,654.02 2268.18,658.00
             2268.18,658.00 2268.93,669.00 2268.93,669.00
             2268.97,674.04 2266.77,680.02 2268.93,682.78
             2272.03,686.86 2278.39,686.99 2283.00,687.00
             2292.45,687.02 2301.61,686.76 2311.00,688.00
             2311.00,688.00 2309.15,703.58 2309.15,703.58
             2309.15,703.58 2311.00,713.00 2311.00,713.00
             2311.00,713.00 2300.00,712.09 2300.00,712.09
             2296.01,711.87 2294.49,712.57 2291.00,712.82
             2287.46,713.07 2286.14,712.41 2283.00,712.18
             2278.85,711.89 2270.06,712.60 2268.32,717.06
             2267.23,719.85 2269.13,722.79 2268.90,728.00
             2268.90,728.00 2268.00,738.00 2268.00,738.00
             2268.00,738.00 2268.00,763.00 2268.00,763.00
             2268.01,767.60 2268.43,771.82 2265.85,775.91
             2260.79,783.97 2251.13,784.68 2245.76,776.54
             2242.45,771.53 2243.96,760.29 2244.08,754.00
             2244.08,754.00 2244.08,727.00 2244.08,727.00
             2244.11,723.40 2244.62,716.14 2241.57,713.83
             2239.77,712.46 2234.56,712.73 2232.00,712.41
             2232.00,712.41 2199.28,712.41 2199.28,712.41
             2199.28,712.41 2193.96,711.13 2193.96,711.13
             2187.08,710.31 2185.12,712.73 2180.04,706.08
             2178.85,704.51 2177.72,702.87 2177.30,700.91
             2175.74,693.65 2181.18,687.79 2188.00,686.23
             2188.00,686.23 2233.00,686.23 2233.00,686.23
             2235.31,686.00 2238.77,686.20 2240.77,684.98
             2244.95,682.43 2244.38,673.49 2244.47,669.09
             2244.47,669.09 2244.47,658.83 2244.47,658.83
             2244.47,658.83 2244.47,652.00 2244.47,652.00
             2244.44,645.29 2242.68,640.48 2246.00,634.00
             2238.06,623.21 2255.50,607.99 2266.05,621.43 Z
           M 2082.83,865.55
           C 2090.10,867.96 2104.62,882.50 2109.21,888.93
             2120.82,905.17 2124.72,915.14 2126.09,935.00
             2126.94,947.42 2127.16,943.31 2125.42,956.00
             2125.42,956.00 2124.29,965.00 2124.29,965.00
             2124.29,965.00 2120.37,975.00 2120.37,975.00
             2117.98,981.18 2119.40,981.18 2114.68,988.00
             2109.02,996.19 2096.59,1011.86 2088.00,1016.47
             2084.75,1018.21 2077.75,1021.78 2074.88,1017.69
             2073.20,1014.95 2074.97,1008.50 2074.88,1005.00
             2074.97,1002.37 2074.10,998.13 2074.88,996.01
             2075.88,991.29 2086.05,983.93 2089.79,979.54
             2097.30,970.71 2101.70,959.53 2102.25,948.00
             2102.92,934.08 2100.92,919.83 2092.54,908.29
             2092.54,908.29 2075.24,889.72 2075.24,889.72
             2073.10,884.86 2075.00,871.16 2075.24,865.00
             2077.29,865.00 2080.72,864.84 2082.83,865.55 Z
           M 157.12,941.71
           C 157.12,941.71 160.35,934.00 160.35,934.00
             160.35,934.00 167.28,922.72 167.28,922.72
             170.07,916.94 168.40,916.78 174.05,908.91
             177.51,904.08 183.32,897.48 189.95,901.02
             192.85,902.57 196.35,908.17 198.08,911.07
             198.08,911.07 206.02,925.00 206.02,925.00
             206.02,925.00 209.76,933.00 209.76,933.00
             209.76,933.00 222.70,956.00 222.70,956.00
             222.70,956.00 229.24,969.00 229.24,969.00
             233.59,976.82 240.16,986.42 242.46,995.00
             245.32,1005.63 243.18,1007.21 243.52,1015.00
             243.52,1015.00 243.52,1023.00 243.52,1023.00
             243.52,1023.00 243.52,1033.00 243.52,1033.00
             243.14,1037.58 244.91,1043.39 243.52,1047.95
             241.15,1056.15 228.88,1052.65 223.00,1052.69
             223.00,1052.69 215.01,1053.93 215.01,1053.93
             209.81,1054.20 207.55,1053.13 203.00,1052.57
             203.00,1052.57 186.00,1052.57 186.00,1052.57
             186.00,1052.57 175.00,1053.53 175.00,1053.53
             175.00,1053.53 166.00,1052.81 166.00,1052.81
             166.00,1052.81 156.09,1053.72 156.09,1053.72
             156.09,1053.72 149.91,1052.72 149.91,1052.72
             149.91,1052.72 142.00,1052.72 142.00,1052.72
             142.00,1052.72 131.00,1052.72 131.00,1052.72
             131.00,1052.72 123.00,1052.72 123.00,1052.72
             108.80,1053.31 99.16,1047.09 106.26,1032.00
             106.26,1032.00 111.12,1024.72 111.12,1024.72
             111.12,1024.72 114.99,1016.09 114.99,1016.09
             114.99,1016.09 121.81,1004.96 121.81,1004.96
             121.81,1004.96 126.65,995.44 126.65,995.44
             130.00,989.56 133.37,984.84 135.00,978.00
             139.65,975.13 141.51,969.23 142.00,964.00
             142.00,964.00 149.00,960.00 149.00,960.00
             149.96,948.65 153.43,948.71 157.12,941.71 Z
           M 176.23,954.91
           C 176.23,954.91 170.68,964.00 170.68,964.00
             170.68,964.00 160.83,981.58 160.83,981.58
             160.83,981.58 155.93,989.00 155.93,989.00
             155.93,989.00 150.50,1001.00 150.50,1001.00
             150.50,1001.00 136.00,1028.09 136.00,1028.09
             136.00,1028.09 151.00,1028.09 151.00,1028.09
             151.00,1028.09 160.00,1028.87 160.00,1028.87
             160.00,1028.87 169.00,1028.87 169.00,1028.87
             169.00,1028.87 176.00,1028.87 176.00,1028.87
             176.00,1028.87 200.00,1028.87 200.00,1028.87
             200.00,1028.87 212.00,1029.74 212.00,1029.74
             212.00,1029.74 220.00,1028.19 220.00,1028.19
             220.00,1028.19 235.00,1028.19 235.00,1028.19
             235.00,1028.19 228.91,1015.42 228.91,1015.42
             228.91,1015.42 223.84,1008.98 223.84,1008.98
             223.84,1008.98 221.20,1002.01 221.20,1002.01
             221.20,1002.01 216.43,993.91 216.43,993.91
             216.43,993.91 210.35,981.17 210.35,981.17
             210.35,981.17 206.79,975.91 206.79,975.91
             206.79,975.91 202.83,967.17 202.83,967.17
             202.83,967.17 197.23,958.91 197.23,958.91
             197.23,958.91 193.36,950.17 193.36,950.17
             193.36,950.17 187.00,939.00 187.00,939.00
             179.34,943.35 180.11,947.90 176.23,954.91 Z
           M 2298.00,1069.34
           C 2298.00,1069.34 2291.00,1069.91 2291.00,1069.91
             2291.00,1069.91 2278.00,1069.91 2278.00,1069.91
             2271.76,1069.78 2268.22,1071.14 2264.13,1065.15
             2259.57,1058.48 2263.22,1049.44 2266.99,1043.28
             2266.99,1043.28 2274.51,1029.00 2274.51,1029.00
             2274.51,1029.00 2287.88,1006.00 2287.88,1006.00
             2290.98,1000.11 2290.62,998.34 2294.83,992.04
             2300.89,982.99 2300.48,976.09 2308.00,974.00
             2308.00,974.00 2306.62,981.00 2306.62,981.00
             2306.62,981.00 2307.99,996.00 2307.99,996.00
             2307.99,996.00 2307.99,1010.58 2307.99,1010.58
             2307.99,1010.58 2310.00,1020.00 2310.00,1020.00
             2301.53,1024.02 2302.06,1029.80 2297.94,1037.00
             2297.94,1037.00 2293.00,1044.00 2293.00,1044.00
             2293.00,1044.00 2307.00,1046.00 2307.00,1046.00
             2307.00,1046.00 2305.00,1049.00 2305.00,1049.00
             2307.81,1056.50 2307.86,1059.90 2304.00,1067.00
             2304.00,1067.00 2308.00,1067.00 2308.00,1067.00
             2308.00,1067.00 2308.00,1070.00 2308.00,1070.00
             2308.00,1070.00 2298.00,1069.34 2298.00,1069.34 Z
           M 2177.92,1136.00
           C 2177.92,1136.00 2176.96,1146.00 2176.96,1146.00
             2176.96,1146.00 2176.96,1156.00 2176.96,1156.00
             2176.96,1156.00 2176.96,1174.00 2176.96,1174.00
             2176.96,1174.00 2176.21,1184.00 2176.21,1184.00
             2176.21,1184.00 2176.21,1190.00 2176.21,1190.00
             2176.21,1190.00 2176.21,1201.00 2176.21,1201.00
             2176.21,1201.00 2176.21,1218.00 2176.21,1218.00
             2176.21,1218.00 2176.82,1228.00 2176.82,1228.00
             2176.82,1228.00 2175.93,1236.00 2175.93,1236.00
             2175.93,1236.00 2175.93,1251.00 2175.93,1251.00
             2175.93,1251.00 2175.93,1260.00 2175.93,1260.00
             2176.20,1267.21 2178.44,1270.88 2173.72,1277.90
             2169.60,1284.01 2159.13,1285.31 2154.82,1278.70
             2152.49,1275.13 2153.04,1270.11 2152.70,1266.00
             2152.70,1266.00 2152.70,1247.00 2152.70,1247.00
             2152.70,1247.00 2152.70,1236.00 2152.70,1236.00
             2152.70,1236.00 2152.70,1228.00 2152.70,1228.00
             2152.70,1228.00 2152.70,1222.00 2152.70,1222.00
             2152.70,1222.00 2152.70,1212.00 2152.70,1212.00
             2152.70,1212.00 2152.70,1188.00 2152.70,1188.00
             2152.70,1188.00 2152.70,1177.00 2152.70,1177.00
             2153.17,1170.15 2154.84,1170.57 2153.64,1160.01
             2153.64,1160.01 2153.64,1145.01 2153.64,1145.01
             2153.47,1134.11 2149.96,1124.60 2162.00,1118.83
             2172.85,1117.35 2177.91,1126.25 2177.92,1136.00 Z
           M 212.58,1220.09
           C 212.58,1220.09 236.00,1220.09 236.00,1220.09
             237.42,1220.08 239.22,1220.10 240.40,1221.02
             242.55,1222.71 243.06,1231.29 242.91,1234.00
             242.81,1235.70 242.19,1240.28 241.44,1241.70
             237.81,1248.57 224.27,1244.74 218.58,1244.84
             218.58,1244.84 210.00,1245.86 210.00,1245.86
             210.00,1245.86 195.44,1243.11 195.44,1243.11
             193.41,1242.06 191.73,1239.92 190.72,1237.91
             186.99,1230.48 190.33,1225.67 196.28,1221.02
             201.36,1219.15 207.24,1220.09 212.58,1220.09 Z
           M 205.00,1304.00
           C 202.38,1303.99 199.40,1304.19 197.01,1302.98
             188.98,1298.89 187.69,1288.11 193.95,1281.95
             199.25,1276.74 214.03,1279.96 221.00,1279.49
             224.01,1279.28 228.12,1278.28 231.00,1278.62
             232.86,1278.84 239.76,1280.22 240.91,1281.57
             243.42,1284.88 241.36,1299.56 240.91,1304.00
             240.91,1304.00 205.00,1304.00 205.00,1304.00 Z
           M 37.82,1562.44
           C 37.34,1560.78 39.11,1558.87 40.06,1557.71
             40.06,1557.71 48.56,1548.00 48.56,1548.00
             48.56,1548.00 62.00,1534.39 62.00,1534.39
             62.00,1534.39 71.31,1524.20 71.31,1524.20
             71.31,1524.20 83.34,1512.79 83.34,1512.79
             83.34,1512.79 92.83,1502.63 92.83,1502.63
             93.25,1501.65 93.19,1500.95 92.83,1499.96
             91.40,1496.05 79.94,1485.78 76.39,1482.24
             76.39,1482.24 51.16,1454.58 51.16,1454.58
             51.16,1454.58 33.00,1434.55 33.00,1434.55
             26.41,1427.85 20.83,1422.86 20.19,1413.00
             19.94,1409.21 20.89,1408.21 21.13,1404.83
             21.45,1400.34 19.60,1393.03 24.97,1393.56
             28.41,1393.89 31.31,1397.50 33.41,1399.88
             33.41,1399.88 42.51,1410.70 42.51,1410.70
             45.95,1414.41 46.54,1413.77 50.67,1418.95
             50.67,1418.95 74.83,1444.09 74.83,1444.09
             74.83,1444.09 107.01,1479.00 107.01,1479.00
             115.69,1487.89 127.38,1496.68 118.87,1510.00
             116.76,1513.29 105.50,1524.73 102.15,1528.17
             102.15,1528.17 66.42,1564.72 66.42,1564.72
             66.42,1564.72 54.00,1576.85 54.00,1576.85
             52.08,1578.47 49.84,1580.19 47.17,1579.34
             41.83,1577.65 38.88,1568.91 40.00,1564.00
             39.80,1563.91 38.19,1563.73 37.82,1562.44 Z
           M 2267.41,1500.91
           C 2273.27,1507.38 2278.62,1510.56 2277.27,1520.00
             2276.99,1521.97 2276.83,1523.95 2275.83,1525.72
             2275.83,1525.72 2259.45,1543.41 2259.45,1543.41
             2259.45,1543.41 2229.79,1575.28 2229.79,1575.28
             2229.79,1575.28 2205.28,1600.09 2205.28,1600.09
             2200.72,1606.09 2194.65,1612.36 2189.19,1617.60
             2183.89,1622.69 2182.49,1626.72 2174.00,1626.98
             2172.19,1627.04 2169.71,1627.01 2168.00,1626.42
             2164.10,1625.07 2161.27,1621.30 2158.59,1618.33
             2158.59,1618.33 2146.12,1604.32 2146.12,1604.32
             2146.12,1604.32 2142.46,1599.58 2142.46,1599.58
             2142.46,1599.58 2137.29,1594.99 2137.29,1594.99
             2137.29,1594.99 2122.08,1578.70 2122.08,1578.70
             2122.08,1578.70 2116.60,1573.75 2116.60,1573.75
             2116.60,1573.75 2098.96,1554.09 2098.96,1554.09
             2098.96,1554.09 2089.92,1545.28 2089.92,1545.28
             2084.36,1539.09 2068.87,1526.61 2070.31,1518.00
             2071.92,1508.42 2083.00,1499.17 2089.58,1492.74
             2089.58,1492.74 2103.04,1478.00 2103.04,1478.00
             2103.04,1478.00 2124.42,1455.96 2124.42,1455.96
             2124.42,1455.96 2139.92,1439.83 2139.92,1439.83
             2139.92,1439.83 2158.91,1419.58 2158.91,1419.58
             2163.24,1415.35 2167.33,1409.24 2174.00,1408.57
             2182.30,1407.75 2192.04,1420.65 2197.57,1426.00
             2197.57,1426.00 2223.46,1454.16 2223.46,1454.16
             2223.46,1454.16 2238.37,1469.29 2238.37,1469.29
             2244.01,1475.39 2248.28,1483.40 2256.00,1487.00
             2256.00,1487.00 2256.00,1492.00 2256.00,1492.00
             2261.85,1493.72 2263.47,1496.57 2267.41,1500.91 Z
           M 2118.63,1539.46
           C 2118.63,1539.46 2128.51,1550.58 2128.51,1550.58
             2128.51,1550.58 2138.83,1561.00 2138.83,1561.00
             2138.83,1561.00 2154.80,1578.26 2154.80,1578.26
             2154.80,1578.26 2166.41,1590.17 2166.41,1590.17
             2168.12,1591.96 2170.56,1595.30 2173.17,1595.56
             2175.84,1595.83 2177.91,1593.70 2179.58,1591.94
             2179.58,1591.94 2190.75,1580.41 2190.75,1580.41
             2190.75,1580.41 2221.99,1547.99 2221.99,1547.99
             2221.99,1547.99 2233.42,1535.28 2233.42,1535.28
             2236.85,1531.84 2248.10,1522.86 2247.72,1518.00
             2247.40,1514.00 2235.86,1503.24 2232.66,1500.12
             2232.66,1500.12 2207.55,1472.29 2207.55,1472.29
             2207.55,1472.29 2192.35,1457.27 2192.35,1457.27
             2188.81,1453.37 2179.46,1439.87 2174.04,1441.37
             2169.64,1442.59 2159.87,1455.54 2155.77,1459.53
             2155.77,1459.53 2124.29,1492.00 2124.29,1492.00
             2117.24,1499.62 2108.02,1510.78 2100.00,1517.00
             2102.66,1523.58 2113.23,1533.81 2118.63,1539.46 Z
           M 290.96,1621.98
           C 290.96,1621.98 276.00,1621.98 276.00,1621.98
             276.00,1621.98 256.04,1621.98 256.04,1621.98
             253.22,1620.97 251.41,1618.86 249.20,1617.11
             244.93,1613.73 238.97,1609.68 235.45,1605.75
             219.85,1588.33 212.74,1567.14 213.00,1544.00
             213.00,1544.00 214.47,1528.00 214.47,1528.00
             215.83,1522.27 218.72,1515.30 221.30,1510.00
             225.65,1501.09 223.86,1504.63 229.14,1496.92
             235.47,1487.65 235.69,1485.02 248.00,1485.00
             248.00,1485.00 272.00,1484.49 272.00,1484.49
             276.47,1484.79 275.28,1485.97 285.00,1486.00
             285.00,1486.00 285.00,1489.00 285.00,1489.00
             280.58,1489.15 271.77,1492.45 268.00,1494.81
             268.00,1494.81 262.00,1499.37 262.00,1499.37
             246.14,1510.72 240.59,1519.89 236.91,1539.00
             236.35,1541.90 235.21,1545.13 235.18,1548.00
             235.14,1552.24 236.72,1555.21 237.47,1559.00
             238.13,1562.38 237.65,1564.25 239.12,1567.96
             240.42,1571.24 241.94,1572.36 243.68,1575.09
             243.68,1575.09 247.49,1581.91 247.49,1581.91
             250.38,1585.81 263.23,1598.44 267.13,1600.61
             267.13,1600.61 278.00,1604.81 278.00,1604.81
             281.16,1605.82 287.90,1607.96 291.00,1607.89
             293.98,1607.83 306.23,1606.31 309.00,1605.40
             330.68,1598.33 345.79,1578.25 348.71,1556.00
             352.39,1527.95 334.82,1500.85 308.04,1492.12
             302.12,1490.19 303.80,1489.23 297.00,1489.00
             297.00,1489.00 297.00,1486.00 297.00,1486.00
             297.00,1486.00 309.00,1485.18 309.00,1485.18
             309.00,1485.18 317.00,1485.96 317.00,1485.96
             317.00,1485.96 337.00,1486.58 337.00,1486.58
             343.45,1487.43 346.50,1486.29 351.56,1491.62
             362.72,1503.38 371.92,1527.76 372.00,1544.00
             372.00,1544.00 372.00,1554.00 372.00,1554.00
             371.99,1561.39 371.36,1559.10 370.42,1564.17
             370.26,1566.76 371.03,1567.91 370.42,1571.00
             370.42,1571.00 362.77,1589.00 362.77,1589.00
             358.42,1598.29 347.05,1615.73 336.00,1617.00
             335.54,1618.30 335.63,1618.88 334.43,1619.92
             332.78,1621.34 322.39,1624.18 320.17,1623.71
             318.47,1623.35 318.26,1622.90 317.00,1621.98
             314.72,1624.26 313.73,1623.22 311.00,1621.98
             308.71,1624.55 306.29,1624.55 304.00,1621.98
             304.00,1621.98 302.00,1621.98 302.00,1621.98
             300.20,1623.94 300.08,1623.42 298.00,1621.98
             295.70,1624.50 294.02,1622.49 290.96,1621.98 Z
           M 540.30,1568.28
           C 540.30,1568.28 532.45,1575.53 532.45,1575.53
             532.45,1575.53 528.63,1580.42 528.63,1580.42
             524.82,1584.88 517.02,1592.91 512.00,1595.57
             507.08,1598.18 500.87,1596.45 497.74,1591.90
             496.43,1590.00 496.19,1588.21 495.88,1586.00
             494.89,1578.93 498.19,1576.44 502.79,1571.43
             502.79,1571.43 526.28,1547.15 526.28,1547.15
             528.72,1544.66 534.54,1539.53 534.89,1535.97
             535.31,1531.60 530.19,1528.84 527.59,1525.94
             527.59,1525.94 518.18,1516.91 518.18,1516.91
             518.18,1516.91 503.08,1500.14 503.08,1500.14
             501.30,1498.40 496.28,1492.18 498.14,1489.51
             499.76,1487.17 507.26,1488.36 510.00,1488.13
             510.00,1488.13 519.00,1488.13 519.00,1488.13
             521.05,1488.04 522.98,1488.03 524.91,1488.85
             529.58,1490.85 540.77,1503.33 544.72,1507.58
             547.10,1510.14 550.81,1515.56 554.52,1515.80
             556.82,1515.95 558.71,1513.27 560.05,1511.70
             560.05,1511.70 572.25,1498.42 572.25,1498.42
             583.04,1487.35 585.66,1488.98 600.00,1489.00
             602.01,1489.00 605.97,1488.86 607.71,1489.74
             613.20,1492.52 606.54,1499.45 604.29,1501.91
             604.29,1501.91 579.85,1527.32 579.85,1527.32
             577.58,1529.61 571.98,1534.47 572.88,1538.00
             573.43,1540.14 581.83,1547.52 583.95,1549.58
             583.95,1549.58 607.16,1574.95 607.16,1574.95
             609.29,1577.84 612.04,1580.29 612.62,1584.00
             613.90,1592.28 603.93,1601.79 596.00,1597.12
             590.25,1593.75 583.35,1585.21 578.64,1580.11
             575.30,1576.50 574.17,1576.99 570.00,1571.83
             570.00,1571.83 562.37,1563.55 562.37,1563.55
             558.43,1559.35 559.85,1557.53 551.00,1555.00
             549.06,1561.62 544.90,1563.64 540.30,1568.28 Z
           M 1132.67,1594.43
           C 1132.67,1594.43 1123.68,1603.45 1123.68,1603.45
             1118.80,1608.86 1113.72,1616.08 1108.04,1620.53
             1104.27,1623.49 1097.79,1626.06 1093.00,1624.40
             1089.21,1623.09 1086.02,1619.00 1083.34,1616.14
             1083.34,1616.14 1072.25,1604.93 1072.25,1604.93
             1072.25,1604.93 1067.34,1598.80 1067.34,1598.80
             1067.34,1598.80 1059.66,1591.41 1059.66,1591.41
             1059.66,1591.41 1046.23,1577.28 1046.23,1577.28
             1046.23,1577.28 1031.55,1560.51 1031.55,1560.51
             1031.55,1560.51 1026.17,1555.82 1026.17,1555.82
             1026.17,1555.82 1012.41,1540.92 1012.41,1540.92
             1007.05,1534.47 993.05,1522.46 991.57,1515.00
             990.57,1509.95 992.72,1505.95 995.60,1502.04
             998.10,1498.65 1001.04,1495.60 1005.00,1493.93
             1007.61,1492.83 1010.24,1493.01 1013.00,1493.00
             1020.73,1492.98 1028.36,1492.63 1036.00,1494.00
             1035.31,1498.15 1030.87,1503.00 1027.76,1505.86
             1025.70,1507.77 1022.66,1509.77 1023.05,1513.00
             1023.47,1516.47 1028.47,1520.60 1030.91,1522.88
             1030.91,1522.88 1041.91,1535.00 1041.91,1535.00
             1041.91,1535.00 1053.32,1547.83 1053.32,1547.83
             1053.32,1547.83 1060.31,1554.40 1060.31,1554.40
             1060.31,1554.40 1073.45,1569.49 1073.45,1569.49
             1079.14,1575.37 1092.65,1587.36 1096.00,1594.00
             1101.09,1592.14 1106.72,1583.66 1111.09,1579.58
             1111.09,1579.58 1145.00,1544.04 1145.00,1544.04
             1145.00,1544.04 1155.45,1533.08 1155.45,1533.08
             1155.45,1533.08 1167.27,1520.09 1167.27,1520.09
             1169.26,1517.85 1171.63,1516.27 1170.71,1512.97
             1169.26,1507.76 1160.29,1502.39 1158.00,1495.00
             1158.00,1495.00 1182.00,1495.00 1182.00,1495.00
             1184.11,1495.00 1187.04,1494.88 1189.00,1495.60
             1193.61,1497.28 1200.91,1505.46 1202.46,1510.17
             1203.20,1512.45 1203.01,1515.68 1202.46,1518.00
             1200.88,1524.86 1193.33,1530.28 1188.67,1535.34
             1184.98,1539.36 1181.35,1544.31 1176.00,1546.00
             1175.54,1551.81 1173.68,1553.13 1168.00,1554.00
             1167.74,1555.56 1167.80,1556.34 1166.98,1557.83
             1166.98,1557.83 1150.62,1575.45 1150.62,1575.45
             1146.92,1579.53 1148.09,1580.67 1142.00,1582.00
             1141.08,1587.56 1136.35,1590.34 1132.67,1594.43 Z
           M 1332.83,1632.09
           C 1332.83,1632.09 1328.05,1630.07 1328.05,1630.07
             1325.37,1628.39 1324.64,1626.67 1322.56,1624.59
             1322.56,1624.59 1316.89,1619.38 1316.89,1619.38
             1311.73,1613.95 1306.04,1604.24 1302.21,1597.58
             1295.74,1586.32 1293.56,1571.54 1294.25,1558.72
             1294.25,1558.72 1295.61,1544.04 1295.61,1544.04
             1295.34,1538.18 1300.59,1526.50 1303.05,1521.00
             1305.48,1515.56 1314.55,1500.87 1319.29,1498.01
             1324.46,1494.89 1332.33,1496.93 1338.00,1497.00
             1338.00,1497.00 1365.00,1497.00 1365.00,1497.00
             1363.04,1502.91 1360.04,1501.30 1355.01,1503.72
             1355.01,1503.72 1340.05,1513.46 1340.05,1513.46
             1336.30,1516.44 1325.73,1529.18 1323.73,1533.28
             1323.73,1533.28 1318.29,1552.00 1318.29,1552.00
             1317.19,1557.12 1318.38,1564.82 1319.25,1570.00
             1320.49,1577.39 1324.36,1588.57 1328.64,1594.71
             1336.21,1605.59 1344.12,1610.43 1355.83,1615.79
             1358.33,1616.94 1359.26,1617.97 1362.04,1618.74
             1370.19,1621.01 1384.89,1620.32 1392.83,1617.47
             1392.83,1617.47 1399.04,1613.97 1399.04,1613.97
             1399.04,1613.97 1406.87,1610.00 1406.87,1610.00
             1406.87,1610.00 1412.19,1604.87 1412.19,1604.87
             1423.75,1593.77 1424.66,1593.64 1429.49,1578.00
             1430.42,1575.00 1431.39,1571.14 1431.25,1568.00
             1431.09,1564.40 1429.04,1561.77 1432.00,1559.00
             1432.00,1559.00 1429.27,1544.29 1429.27,1544.29
             1424.34,1528.65 1408.95,1508.67 1392.00,1506.00
             1392.00,1506.00 1392.00,1503.00 1392.00,1503.00
             1392.00,1503.00 1382.00,1501.10 1382.00,1501.10
             1382.00,1501.10 1371.00,1501.10 1371.00,1501.10
             1372.71,1496.62 1375.72,1497.06 1380.00,1497.01
             1380.00,1497.01 1415.00,1497.01 1415.00,1497.01
             1419.19,1496.96 1426.18,1497.01 1429.82,1499.16
             1431.92,1500.40 1434.23,1503.47 1435.81,1505.42
             1444.65,1516.30 1445.47,1519.25 1449.94,1532.00
             1451.16,1535.50 1452.92,1539.35 1453.63,1543.00
             1454.52,1547.67 1455.37,1565.32 1454.78,1570.00
             1454.78,1570.00 1453.37,1576.00 1453.37,1576.00
             1453.37,1576.00 1452.57,1582.72 1452.57,1582.72
             1448.32,1599.97 1440.08,1614.58 1426.42,1626.17
             1426.42,1626.17 1419.91,1631.99 1419.91,1631.99
             1412.24,1636.86 1405.58,1632.58 1397.58,1631.99
             1397.58,1631.99 1385.09,1632.69 1385.09,1632.69
             1380.91,1632.46 1380.76,1630.86 1376.00,1631.31
             1376.00,1631.31 1367.00,1632.94 1367.00,1632.94
             1361.05,1633.20 1361.61,1630.70 1355.00,1632.94
             1355.00,1632.94 1361.00,1632.94 1361.00,1632.94
             1361.00,1632.94 1361.00,1636.00 1361.00,1636.00
             1356.89,1636.00 1351.80,1637.33 1350.00,1633.00
             1350.00,1633.00 1342.00,1632.09 1342.00,1632.09
             1339.98,1636.81 1336.31,1633.73 1332.83,1632.09 Z
           M 1585.44,1582.51
           C 1585.44,1582.51 1590.41,1577.82 1590.41,1577.82
             1590.41,1577.82 1609.61,1557.00 1609.61,1557.00
             1612.30,1554.17 1618.40,1548.64 1616.59,1544.22
             1616.04,1542.87 1608.55,1535.10 1607.08,1533.58
             1607.08,1533.58 1598.61,1524.72 1598.61,1524.72
             1598.61,1524.72 1594.49,1519.45 1594.49,1519.45
             1594.49,1519.45 1588.73,1514.37 1588.73,1514.37
             1586.19,1511.99 1579.15,1505.27 1580.63,1501.43
             1581.76,1498.50 1587.45,1499.00 1590.00,1499.00
             1594.20,1498.99 1605.47,1498.55 1608.83,1499.85
             1613.10,1501.50 1615.64,1505.62 1618.51,1508.91
             1623.37,1514.49 1631.37,1519.40 1633.00,1527.00
             1641.58,1526.31 1643.17,1521.05 1648.51,1515.46
             1648.51,1515.46 1655.59,1508.40 1655.59,1508.40
             1658.78,1505.08 1660.52,1504.61 1662.00,1500.00
             1662.00,1500.00 1693.00,1500.00 1693.00,1500.00
             1692.72,1508.74 1689.91,1509.93 1684.28,1515.98
             1684.28,1515.98 1664.00,1537.13 1664.00,1537.13
             1662.26,1539.18 1656.92,1544.03 1656.52,1546.16
             1655.89,1549.51 1664.30,1557.59 1666.88,1559.85
             1672.32,1564.61 1670.74,1564.54 1673.55,1567.52
             1673.55,1567.52 1679.31,1572.52 1679.31,1572.52
             1679.31,1572.52 1684.30,1578.72 1684.30,1578.72
             1686.65,1581.21 1693.53,1588.26 1694.86,1591.13
             1698.81,1599.66 1689.91,1609.62 1681.00,1607.61
             1675.79,1606.43 1676.13,1603.82 1670.00,1602.00
             1666.94,1594.22 1651.88,1580.58 1645.39,1574.13
             1641.87,1570.62 1640.57,1565.92 1635.96,1567.24
             1633.42,1567.96 1628.89,1574.01 1626.14,1576.42
             1626.14,1576.42 1597.57,1605.40 1597.57,1605.40
             1590.67,1609.60 1582.60,1608.12 1579.57,1600.00
             1579.57,1600.00 1578.00,1591.00 1578.00,1591.00
             1582.24,1588.44 1582.32,1585.86 1585.44,1582.51 Z
           M 748.00,1530.81
           C 748.00,1530.81 756.00,1530.16 756.00,1530.16
             756.00,1530.16 764.00,1530.16 764.00,1530.16
             764.00,1530.16 774.00,1530.16 774.00,1530.16
             774.00,1530.16 781.41,1531.06 781.41,1531.06
             784.29,1531.14 786.48,1529.79 793.00,1530.04
             793.00,1530.04 800.00,1530.66 800.00,1530.66
             800.00,1530.66 810.00,1530.04 810.00,1530.04
             810.00,1530.04 823.00,1531.23 823.00,1531.23
             823.00,1531.23 837.00,1531.23 837.00,1531.23
             837.00,1531.23 846.00,1531.23 846.00,1531.23
             846.00,1531.23 853.00,1531.23 853.00,1531.23
             853.00,1531.23 860.00,1531.23 860.00,1531.23
             864.89,1530.85 874.90,1531.84 878.70,1534.97
             884.42,1539.68 882.55,1550.99 876.87,1554.97
             875.60,1555.87 874.52,1556.36 873.00,1556.81
             873.00,1556.81 853.00,1556.81 853.00,1556.81
             853.00,1556.81 845.00,1556.81 845.00,1556.81
             845.00,1556.81 836.00,1556.81 836.00,1556.81
             836.00,1556.81 828.00,1556.18 828.00,1556.18
             828.00,1556.18 818.00,1556.95 818.00,1556.95
             818.00,1556.95 811.58,1555.90 811.58,1555.90
             811.58,1555.90 803.00,1555.90 803.00,1555.90
             803.00,1555.90 791.00,1555.90 791.00,1555.90
             791.00,1555.90 784.00,1556.66 784.00,1556.66
             784.00,1556.66 776.17,1555.95 776.17,1555.95
             776.17,1555.95 765.00,1555.95 765.00,1555.95
             765.00,1555.95 757.00,1555.34 757.00,1555.34
             757.00,1555.34 746.00,1555.96 746.00,1555.96
             738.32,1555.64 725.45,1553.99 725.34,1544.00
             725.32,1541.94 725.81,1539.35 726.91,1537.59
             726.91,1537.59 732.63,1530.81 732.63,1530.81
             738.09,1528.75 742.56,1530.90 748.00,1530.81 Z
           M 1840.42,1539.06
           C 1840.42,1539.06 1868.00,1539.06 1868.00,1539.06
             1868.00,1539.06 1938.00,1539.06 1938.00,1539.06
             1942.93,1538.97 1953.01,1538.17 1956.93,1540.74
             1964.34,1545.49 1964.55,1558.20 1956.93,1562.55
             1953.17,1564.64 1937.18,1563.99 1932.00,1564.00
             1932.00,1564.00 1911.00,1564.68 1911.00,1564.68
             1911.00,1564.68 1902.00,1564.02 1902.00,1564.02
             1902.00,1564.02 1893.00,1564.82 1893.00,1564.82
             1893.00,1564.82 1885.00,1564.31 1885.00,1564.31
             1885.00,1564.31 1878.00,1564.31 1878.00,1564.31
             1878.00,1564.31 1867.00,1564.31 1867.00,1564.31
             1867.00,1564.31 1857.00,1564.31 1857.00,1564.31
             1857.00,1564.31 1848.00,1564.31 1848.00,1564.31
             1848.00,1564.31 1840.00,1564.31 1840.00,1564.31
             1840.00,1564.31 1832.00,1563.70 1832.00,1563.70
             1832.00,1563.70 1821.00,1564.57 1821.00,1564.57
             1812.28,1563.53 1808.68,1558.26 1809.02,1550.00
             1809.16,1546.59 1809.51,1545.32 1811.98,1542.83
             1816.81,1537.96 1823.72,1539.33 1830.00,1538.47
             1830.00,1538.47 1840.42,1539.06 1840.42,1539.06 Z
           M 2224.00,1573.00
           C 2224.00,1573.00 2225.00,1574.00 2225.00,1574.00
             2225.00,1574.00 2225.00,1573.00 2225.00,1573.00
             2225.00,1573.00 2224.00,1573.00 2224.00,1573.00 Z
           M 2208.00,1590.00
           C 2208.00,1590.00 2209.00,1591.00 2209.00,1591.00
             2209.00,1591.00 2209.00,1590.00 2209.00,1590.00
             2209.00,1590.00 2208.00,1590.00 2208.00,1590.00 Z
           M 2179.00,1621.00
           C 2179.00,1621.00 2180.00,1622.00 2180.00,1622.00
             2180.00,1622.00 2180.00,1621.00 2180.00,1621.00
             2180.00,1621.00 2179.00,1621.00 2179.00,1621.00 Z
           M 2176.00,1622.00
           C 2176.00,1622.00 2177.00,1623.00 2177.00,1623.00
             2177.00,1623.00 2177.00,1622.00 2177.00,1622.00
             2177.00,1622.00 2176.00,1622.00 2176.00,1622.00 Z
           M 1375.00,1633.00
           C 1375.00,1633.00 1375.00,1636.00 1375.00,1636.00
             1375.00,1636.00 1372.00,1636.00 1372.00,1636.00
             1372.00,1636.00 1372.00,1633.00 1372.00,1633.00
             1372.00,1633.00 1375.00,1633.00 1375.00,1633.00 Z
           M 1398.00,1633.00
           C 1398.00,1633.00 1398.00,1636.00 1398.00,1636.00
             1398.00,1636.00 1395.00,1636.00 1395.00,1636.00
             1395.00,1636.00 1395.00,1633.00 1395.00,1633.00
             1395.00,1633.00 1398.00,1633.00 1398.00,1633.00 Z
           M 1406.00,1634.00
           C 1406.00,1634.00 1406.00,1637.00 1406.00,1637.00
             1406.00,1637.00 1400.00,1637.00 1400.00,1637.00
             1400.00,1637.00 1400.00,1634.00 1400.00,1634.00
             1400.00,1634.00 1406.00,1634.00 1406.00,1634.00 Z" />
</svg>
