<?xml version="1.0" encoding="UTF-8" standalone="no"?>
<!DOCTYPE svg PUBLIC "-//W3C//DTD SVG 20010904//EN"
              "http://www.w3.org/TR/2001/REC-SVG-20010904/DTD/svg10.dtd">

<svg xmlns="http://www.w3.org/2000/svg"
      width="100%" height="100%">
    <defs>
     <pattern id="iitb-pattern" x="0" y="0" width="267" height="260" patternUnits="userSpaceOnUse">
  <path id="Selection"
        fill="#46D9FF" stroke="#46D9FF" stroke-width="1"
        d="M 71.00,5.00
           C 71.00,5.00 68.00,3.00 68.00,3.00
             68.00,3.00 69.00,2.00 69.00,2.00
             69.00,2.00 71.00,5.00 71.00,5.00 Z
           M 81.00,5.00
           C 81.00,5.00 78.00,5.00 78.00,5.00
             78.00,5.00 79.00,2.00 79.00,2.00
             79.00,2.00 81.00,5.00 81.00,5.00 Z
           M 161.00,44.00
           C 161.00,44.00 147.98,31.82 147.98,31.82
             147.98,31.82 144.20,26.00 144.20,26.00
             144.20,26.00 148.02,20.17 148.02,20.17
             148.02,20.17 161.00,8.00 161.00,8.00
             173.25,17.22 173.26,34.76 161.00,44.00 Z
           M 4.00,12.00
           C 4.00,12.00 4.00,15.00 4.00,15.00
             4.00,15.00 1.00,13.00 1.00,13.00
             1.00,13.00 4.00,12.00 4.00,12.00 Z
           M 149.63,26.00
           C 149.63,29.67 157.93,38.25 161.78,37.26
             164.25,36.62 165.27,33.19 165.67,31.00
             166.62,25.77 167.00,15.03 159.96,14.74
             156.45,16.40 149.63,21.67 149.63,26.00 Z
           M 28.98,31.17
           C 24.71,35.21 21.36,39.47 16.00,42.00
             16.00,42.00 15.00,41.00 15.00,41.00
             18.55,33.50 26.12,28.61 32.00,23.00
             34.54,27.03 31.97,28.34 28.98,31.17 Z
           M 70.00,34.89
           C 73.63,35.37 75.85,32.32 80.00,32.40
             83.60,32.47 85.88,34.94 89.00,34.82
             92.52,34.69 95.30,31.05 101.00,33.16
             110.18,36.56 108.66,48.19 106.40,49.98
             104.81,51.23 100.99,51.00 99.00,51.00
             99.00,51.00 60.00,51.00 60.00,51.00
             58.06,51.00 54.28,51.25 52.74,50.01
             49.21,47.15 51.95,38.98 54.42,36.21
             56.25,34.15 57.57,33.68 60.00,32.69
             66.36,31.99 65.71,34.33 70.00,34.89 Z
           M 67.49,38.31
           C 64.80,35.48 59.22,35.20 56.60,38.31
             54.60,40.68 55.00,45.04 55.00,48.00
             55.00,48.00 97.00,48.00 97.00,48.00
             99.95,47.98 103.74,48.44 104.67,44.85
             106.34,38.43 99.86,34.19 94.21,36.74
             91.42,37.99 90.80,40.34 90.00,43.00
             90.00,43.00 88.00,43.00 88.00,43.00
             83.72,33.73 76.00,33.25 72.00,43.00
             72.00,43.00 70.00,43.00 70.00,43.00
             69.31,41.33 68.78,39.66 67.49,38.31 Z
           M 259.21,62.00
           C 262.97,69.23 264.72,79.34 255.00,82.72
             242.27,87.16 225.52,71.32 220.38,61.00
             216.47,53.17 216.63,45.22 225.00,40.74
             238.48,37.52 253.44,50.89 259.21,62.00 Z
           M 224.38,61.00
           C 228.48,69.21 243.04,81.90 252.98,79.53
             260.83,77.67 257.79,66.89 255.10,62.00
             249.66,52.13 237.98,42.65 226.11,44.43
             219.82,47.44 221.80,55.84 224.38,61.00 Z
           M 248.00,68.00
           C 241.16,68.84 235.62,61.06 232.00,56.00
             232.00,56.00 234.00,54.00 234.00,54.00
             234.00,54.00 248.00,68.00 248.00,68.00 Z
           M 137.00,68.00
           C 137.00,68.00 138.00,70.00 138.00,70.00
             138.00,70.00 137.00,71.00 137.00,71.00
             137.00,71.00 135.00,68.00 135.00,68.00
             135.00,68.00 137.00,68.00 137.00,68.00 Z
           M 56.00,96.00
           C 51.15,98.06 47.01,98.81 42.00,100.15
             40.33,100.60 36.95,101.77 35.33,101.22
             33.03,100.43 33.55,97.83 33.92,96.00
             34.74,91.86 37.18,83.74 39.00,80.00
             44.26,82.49 52.90,90.99 56.00,96.00 Z
           M 202.00,90.00
           C 202.00,90.00 202.00,92.00 202.00,92.00
             202.00,92.00 201.00,93.00 201.00,93.00
             201.00,93.00 193.00,90.00 193.00,90.00
             194.79,99.54 199.26,99.64 198.00,107.00
             198.00,107.00 173.00,93.00 173.00,93.00
             174.76,99.17 179.36,107.30 182.58,113.00
             185.25,117.74 187.99,121.45 187.00,127.00
             187.00,127.00 139.00,97.00 139.00,97.00
             139.00,97.00 139.00,95.00 139.00,95.00
             144.62,94.55 147.40,97.70 152.00,100.58
             158.16,104.43 173.39,114.85 179.00,117.00
             179.00,117.00 164.00,83.00 164.00,83.00
             164.00,83.00 189.00,96.00 189.00,96.00
             189.00,96.00 183.00,81.00 183.00,81.00
             189.43,80.07 196.77,86.51 202.00,90.00 Z
           M 40.00,87.00
           C 40.00,87.00 38.00,97.00 38.00,97.00
             38.00,97.00 49.00,95.00 49.00,95.00
             47.43,89.68 45.47,87.89 40.00,87.00 Z
           M 104.96,103.00
           C 105.39,112.09 102.32,122.93 98.24,131.00
             96.29,134.85 94.36,138.34 90.00,139.81
             84.05,141.83 78.93,137.00 79.15,131.00
             79.31,126.47 82.77,121.72 84.23,117.00
             87.03,107.90 83.25,96.05 93.02,90.75
             101.29,89.20 104.62,95.72 104.96,103.00 Z
           M 94.10,94.66
           C 88.59,96.43 90.00,107.36 90.00,112.00
             90.00,112.00 100.00,114.00 100.00,114.00
             101.06,109.65 103.26,91.71 94.10,94.66 Z
           M 83.81,127.00
           C 82.29,131.44 83.48,139.03 89.91,135.81
             93.69,133.91 100.90,121.46 97.36,117.85
             95.40,115.85 90.63,116.02 88.00,116.00
             86.32,123.15 85.32,122.61 83.81,127.00 Z
           M 265.00,120.00
           C 265.00,120.00 262.69,123.40 262.69,123.40
             262.69,123.40 256.00,124.00 256.00,124.00
             256.00,124.00 241.59,122.98 241.59,122.98
             241.59,122.98 240.00,120.00 240.00,120.00
             240.00,120.00 265.00,120.00 265.00,120.00 Z
           M 50.00,134.00
           C 50.00,134.00 48.00,137.00 48.00,137.00
             48.00,137.00 47.00,136.00 47.00,136.00
             47.00,136.00 50.00,134.00 50.00,134.00 Z
           M 144.00,145.00
           C 144.00,145.00 145.00,155.00 145.00,155.00
             145.00,155.00 156.00,157.00 156.00,157.00
             152.19,160.76 150.10,160.00 145.00,160.00
             145.00,164.81 146.13,168.20 141.00,170.00
             141.00,170.00 140.00,160.00 140.00,160.00
             135.19,160.00 131.80,161.13 130.00,156.00
             130.00,156.00 140.00,155.00 140.00,155.00
             140.02,150.01 139.28,147.66 144.00,145.00 Z
           M 207.98,150.17
           C 212.69,152.60 213.71,156.15 214.00,161.00
             222.35,161.47 226.09,164.52 227.00,173.00
             237.28,174.10 243.96,182.94 235.22,191.00
             235.22,191.00 235.22,183.00 235.22,183.00
             234.22,175.76 227.14,177.32 222.00,178.00
             222.66,172.95 224.13,165.90 216.98,164.89
             216.98,164.89 209.00,164.89 209.00,164.89
             212.47,155.50 207.50,150.53 198.00,154.00
             198.06,148.39 203.94,148.09 207.98,150.17 Z
           M 17.00,173.43
           C 9.95,174.80 2.31,168.37 3.65,161.00
             4.59,155.81 8.35,153.16 13.00,151.59
             28.46,150.18 31.42,170.62 17.00,173.43 Z
           M 16.98,169.55
           C 23.29,167.96 22.67,160.04 20.40,157.43
             18.32,155.04 15.83,155.17 13.02,155.45
             3.94,159.25 7.93,171.84 16.98,169.55 Z
           M 216.00,184.00
           C 220.50,188.49 225.94,192.42 229.00,198.00
             223.00,198.22 220.01,193.99 216.00,190.00
             209.59,183.62 191.25,166.88 188.00,160.00
             188.00,160.00 189.00,159.00 189.00,159.00
             195.78,162.20 209.89,177.90 216.00,184.00 Z
           M 17.00,163.00
           C 17.00,163.00 13.00,162.00 13.00,162.00
             13.00,162.00 17.00,163.00 17.00,163.00 Z
           M 94.00,186.00
           C 94.00,186.00 93.00,187.00 93.00,187.00
             87.69,184.49 80.06,178.20 80.00,172.00
             85.52,175.70 91.11,179.88 94.00,186.00 Z
           M 36.00,210.91
           C 41.82,205.49 49.57,195.18 57.00,193.00
             54.16,202.67 39.08,209.26 34.00,220.00
             34.00,220.00 56.00,220.00 56.00,220.00
             58.56,220.05 63.36,220.00 61.83,224.06
             61.06,226.11 57.62,229.39 56.00,230.99
             56.00,230.99 42.00,244.00 42.00,244.00
             38.35,247.64 36.36,250.95 31.00,251.00
             31.00,251.00 55.00,224.00 55.00,224.00
             55.00,224.00 25.00,223.00 25.00,223.00
             27.88,216.91 31.28,215.31 36.00,210.91 Z
           M 128.00,244.00
           C 127.96,245.92 128.09,248.67 126.40,249.97
             123.85,251.94 118.54,249.86 116.00,248.68
             105.98,244.03 100.55,236.16 101.04,225.00
             101.94,204.54 128.97,192.21 144.79,210.04
             146.51,211.98 147.51,213.63 148.53,216.00
             149.58,218.42 151.74,224.04 149.96,226.40
             148.58,228.25 145.07,227.99 143.00,228.00
             143.00,228.00 128.00,228.00 128.00,228.00
             128.00,228.00 128.00,244.00 128.00,244.00 Z
           M 142.61,213.02
           C 140.55,210.44 138.02,208.32 135.00,206.97
             110.85,196.14 93.87,229.71 113.02,243.35
             116.37,245.74 120.02,246.44 124.00,247.00
             124.00,242.85 122.97,228.31 125.60,225.74
             128.34,223.05 142.70,224.00 147.00,224.00
             146.32,219.65 145.43,216.55 142.61,213.02 Z
           M 181.00,206.00
           C 181.00,206.00 178.00,207.00 178.00,207.00
             178.00,207.00 178.00,204.00 178.00,204.00
             178.00,204.00 181.00,206.00 181.00,206.00 Z
           M 265.00,212.00
           C 265.00,212.00 261.00,211.00 261.00,211.00
             261.00,211.00 265.00,212.00 265.00,212.00 Z
           M 133.00,214.00
           C 133.00,214.00 134.00,217.00 134.00,217.00
             134.00,217.00 130.00,218.00 130.00,218.00
             130.00,218.00 131.00,214.00 131.00,214.00
             131.00,214.00 133.00,214.00 133.00,214.00 Z
           M 243.91,239.22
           C 251.73,244.31 249.65,253.90 241.00,255.38
             237.13,256.04 231.33,253.64 227.00,253.00
             220.45,252.47 205.89,254.82 202.02,253.00
             195.22,249.32 194.91,242.41 201.10,238.14
             205.13,235.37 210.32,235.13 215.00,234.42
             222.48,233.51 237.56,235.10 243.91,239.22 Z
           M 200.66,246.78
           C 202.46,251.96 214.57,249.04 219.00,249.00
             219.00,249.00 219.00,238.00 219.00,238.00
             214.49,238.21 197.92,238.89 200.66,246.78 Z
           M 223.21,244.00
           C 223.21,245.50 223.57,247.02 224.74,248.05
             226.87,249.93 239.19,252.37 241.85,251.25
             245.74,249.61 245.65,244.66 241.85,242.09
             237.92,239.41 229.98,238.47 225.43,239.57
             223.71,241.06 223.21,241.46 223.21,244.00 Z
           M 76.00,255.00
           C 76.00,255.00 76.00,258.00 76.00,258.00
             76.00,258.00 73.00,256.00 73.00,256.00
             73.00,256.00 76.00,255.00 76.00,255.00 Z" />
             </pattern>
             </defs>

             <rect x="0" y="0" width="100%" height="100%" fill="url(#iitb-pattern)" fill-opacity="4%" />
</svg>
